<svg xmlns="http://www.w3.org/2000/svg" xmlns:xlink="http://www.w3.org/1999/xlink" width="246" height="74" viewBox="0 0 246 74">
  <defs>
    <radialGradient id="radial-gradient" cx="0.284" cy="-0.071" r="1.118" gradientTransform="matrix(-0.772, 0.505, -0.452, -0.863, -1.094, -0.762)" gradientUnits="objectBoundingBox">
      <stop offset="0" stop-color="#bdd6fb"/>
      <stop offset="0.05" stop-color="#a8ccf8"/>
      <stop offset="0.1" stop-color="#67adef"/>
      <stop offset="0.84" stop-color="#d9c7f9"/>
      <stop offset="1" stop-color="#c5e6fb"/>
    </radialGradient>
    <linearGradient id="linear-gradient" x1="-1.115" y1="-0.68" x2="-1.111" y2="-0.68" gradientUnits="objectBoundingBox">
      <stop offset="0" stop-color="#8fd5e3"/>
      <stop offset="0.01" stop-color="#38c6f4"/>
      <stop offset="1" stop-color="#9bdefa"/>
    </linearGradient>
    <linearGradient id="linear-gradient-2" x1="-0.966" y1="-0.411" x2="-0.961" y2="-0.411" gradientUnits="objectBoundingBox">
      <stop offset="0" stop-color="#ffc000"/>
      <stop offset="1" stop-color="#ffdd62"/>
    </linearGradient>
  </defs>
  <g id="logo_with_text" transform="translate(-7847.074 -0.002)">
    <g id="Artboard5" transform="translate(7847.074 0.002)">
      <rect id="Rectangle_4" data-name="Rectangle 4" width="246" height="74" transform="translate(0)" fill="none"/>
      <g id="Group_8" data-name="Group 8" transform="translate(1.913 2.043)">
        <g id="Group_5" data-name="Group 5" transform="translate(0 10.938)">
          <path id="Path_4" data-name="Path 4" d="M504.355,506.673c-18.57,8.093-46.07-15.374-31.849-41.427a34.916,34.916,0,0,0,25.486,58.937c17.759,0,34.317-16.7,30.16-34.6-2.3-9.841-10.681-16.606-21.3-12.817C521.726,482.206,517.082,501.106,504.355,506.673Z" transform="translate(-462.931 -465.246)" fill-rule="evenodd" fill="url(#radial-gradient)"/>
        </g>
        <g id="Group_6" data-name="Group 6" transform="translate(21.981 7.247)">
          <path id="Path_5" data-name="Path 5" d="M803.408,431.935c-1.688-1.262-3.278-1.843-2.5-4.3,1.916-6.116,10.876-6.957,16.039-4.885,11.493,4.628,15.519,18.9,12.271,30.036a34.632,34.632,0,0,0,2.826-13.757c0-17.349-12.143-30.2-30.454-27.251-8.7,1.39-14.837,7.056-16.948,13.884-2.5,8.026,1.4,19.712,10.324,20.876C803.506,447.667,811.754,438.183,803.408,431.935Z" transform="translate(-783.899 -411.351)" fill-rule="evenodd" fill="url(#linear-gradient)"/>
        </g>
        <g id="Group_7" data-name="Group 7" transform="translate(8.095 0)">
          <path id="Path_6" data-name="Path 6" d="M618.365,352.263c-21.46,8.546-33.6-12.882-25.811-29.517,5.292-11.3,18.766-16.379,29.772-14.243A35.572,35.572,0,0,0,602,306.043c-14.9,2.59-23.7,16.315-20.033,30.944a24.961,24.961,0,0,0,4.643,9.45C594.015,356.049,607.617,360.225,618.365,352.263Z" transform="translate(-581.138 -305.528)" fill-rule="evenodd" fill="url(#linear-gradient-2)"/>
        </g>
      </g>
      <g id="Group_9" data-name="Group 9" transform="translate(85.122 21.274)">
        <path id="Path_7" data-name="Path 7" d="M3527.618,116.984v-4.327h-5.642v-4.369a4.139,4.139,0,0,1,.705-2.5,5.15,5.15,0,0,1,7,0,3.839,3.839,0,0,1,.655,2.5v22.385h6.146v-22.51a7.371,7.371,0,0,0-1.511-5.326c-2.015-2.5-6.044-3-8.815-3-4.181,0-7.1,1.207-8.714,3-1.662,1.872-1.612,3.454-1.612,5.326v4.494h-2.317v4.327h2.317v13.689h6.145V116.984Z" transform="translate(-3513.514 -99.841)" fill="#cfc5f8"/>
        <path id="Path_8" data-name="Path 8" d="M3930.543,278.467a14.206,14.206,0,0,0-8.815,2.538,8.6,8.6,0,0,0,0,14.105,16.577,16.577,0,0,0,17.63,0,8.6,8.6,0,0,0,0-14.105A14.206,14.206,0,0,0,3930.543,278.467Zm0,14.688c-3.577,0-6.146-2.33-6.146-5.076,0-2.829,2.619-5.118,6.146-5.118s6.145,2.288,6.145,5.118C3936.688,290.824,3934.12,293.154,3930.543,293.154Z" transform="translate(-3892.898 -266.234)" fill="#cfc5f8"/>
        <path id="Path_9" data-name="Path 9" d="M4317.911,294.378l5.743,10.61h3.022l11.082-18.016h-6.85l-5.742,10.4-5.843-10.4H4316.5l-5.843,10.4-5.742-10.4h-6.851l11.082,18.016h3.022Z" transform="translate(-4249.902 -274.157)" fill="#cfc5f8"/>
        <path id="Path_10" data-name="Path 10" d="M4904.759,280.38a12.513,12.513,0,0,0-6.951-1.914,10.46,10.46,0,0,0-5.692,1.29,5.04,5.04,0,0,0-2.267,4.078,4.436,4.436,0,0,0,1.662,3.454,12.638,12.638,0,0,0,4.684,2.164l1.411.416c.806.25,1.914.707,1.914,1.831,0,1.248-1.31,1.956-3.022,1.956a7.3,7.3,0,0,1-4.836-2.08l-3.224,3.079a12.11,12.11,0,0,0,8.463,3,10.382,10.382,0,0,0,6.548-1.914,5.557,5.557,0,0,0,2.418-4.577,4.618,4.618,0,0,0-1.108-3c-1.259-1.415-3.828-2.122-5.541-2.58l-1.461-.374c-1.712-.458-1.965-1.165-1.965-1.623,0-.874.907-1.456,2.368-1.456a5.76,5.76,0,0,1,3.577,1.207Z" transform="translate(-4802.481 -266.234)" fill="#cfc5f8"/>
        <path id="Path_11" data-name="Path 11" d="M5206.884,291.282a5.927,5.927,0,0,1-5.087,2.372,5.609,5.609,0,0,1-4.383-1.706,4.67,4.67,0,0,1-1.058-3.037h16.32v-.416a9.5,9.5,0,0,0-2.619-7.073c-1.511-1.5-4.08-2.954-8.513-2.954a12.642,12.642,0,0,0-8.21,2.538,8.839,8.839,0,0,0-3.324,7.073,8.349,8.349,0,0,0,3.425,7.032,12.879,12.879,0,0,0,8.362,2.538c7.606,0,10.074-4.286,10.729-5.617Zm-10.326-5.617c.5-2.413,2.872-3.62,5.138-3.62s4.685,1.165,5.188,3.62Z" transform="translate(-5087.385 -266.234)" fill="#cfc5f8"/>
        <path id="Path_12" data-name="Path 12" d="M5590.133,297.065h6.145v-8.655a5.377,5.377,0,0,1,1.209-3.994,5.584,5.584,0,0,1,4.08-1.456,5.347,5.347,0,0,1,2.872.666l.806-4.743a8.964,8.964,0,0,0-2.619-.416,7.784,7.784,0,0,0-3.627.791,6.763,6.763,0,0,0-2.72,2.5v-2.7h-6.145Z" transform="translate(-5460.106 -266.234)" fill="#cfc5f8"/>
      </g>
    </g>
  </g>
</svg>
