<svg width="14" height="15" viewBox="0 0 14 15" fill="none" xmlns="http://www.w3.org/2000/svg">
    <path d="M9.632 7.99001C10.355 7.44164 10.8876 6.68013 11.1546 5.8129C11.4217 4.94566 11.4097 4.01647 11.1204 3.15639C10.8312 2.29632 10.2791 1.54876 9.54229 1.01918C8.80544 0.489597 7.92092 0.204712 7.0135 0.204712C6.10608 0.204712 5.22156 0.489597 4.4847 1.01918C3.74785 1.54876 3.19586 2.29632 2.90658 3.15639C2.6173 4.01647 2.60533 4.94566 2.87238 5.8129C3.13943 6.68013 3.67201 7.44164 4.395 7.99001C3.24147 8.49784 2.26046 9.33008 1.5714 10.3854C0.882348 11.4407 0.514973 12.6736 0.514 13.934V14.656H13.514V13.934C13.5129 12.6735 13.1454 11.4406 12.4562 10.3852C11.7669 9.32986 10.7857 8.49769 9.632 7.99001ZM4.12499 4.54501C4.12499 3.9737 4.29439 3.41522 4.61175 2.94017C4.92911 2.46512 5.38019 2.09483 5.90797 1.87611C6.43575 1.65739 7.01652 1.60006 7.57688 1.71137C8.13724 1.82268 8.65202 2.09764 9.05613 2.50147C9.46024 2.90531 9.73554 3.41988 9.84724 3.98016C9.95894 4.54044 9.90202 5.12126 9.68366 5.64919C9.46531 6.17712 9.09532 6.62846 8.62049 6.94615C8.14566 7.26384 7.5873 7.43361 7.016 7.43401C6.24951 7.43401 5.51437 7.12973 4.9721 6.58802C4.42983 6.04631 4.12579 5.31149 4.12499 4.54501ZM2.009 13.209C2.18364 12.0066 2.78544 10.9073 3.70426 10.1123C4.62308 9.31727 5.79748 8.87973 7.0125 8.87973C8.22753 8.87973 9.40191 9.31727 10.3207 10.1123C11.2396 10.9073 11.8414 12.0066 12.016 13.209H2.009Z" fill="white"/>
</svg>
