<svg width="14" height="13" viewBox="0 0 14 13" fill="none" xmlns="http://www.w3.org/2000/svg">
    <path d="M11.303 2.13701C10.6561 1.45058 9.86692 0.91386 8.9908 0.564413C8.11468 0.214966 7.17276 0.061248 6.231 0.114019C5.0708 0.170261 3.94449 0.52354 2.96001 1.14001C2.16172 1.60299 1.51286 2.2851 1.09033 3.10551C0.667805 3.92593 0.489319 4.85027 0.576003 5.76902C0.718009 6.5026 1.06776 7.17995 1.58365 7.72048C2.09953 8.26101 2.75984 8.64196 3.48601 8.81801C3.90201 8.92901 4.37301 9.09502 4.31801 9.61802C4.17901 10.45 2.93201 10.671 3.34801 11.641C3.79101 12.694 5.427 12.861 6.425 12.888C7.44818 12.9192 8.4639 12.7045 9.38695 12.262C10.31 11.8194 11.1134 11.1619 11.7298 10.3446C12.3461 9.52731 12.7575 8.5741 12.9293 7.56496C13.101 6.55582 13.0282 5.52021 12.717 4.54502C12.4361 3.64386 11.9524 2.81907 11.303 2.13402V2.13701ZM3.79201 5.38002C3.72612 5.53335 3.61623 5.6637 3.47627 5.75461C3.33631 5.84551 3.17254 5.89288 3.00566 5.89072C2.83878 5.88857 2.67629 5.83698 2.53873 5.7425C2.40116 5.64801 2.2947 5.51486 2.23279 5.35988C2.17088 5.20489 2.15631 5.03503 2.19092 4.87177C2.22552 4.70851 2.30775 4.55917 2.42721 4.44263C2.54668 4.3261 2.69802 4.24759 2.86209 4.21705C3.02616 4.1865 3.1956 4.20528 3.349 4.27102C3.45377 4.31126 3.54909 4.37273 3.62897 4.45157C3.70884 4.53042 3.77155 4.62493 3.81316 4.72917C3.85476 4.83341 3.87435 4.94513 3.87071 5.0573C3.86707 5.16948 3.84028 5.2787 3.79201 5.38002ZM6.979 10.452C6.93786 10.6138 6.84967 10.7597 6.72558 10.8714C6.6015 10.983 6.44709 11.0554 6.28189 11.0793C6.11669 11.1032 5.9481 11.0776 5.79745 11.0057C5.64681 10.9338 5.52088 10.8188 5.43558 10.6753C5.35027 10.5318 5.30942 10.3663 5.31821 10.1996C5.32699 10.0329 5.38501 9.87254 5.48492 9.73882C5.58484 9.6051 5.72215 9.50401 5.87952 9.44833C6.03688 9.39265 6.20722 9.38489 6.369 9.42602C6.47867 9.44951 6.58229 9.49542 6.67338 9.56085C6.76447 9.62628 6.84107 9.70984 6.89834 9.80626C6.95562 9.90269 6.99234 10.0099 7.00622 10.1212C7.0201 10.2325 7.01084 10.3445 6.979 10.452ZM6.397 3.13402C6.22967 3.13677 6.06527 3.08982 5.92462 2.99913C5.78397 2.90843 5.67338 2.77805 5.60684 2.62449C5.5403 2.47093 5.5208 2.30109 5.55081 2.13645C5.58082 1.97181 5.65899 1.81976 5.77542 1.69954C5.89185 1.57933 6.04132 1.49635 6.20492 1.4611C6.36853 1.42586 6.53891 1.43993 6.69452 1.50153C6.85012 1.56314 6.98396 1.66951 7.0791 1.80719C7.17424 1.94487 7.22641 2.10768 7.229 2.27501C7.23166 2.38624 7.21218 2.4969 7.17172 2.60054C7.13126 2.70418 7.07061 2.79875 6.9933 2.87876C6.91599 2.95877 6.82355 3.02263 6.72136 3.06662C6.61916 3.11061 6.50925 3.13385 6.39799 3.13502L6.397 3.13402ZM10.804 9.06602C10.6971 9.19469 10.5545 9.28879 10.3941 9.33642C10.2338 9.38406 10.0629 9.38308 9.90309 9.33362C9.74329 9.28417 9.60175 9.18844 9.49634 9.05855C9.39093 8.92867 9.32638 8.77045 9.31087 8.60389C9.29536 8.43733 9.32958 8.26991 9.40919 8.12279C9.48881 7.97568 9.61026 7.85546 9.75818 7.77735C9.9061 7.69924 10.0739 7.66673 10.2402 7.68394C10.4066 7.70114 10.5642 7.76729 10.693 7.87401C10.7793 7.94457 10.8508 8.03159 10.9032 8.13C10.9555 8.22842 10.9879 8.33627 10.9982 8.44729C11.0085 8.5583 10.9967 8.67025 10.9633 8.77665C10.93 8.88304 10.8758 8.98074 10.804 9.06602ZM10.638 4.96602C10.4873 5.04004 10.318 5.06769 10.1515 5.04548C9.98505 5.02328 9.82892 4.9522 9.70286 4.84125C9.57681 4.7303 9.48648 4.58447 9.44331 4.42218C9.40015 4.25989 9.40606 4.08845 9.46034 3.92953C9.51462 3.77062 9.61482 3.63136 9.74824 3.52939C9.88167 3.42741 10.0423 3.3673 10.2099 3.35665C10.3775 3.346 10.5445 3.38529 10.6898 3.46955C10.835 3.55381 10.952 3.67925 11.026 3.83001C11.1191 4.03289 11.1307 4.26375 11.0585 4.47495C10.9863 4.68615 10.8358 4.86257 10.638 4.96602Z" fill="white"/>
</svg>
