<svg id="Group_166" data-name="Group 166" xmlns="http://www.w3.org/2000/svg" width="72" height="72" viewBox="0 0 72 72">
  <path id="Rectangle_13" data-name="Rectangle 13" d="M0,0H72a0,0,0,0,1,0,0V22A50,50,0,0,1,22,72H0a0,0,0,0,1,0,0V0A0,0,0,0,1,0,0Z" fill="#ffc016"/>
  <path id="back" d="M32.921,14.64H6.189l8.046-8.046a1.52,1.52,0,1,0-2.15-2.15L1.445,15.086a1.52,1.52,0,0,0,0,2.149l10.64,10.64a1.52,1.52,0,1,0,2.15-2.15L6.189,17.68H32.921a1.52,1.52,0,0,0,0-3.04Z" transform="translate(15 18.626)" fill="#191919"/>
</svg>
