<svg xmlns="http://www.w3.org/2000/svg" width="11.759" height="11.551" viewBox="0 0 11.759 11.551">
  <g id="calendar" transform="translate(0 0)">
    <g id="_x31_5_38_" transform="translate(0 0)">
      <g id="Group_155" data-name="Group 155" transform="translate(0 0)">
        <path id="Path_111" data-name="Path 111" d="M99.878,7.443h.168a.463.463,0,0,0,.463-.463V5.225a.463.463,0,0,0-.463-.463h-.168a.463.463,0,0,0-.463.463V6.98A.463.463,0,0,0,99.878,7.443Z" transform="translate(-97.004 -4.751)" fill="#abb4b8"/>
        <path id="Path_112" data-name="Path 112" d="M344.744,6.97h.168a.463.463,0,0,0,.463-.463V4.752a.463.463,0,0,0-.463-.463h-.168a.463.463,0,0,0-.463.463V6.507A.463.463,0,0,0,344.744,6.97Z" transform="translate(-335.933 -4.289)" fill="#abb4b8"/>
        <path id="Path_113" data-name="Path 113" d="M11.007,43.558H9.819v1.387a.745.745,0,0,1-.839.718H8.811a.84.84,0,0,1-.839-.839V43.558H3.881v1.277a.84.84,0,0,1-.839.839H2.874a.84.84,0,0,1-.839-.839V43.558H.753A.753.753,0,0,0,0,44.311V53.4a.753.753,0,0,0,.753.753H11.007a.753.753,0,0,0,.753-.753V44.311A.753.753,0,0,0,11.007,43.558Zm0,9.847H.753V46.537H11.007V53.4Z" transform="translate(0 -42.606)" fill="#abb4b8"/>
        <path id="Path_114" data-name="Path 114" d="M254.595,206.519h1.351a.1.1,0,0,0,.1-.1v-1.17a.1.1,0,0,0-.1-.1h-1.351a.1.1,0,0,0-.1.1v1.17A.1.1,0,0,0,254.595,206.519Z" transform="translate(-248.327 -200.284)" fill="#abb4b8"/>
        <path id="Path_115" data-name="Path 115" d="M345.54,206.519h1.351a.1.1,0,0,0,.1-.1v-1.17a.1.1,0,0,0-.1-.1H345.54a.1.1,0,0,0-.1.1v1.17A.1.1,0,0,0,345.54,206.519Z" transform="translate(-337.066 -200.284)" fill="#abb4b8"/>
        <path id="Path_116" data-name="Path 116" d="M72.708,285.518h1.351a.1.1,0,0,0,.1-.1v-1.17a.1.1,0,0,0-.1-.1H72.708a.1.1,0,0,0-.1.1v1.17A.1.1,0,0,0,72.708,285.518Z" transform="translate(-70.85 -277.368)" fill="#abb4b8"/>
        <path id="Path_117" data-name="Path 117" d="M163.652,285.518H165a.1.1,0,0,0,.1-.1v-1.17a.1.1,0,0,0-.1-.1h-1.351a.1.1,0,0,0-.1.1v1.17A.1.1,0,0,0,163.652,285.518Z" transform="translate(-159.589 -277.368)" fill="#abb4b8"/>
        <path id="Path_118" data-name="Path 118" d="M254.6,285.518h1.351a.1.1,0,0,0,.1-.1v-1.17a.1.1,0,0,0-.1-.1H254.6a.1.1,0,0,0-.1.1v1.17A.1.1,0,0,0,254.6,285.518Z" transform="translate(-248.328 -277.368)" fill="#abb4b8"/>
        <path id="Path_119" data-name="Path 119" d="M345.54,285.518h1.351a.1.1,0,0,0,.1-.1v-1.17a.1.1,0,0,0-.1-.1H345.54a.1.1,0,0,0-.1.1v1.17A.1.1,0,0,0,345.54,285.518Z" transform="translate(-337.066 -277.368)" fill="#abb4b8"/>
        <path id="Path_120" data-name="Path 120" d="M74.06,363.154H72.709a.1.1,0,0,0-.1.1v1.17a.1.1,0,0,0,.1.1H74.06a.1.1,0,0,0,.1-.1v-1.17A.1.1,0,0,0,74.06,363.154Z" transform="translate(-70.851 -354.452)" fill="#abb4b8"/>
        <path id="Path_121" data-name="Path 121" d="M165,363.154h-1.351a.1.1,0,0,0-.1.1v1.17a.1.1,0,0,0,.1.1H165a.1.1,0,0,0,.1-.1v-1.17A.1.1,0,0,0,165,363.154Z" transform="translate(-159.59 -354.452)" fill="#abb4b8"/>
        <path id="Path_122" data-name="Path 122" d="M255.948,363.154H254.6a.1.1,0,0,0-.1.1v1.17a.1.1,0,0,0,.1.1h1.351a.1.1,0,0,0,.1-.1v-1.17A.1.1,0,0,0,255.948,363.154Z" transform="translate(-248.329 -354.452)" fill="#abb4b8"/>
        <path id="Path_123" data-name="Path 123" d="M346.891,363.154H345.54a.1.1,0,0,0-.1.1v1.17a.1.1,0,0,0,.1.1h1.351a.1.1,0,0,0,.1-.1v-1.17A.1.1,0,0,0,346.891,363.154Z" transform="translate(-337.066 -354.452)" fill="#abb4b8"/>
      </g>
    </g>
  </g>
</svg>
