<svg id="revert" xmlns="http://www.w3.org/2000/svg" width="11" height="11" viewBox="0 0 11 11">
  <g id="Ellipse_15" data-name="Ellipse 15" fill="none" stroke="#9bdefa" stroke-width="1.5">
    <circle cx="5.5" cy="5.5" r="5.5" stroke="none"/>
    <circle cx="5.5" cy="5.5" r="4.75" fill="none"/>
  </g>
  <g id="noun-revert-3552538" transform="translate(2.612 1.915)">
    <path id="Path_303" data-name="Path 303" d="M189.043,146.163v-.754l-.942-.358v1.47a2.027,2.027,0,0,1-.552,1.4,1.84,1.84,0,0,1-1.332.579h-2.631l1.3-1.359-.667-.7-2.1,2.2a.511.511,0,0,0,0,.7l2.1,2.2.667-.7-1.3-1.359h2.631a2.761,2.761,0,0,0,2-.868,3.993,3.993,0,0,0,.828-2.455Z" transform="translate(-181.977 -145.051)" fill="#9bdefa"/>
  </g>
</svg>
