<svg xmlns="http://www.w3.org/2000/svg" width="17.294" height="17.5" viewBox="0 0 17.294 17.5">
  <g id="contract" transform="translate(0 -10.759)">
    <g id="Group_14" data-name="Group 14" transform="translate(0 10.759)">
      <g id="Group_13" data-name="Group 13" transform="translate(0 0)">
        <path id="Path_9" data-name="Path 9" d="M9.99,22.841a.6.6,0,0,1,.141-.268l2.479-2.687V11.344a.564.564,0,0,0-.54-.585H.54a.564.564,0,0,0-.54.585v16.33a.564.564,0,0,0,.54.585H12.07a.564.564,0,0,0,.54-.585V24.919l-.158.171a.531.531,0,0,1-.247.153l-2.1.585a.5.5,0,0,1-.134.018.519.519,0,0,1-.382-.171.619.619,0,0,1-.141-.559ZM3.331,14.457H9.279a.587.587,0,0,1,0,1.17H3.331a.587.587,0,0,1,0-1.17Zm0,2.234H9.279a.587.587,0,0,1,0,1.17H3.331a.587.587,0,0,1,0-1.17Zm0,2.234H9.279a.587.587,0,0,1,0,1.17H3.331a.587.587,0,0,1,0-1.17Zm2.974,5.637H3.331a.587.587,0,0,1,0-1.17H6.305a.587.587,0,0,1,0,1.17Zm2.974-2.234H3.331a.587.587,0,0,1,0-1.17H9.279a.587.587,0,0,1,0,1.17Z" transform="translate(0 -10.759)"/>
      </g>
    </g>
    <g id="Group_16" data-name="Group 16" transform="translate(10.527 17.724)">
      <g id="Group_15" data-name="Group 15" transform="translate(0 0)">
        <path id="Path_10" data-name="Path 10" d="M331.716,208.239l-5.585,5.585-.3,1.182,1.182-.3,5.585-5.585Z" transform="translate(-325.827 -208.239)"/>
      </g>
    </g>
  </g>
</svg>
