<svg xmlns="http://www.w3.org/2000/svg" width="30" height="30" viewBox="0 0 30 30">
  <g id="Group_625" data-name="Group 625" transform="translate(-747 -202)">
    <circle id="Ellipse_12" data-name="Ellipse 12" cx="15" cy="15" r="15" transform="translate(747 202)" fill="#41465b"/>
    <g id="noun-compare-368563" transform="translate(584.454 146.358)">
      <path id="Path_216" data-name="Path 216" d="M490.168,73.766v-6.2a2.606,2.606,0,0,0-2.6-2.6h-.632V63.54l-2.527,2.2,2.527,2.176V66.488h.632a1.073,1.073,0,0,1,1.076,1.076v6.177a1.846,1.846,0,1,0,2.6,1.685,1.762,1.762,0,0,0-1.076-1.661Zm-.749,2.6a.913.913,0,1,1,.913-.913A.929.929,0,0,1,489.419,76.363Z" transform="translate(-308.211)" fill="#e5e5e5"/>
      <path id="Path_217" data-name="Path 217" d="M173.159,102.348v6.177a2.606,2.606,0,0,0,2.6,2.6h.632v1.427l2.527-2.176-2.527-2.176v1.427h-.632a1.073,1.073,0,0,1-1.076-1.076v-6.2a1.851,1.851,0,1,0-2.621-1.685,1.828,1.828,0,0,0,1.1,1.685Zm.749-2.6a.913.913,0,1,1-.913.913A.929.929,0,0,1,173.908,99.75Z" transform="translate(0 -34.806)" fill="#e5e5e5"/>
    </g>
  </g>
</svg>
