<svg xmlns="http://www.w3.org/2000/svg" width="25" height="25" viewBox="0 0 25 25">
  <g id="Group_597" data-name="Group 597" transform="translate(-1774 -477)">
    <g id="Group_592" data-name="Group 592" transform="translate(0 167)">
      <g id="Group_586" data-name="Group 586" transform="translate(1774 310)">
        <g id="Ellipse_26" data-name="Ellipse 26" fill="none" stroke="#dd868b" stroke-width="1">
          <circle cx="12.5" cy="12.5" r="12.5" stroke="none"/>
          <circle cx="12.5" cy="12.5" r="12" fill="none"/>
        </g>
      </g>
    </g>
    <path id="noun-x-3388035" d="M233.288,170.813a.8.8,0,0,0,1.13,0l2.631-2.631,2.631,2.631a.8.8,0,0,0,1.13-1.13l-2.631-2.631,2.631-2.631a.8.8,0,1,0-1.13-1.13l-2.631,2.631-2.631-2.631a.8.8,0,1,0-1.13,1.13l2.631,2.631-2.631,2.631a.8.8,0,0,0,0,1.13Z" transform="translate(1549.451 322.453)" fill="#dd868b" stroke="#363f53" stroke-width="0.5"/>
  </g>
</svg>
