<svg xmlns="http://www.w3.org/2000/svg" width="25" height="25" viewBox="0 0 25 25">
  <g id="Group_595" data-name="Group 595" transform="translate(-1774 -312)">
    <g id="Group_593" data-name="Group 593" transform="translate(0 59)">
      <g id="Ellipse_26" data-name="Ellipse 26" transform="translate(1774 253)" fill="none" stroke="#f89473" stroke-width="1">
        <circle cx="12.5" cy="12.5" r="12.5" stroke="none"/>
        <circle cx="12.5" cy="12.5" r="12" fill="none"/>
      </g>
    </g>
    <g id="noun-arrow-1808421" transform="translate(1581.607 162.769)">
      <path id="Path_250" data-name="Path 250" d="M210.8,161.265l-4.06-4.286a.76.76,0,0,0-.983-.054.7.7,0,0,0,0,.985l2.974,3.144H199.48a.677.677,0,1,0,0,1.353h9.255l-2.974,3.144a.69.69,0,0,0,0,.985.742.742,0,0,0,.983-.054l4.06-4.286a.687.687,0,0,0,0-.93Z" fill="#f89473"/>
    </g>
  </g>
</svg>
