<svg id="open_project" data-name="open project" xmlns="http://www.w3.org/2000/svg" width="10" height="7.908" viewBox="0 0 10 7.908">
  <g id="Group_11" data-name="Group 11" transform="translate(0 1.36)">
    <g id="Group_10" data-name="Group 10">
      <path id="Path_14" data-name="Path 14" d="M7.848,86.175H4.368l-.692-.814a.119.119,0,0,0-.095-.042H.774A.776.776,0,0,0,0,86.09V91.1a.776.776,0,0,0,.779.771H7.848a.776.776,0,0,0,.779-.771v-4.15A.776.776,0,0,0,7.848,86.175Z" transform="translate(0 -85.319)" fill="#c7cad0"/>
    </g>
  </g>
  <g id="Group_13" data-name="Group 13" transform="translate(1.384)">
    <g id="Group_12" data-name="Group 12" transform="translate(0 0)">
      <path id="Path_15" data-name="Path 15" d="M51.241,43.534H47.762l-.692-.813a.119.119,0,0,0-.095-.042H44.17a.776.776,0,0,0-.77.666h2.559a.455.455,0,0,1,.348.16l.591.695H50.22a1.109,1.109,0,0,1,1.113,1.1v3.916a.773.773,0,0,0,.682-.764V44.3A.776.776,0,0,0,51.241,43.534Z" transform="translate(-43.4 -42.679)" fill="#c7cad0"/>
    </g>
  </g>
</svg>
