<svg xmlns="http://www.w3.org/2000/svg" width="25" height="25" viewBox="0 0 25 25">
  <g id="Group_599" data-name="Group 599" transform="translate(-103.6 -33.6)">
    <path id="Path_248" data-name="Path 248" d="M236.566,216.033a.571.571,0,0,0,.827,0l7.829-7.829a.585.585,0,0,0-.827-.827l-7.415,7.415-3.574-3.575a.585.585,0,1,0-.827.827Z" transform="translate(-122.527 -164.979)" fill="#a2cd8c"/>
    <path id="Path_249" data-name="Path 249" d="M116.1,58.6a12.5,12.5,0,1,0-12.5-12.5,12.5,12.5,0,0,0,12.5,12.5Zm0-23.864A11.364,11.364,0,1,1,104.736,46.1,11.361,11.361,0,0,1,116.1,34.736Z" fill="#a2cd8c"/>
  </g>
</svg>
