<svg xmlns="http://www.w3.org/2000/svg" width="30" height="30" viewBox="0 0 30 30">
  <g id="Group_650" data-name="Group 650" transform="translate(-1700 -385)">
    <g id="Group_644" data-name="Group 644" transform="translate(0 -45.502)">
      <g id="Group_623" data-name="Group 623" transform="translate(953 180.003)">
        <circle id="Ellipse_11" data-name="Ellipse 11" cx="15" cy="15" r="15" transform="translate(747 250.5)" fill="#41465b"/>
      </g>
    </g>
    <g id="Layer_24" data-name="Layer 24" transform="translate(1707.5 390.62)">
      <path id="Path_256" data-name="Path 256" d="M14,7.788a.382.382,0,0,1-.126.282l-2.6,2.387a.454.454,0,0,1-.308.115.468.468,0,0,1-.165-.028.4.4,0,0,1-.269-.37V8.981h-3.9a.417.417,0,0,1-.433-.4V6.992a.417.417,0,0,1,.433-.4h3.9V5.4a.4.4,0,0,1,.269-.367.462.462,0,0,1,.472.088l2.6,2.387A.382.382,0,0,1,14,7.788ZM8.367,9.777h-3.9V8.583A.4.4,0,0,0,4.2,8.217a.462.462,0,0,0-.472.084l-2.6,2.387a.38.38,0,0,0,0,.565l2.6,2.387a.454.454,0,0,0,.308.115.392.392,0,0,0,.165-.032.4.4,0,0,0,.269-.366V12.164h3.9a.417.417,0,0,0,.433-.4V10.175A.417.417,0,0,0,8.367,9.777Z" transform="translate(0 0)" fill="#e5e5e5"/>
    </g>
  </g>
</svg>
