<svg xmlns="http://www.w3.org/2000/svg" width="30" height="30" viewBox="0 0 30 30">
  <g id="Group_575" data-name="Group 575" transform="translate(-1700 -250.5)">
    <circle id="Ellipse_11" data-name="Ellipse 11" cx="15" cy="15" r="15" transform="translate(1700 250.5)" fill="#41465b"/>
    <g id="Layer_2" data-name="Layer 2" transform="translate(1707.162 258.221)">
      <path id="Path_196" data-name="Path 196" d="M13.859,6.4a1.794,1.794,0,0,1-1.409-2.426.844.844,0,0,0-.251-.947,6.717,6.717,0,0,0-2.006-1.167.841.841,0,0,0-.953.265,1.778,1.778,0,0,1-2.808,0,.841.841,0,0,0-.953-.265A6.748,6.748,0,0,0,3.612,2.91a.853.853,0,0,0-.264.975A1.785,1.785,0,0,1,1.866,6.338a.845.845,0,0,0-.738.682A6.5,6.5,0,0,0,1,8.3a6.579,6.579,0,0,0,.087,1.075.845.845,0,0,0,.743.709,1.785,1.785,0,0,1,1.45,2.522.835.835,0,0,0,.232,1A6.767,6.767,0,0,0,5.5,14.754a.908.908,0,0,0,.287.05.838.838,0,0,0,.684-.357,1.762,1.762,0,0,1,1.459-.769A1.785,1.785,0,0,1,9.36,14.4a.837.837,0,0,0,.985.279,6.832,6.832,0,0,0,1.823-1.094.849.849,0,0,0,.246-.966,1.785,1.785,0,0,1,1.427-2.467.845.845,0,0,0,.716-.7A6.661,6.661,0,0,0,14.675,8.3a6.6,6.6,0,0,0-.114-1.223.836.836,0,0,0-.7-.681ZM10.117,8.3A2.279,2.279,0,1,1,7.838,6.013,2.284,2.284,0,0,1,10.117,8.3Z" transform="translate(0 -1)" fill="#e5e5e5"/>
    </g>
  </g>
</svg>
