<svg xmlns="http://www.w3.org/2000/svg" width="30" height="30" viewBox="0 0 30 30">
  <g id="Group_781" data-name="Group 781" transform="translate(-1700 -295.531)">
    <circle id="Ellipse_32" data-name="Ellipse 32" cx="15" cy="15" r="15" transform="translate(1700 295.531)" fill="#41465b"/>
    <path id="Path_278" data-name="Path 278" d="M153.322,33.6a2.459,2.459,0,0,0-2.454,2.454,2.427,2.427,0,0,0,.142.811l-4.141,2.607a2.451,2.451,0,1,0,.006,3.681l4.135,2.6a2.43,2.43,0,0,0-.142.816,2.461,2.461,0,1,0,.471-1.441l-4-2.52a2.428,2.428,0,0,0,0-2.6l4-2.52a2.451,2.451,0,1,0,1.983-3.889Z" transform="translate(1565.709 269.222)" fill="#e5e5e5"/>
  </g>
</svg>
