<svg xmlns="http://www.w3.org/2000/svg" width="25.25" height="20.75" viewBox="0 0 25.25 20.75">
  <g id="burger_-menu_-more_-sort" data-name="burger,-menu,-more,-sort" transform="translate(-4 -3.75)">
    <path id="Shape" d="M25.25,22.556V24.5H4V22.556Zm0-7.778v1.944H4V14.778ZM25.25,7V8.944H4V7Z" fill="#9bdefa"/>
    <g id="Path_218" data-name="Path 218" transform="translate(22.25 3.75)" fill="#e32623">
      <path d="M 3.5 6.5 C 1.845790028572083 6.5 0.5 5.154210090637207 0.5 3.5 C 0.5 1.845790028572083 1.845790028572083 0.5 3.5 0.5 C 5.154210090637207 0.5 6.5 1.845790028572083 6.5 3.5 C 6.5 5.154210090637207 5.154210090637207 6.5 3.5 6.5 Z" stroke="none"/>
      <path d="M 3.5 1 C 2.121500015258789 1 1 2.121500015258789 1 3.5 C 1 4.878499984741211 2.121500015258789 6 3.5 6 C 4.878499984741211 6 6 4.878499984741211 6 3.5 C 6 2.121500015258789 4.878499984741211 1 3.5 1 M 3.5 0 C 5.433000087738037 0 7 1.566999912261963 7 3.5 C 7 5.433000087738037 5.433000087738037 7 3.5 7 C 1.566999912261963 7 0 5.433000087738037 0 3.5 C 0 1.566999912261963 1.566999912261963 0 3.5 0 Z" stroke="none" fill="#e32623"/>
    </g>
  </g>
</svg>
