<svg xmlns="http://www.w3.org/2000/svg" width="15.303" height="17.5" viewBox="0 0 15.303 17.5">
  <g id="Group_279" data-name="Group 279" transform="translate(2425.303 3831.5) rotate(180)">
    <g id="back" transform="translate(2410 3814)">
      <path id="Chevron_Right" d="M54.369,9.376l7.87,7.867a.884.884,0,1,0,1.251-1.248L56.244,8.751l7.245-7.243A.884.884,0,0,0,62.238.259l-7.87,7.867A.892.892,0,0,0,54.369,9.376Z" transform="translate(-54.113 -0.001)" fill="#9bdefa"/>
    </g>
    <g id="back-2" data-name="back" transform="translate(2415.668 3814)">
      <path id="Chevron_Right-2" data-name="Chevron_Right" d="M54.369,9.376l7.87,7.867a.884.884,0,1,0,1.251-1.248L56.244,8.751l7.245-7.243A.884.884,0,0,0,62.238.259l-7.87,7.867A.892.892,0,0,0,54.369,9.376Z" transform="translate(-54.113 -0.001)" fill="#9bdefa"/>
    </g>
  </g>
</svg>
