<svg xmlns="http://www.w3.org/2000/svg" width="15.303" height="20.75" viewBox="0 0 15.303 20.75">
  <g id="Group_572" data-name="Group 572" transform="translate(-1864.697 -61)">
    <g id="Group_279" data-name="Group 279" transform="translate(4290 3895.75) rotate(180)">
      <g id="back" transform="translate(2410 3814)">
        <path id="Chevron_Right" d="M54.369,9.376l7.87,7.867a.884.884,0,1,0,1.251-1.248L56.244,8.751l7.245-7.243A.884.884,0,0,0,62.238.259l-7.87,7.867A.892.892,0,0,0,54.369,9.376Z" transform="translate(-54.113 -0.001)" fill="#9bdefa"/>
      </g>
      <g id="back-2" data-name="back" transform="translate(2415.668 3814)">
        <path id="Chevron_Right-2" data-name="Chevron_Right" d="M54.369,9.376l7.87,7.867a.884.884,0,1,0,1.251-1.248L56.244,8.751l7.245-7.243A.884.884,0,0,0,62.238.259l-7.87,7.867A.892.892,0,0,0,54.369,9.376Z" transform="translate(-54.113 -0.001)" fill="#9bdefa"/>
      </g>
    </g>
    <g id="Path_218" data-name="Path 218" transform="translate(1868 61)" fill="#e32623">
      <path d="M 3.5 6.5 C 1.845790028572083 6.5 0.5 5.154210090637207 0.5 3.5 C 0.5 1.845790028572083 1.845790028572083 0.5 3.5 0.5 C 5.154210090637207 0.5 6.5 1.845790028572083 6.5 3.5 C 6.5 5.154210090637207 5.154210090637207 6.5 3.5 6.5 Z" stroke="none"/>
      <path d="M 3.5 1 C 2.121500015258789 1 1 2.121500015258789 1 3.5 C 1 4.878499984741211 2.121500015258789 6 3.5 6 C 4.878499984741211 6 6 4.878499984741211 6 3.5 C 6 2.121500015258789 4.878499984741211 1 3.5 1 M 3.5 0 C 5.433000087738037 0 7 1.566999912261963 7 3.5 C 7 5.433000087738037 5.433000087738037 7 3.5 7 C 1.566999912261963 7 0 5.433000087738037 0 3.5 C 0 1.566999912261963 1.566999912261963 0 3.5 0 Z" stroke="none" fill="#e32623"/>
    </g>
  </g>
</svg>
