<svg xmlns="http://www.w3.org/2000/svg" width="19.069" height="24.678" viewBox="0 0 19.069 24.678">
  <g id="noun-compare-368563" transform="translate(-172.059 -63.54)">
    <path id="Path_216" data-name="Path 216" d="M494.414,81.307V70.533A4.529,4.529,0,0,0,489.9,66.02h-1.1V63.54l-4.391,3.822,4.391,3.781v-2.48h1.1a1.865,1.865,0,0,1,1.87,1.87V81.266a3.208,3.208,0,1,0,4.513,2.927,3.062,3.062,0,0,0-1.87-2.887Zm-1.3,4.513a1.586,1.586,0,1,1,1.586-1.586A1.615,1.615,0,0,1,493.112,85.82Z" transform="translate(-305.157)" fill="#cfc5f8"/>
    <path id="Path_217" data-name="Path 217" d="M173.97,104.953v10.733a4.529,4.529,0,0,0,4.513,4.513h1.1v2.48l4.391-3.781-4.391-3.781v2.48h-1.1a1.865,1.865,0,0,1-1.87-1.87V104.953a3.215,3.215,0,1,0-4.554-2.927,3.176,3.176,0,0,0,1.911,2.927Zm1.3-4.513a1.586,1.586,0,1,1-1.586,1.586A1.615,1.615,0,0,1,175.271,100.441Z" transform="translate(0 -34.461)" fill="#cfc5f8"/>
  </g>
</svg>
