<svg width="14" height="13" viewBox="0 0 14 13" fill="none" xmlns="http://www.w3.org/2000/svg">
    <path d="M7.508 0.630989L8.895 4.13099L13.015 4.60899C13.1283 4.62232 13.2346 4.67076 13.319 4.74752C13.4035 4.82428 13.4618 4.92551 13.4858 5.03705C13.5098 5.14859 13.4984 5.26485 13.453 5.36956C13.4077 5.47427 13.3308 5.56218 13.233 5.62099L9.971 7.71499L11.205 12.001C11.2374 12.1148 11.232 12.236 11.1896 12.3465C11.1473 12.457 11.0702 12.5508 10.9701 12.6138C10.8699 12.6767 10.752 12.7055 10.6341 12.6959C10.5161 12.6862 10.4045 12.6385 10.316 12.56L7 9.99099L3.654 12.591C3.56306 12.6612 3.45229 12.7009 3.33746 12.7045C3.22263 12.7081 3.10959 12.6754 3.01443 12.6111C2.91926 12.5467 2.84683 12.454 2.80743 12.346C2.76804 12.2381 2.76368 12.1205 2.795 12.01L4.028 7.72399L0.750999 5.62399C0.65691 5.56285 0.583944 5.4742 0.54203 5.37011C0.500116 5.26602 0.491291 5.15155 0.516754 5.04226C0.542217 4.93298 0.600729 4.8342 0.684334 4.75936C0.767938 4.68451 0.872569 4.63725 0.983993 4.62399L5.105 4.14499L6.491 0.644989C6.53122 0.542778 6.60129 0.455045 6.69207 0.393211C6.78285 0.331378 6.89016 0.298309 7 0.298309C7.10984 0.298309 7.21714 0.331378 7.30792 0.393211C7.39871 0.455045 7.46877 0.542778 7.509 0.644989L7.508 0.630989ZM7.99699 4.84199L6.99699 2.31899L5.99699 4.84199C5.96038 4.93409 5.89947 5.01453 5.82076 5.07476C5.74204 5.13498 5.64847 5.17273 5.55 5.18399L2.624 5.52399L4.934 7.00599C5.0399 7.06673 5.12244 7.16117 5.16846 7.27424C5.21449 7.38732 5.22137 7.51255 5.188 7.62999L4.305 10.697L6.653 8.87399C6.74863 8.79721 6.86733 8.75487 6.98996 8.75379C7.11259 8.7527 7.23201 8.79293 7.32899 8.86799L9.686 10.698L8.80299 7.63099C8.77129 7.51812 8.77662 7.39806 8.8182 7.28845C8.85978 7.17883 8.93541 7.08544 9.034 7.02199L11.367 5.52199L8.467 5.18499C8.36427 5.17747 8.26576 5.14111 8.18279 5.08007C8.09981 5.01904 8.03576 4.93582 7.99799 4.83999L7.99699 4.84199Z" fill="white"/>
</svg>
