<svg id="cancel" xmlns="http://www.w3.org/2000/svg" width="15.18" height="15.18" viewBox="0 0 15.18 15.18">
  <path id="Path_89" data-name="Path 89" d="M7.59,0a7.59,7.59,0,1,0,7.59,7.59A7.616,7.616,0,0,0,7.59,0Z" fill="#c95c5c"/>
  <path id="Path_90" data-name="Path 90" d="M263.59,7.59A7.616,7.616,0,0,1,256,15.18V0A7.616,7.616,0,0,1,263.59,7.59Z" transform="translate(-248.41)" fill="#d02525"/>
  <path id="Path_91" data-name="Path 91" d="M133.826,132.571l2.517,2.517-1.254,1.254-2.517-2.517-2.517,2.517-1.254-1.254,2.517-2.517-2.517-2.517,1.254-1.254,2.517,2.517,2.517-2.517,1.254,1.254Z" transform="translate(-124.981 -124.981)" fill="#e7e7e7"/>
  <path id="Path_92" data-name="Path 92" d="M257.254,132.571l2.517,2.517-1.254,1.254L256,133.826v-2.508l2.517-2.517,1.254,1.254Z" transform="translate(-248.41 -124.981)" fill="#d3d3d8"/>
</svg>
