<svg xmlns="http://www.w3.org/2000/svg" width="11.848" height="20.22" viewBox="0 0 11.848 20.22">
  <g id="question-mark" transform="translate(-105.999)">
    <path id="Path_73" data-name="Path 73" d="M1.777,0A1.777,1.777,0,1,1,0,1.777,1.777,1.777,0,0,1,1.777,0Z" transform="translate(110.146 16.666)" fill="#fc2c94"/>
    <g id="Group_93" data-name="Group 93" transform="translate(111.923 16.666)">
      <path id="Path_70" data-name="Path 70" d="M257.777,423.777A1.777,1.777,0,0,0,256,422v3.554A1.777,1.777,0,0,0,257.777,423.777Z" transform="translate(-256 -422)" fill="#be2572"/>
    </g>
    <path id="Path_71" data-name="Path 71" d="M117.838,5.611A5.941,5.941,0,0,0,112.044,0h-.121A5.92,5.92,0,0,0,106,5.924a1.777,1.777,0,1,0,3.554,0,2.409,2.409,0,0,1,.023-.333,2.369,2.369,0,1,1,2.346,2.7,1.777,1.777,0,0,0-1.777,1.777v3.515a1.777,1.777,0,1,0,3.554,0V11.572A5.946,5.946,0,0,0,116.219,10,5.876,5.876,0,0,0,117.838,5.611Z" transform="translate(0 0)" fill="#fc2c94"/>
    <path id="Path_72" data-name="Path 72" d="M261.916,5.611A5.941,5.941,0,0,0,256.121,0H256V3.555h.05A2.37,2.37,0,0,1,256,8.293v7.069a1.777,1.777,0,0,0,1.777-1.777V11.572A5.946,5.946,0,0,0,260.3,10,5.875,5.875,0,0,0,261.916,5.611Z" transform="translate(-144.077 0)" fill="#be2572"/>
  </g>
</svg>
