<svg width="18" height="14" viewBox="0 0 18 14" fill="none" xmlns="http://www.w3.org/2000/svg">
  <path d="M14.4349 0.595932L11.0349 3.99593H13.5849V9.94593C13.5849 10.3968 13.4058 10.8292 13.087 11.148C12.7682 11.4668 12.3358 11.6459 11.8849 11.6459C11.434 11.6459 11.0016 11.4668 10.6828 11.148C10.364 10.8292 10.1849 10.3968 10.1849 9.94593V3.99593C10.1849 3.0942 9.82669 2.22939 9.18906 1.59177C8.55144 0.954147 7.68664 0.595932 6.7849 0.595932C5.88316 0.595932 5.01836 0.954147 4.38074 1.59177C3.74311 2.22939 3.3849 3.0942 3.3849 3.99593V9.94593H0.8349L4.2349 13.3459L7.6349 9.94593H5.0849V3.99593C5.0849 3.77269 5.12887 3.55162 5.2143 3.34537C5.29974 3.13912 5.42496 2.95171 5.58282 2.79385C5.74068 2.63599 5.92808 2.51077 6.13434 2.42533C6.34059 2.3399 6.56165 2.29593 6.7849 2.29593C7.00815 2.29593 7.22921 2.3399 7.43546 2.42533C7.64172 2.51077 7.82912 2.63599 7.98698 2.79385C8.14484 2.95171 8.27006 3.13912 8.35549 3.34537C8.44093 3.55162 8.4849 3.77269 8.4849 3.99593V9.94593C8.4849 10.8477 8.84311 11.7125 9.48074 12.3501C10.1184 12.9877 10.9832 13.3459 11.8849 13.3459C12.7866 13.3459 13.6514 12.9877 14.2891 12.3501C14.9267 11.7125 15.2849 10.8477 15.2849 9.94593V3.99593H17.8349L14.4349 0.595932Z" fill="white"/>
</svg>
