<svg xmlns="http://www.w3.org/2000/svg" width="25" height="25" viewBox="0 0 25 25">
  <g id="Group_598" data-name="Group 598" transform="translate(-1774 -202)">
    <g id="Group_588" data-name="Group 588">
      <g id="Ellipse_26" data-name="Ellipse 26" transform="translate(1774 202)" fill="none" stroke="#d0d2d6" stroke-width="1">
        <circle cx="12.5" cy="12.5" r="12.5" stroke="none"/>
        <circle cx="12.5" cy="12.5" r="12" fill="none"/>
      </g>
      <g id="Group_582" data-name="Group 582" transform="translate(1783.249 208.419)">
        <g id="Group_580" data-name="Group 580">
          <path id="Path_239" data-name="Path 239" d="M4.676-441.776A3.231,3.231,0,0,0,6.5-444.7a3.219,3.219,0,0,0-.963-2.288,3.222,3.222,0,0,0-2.288-.963A3.254,3.254,0,0,0,0-444.7H1.648a1.6,1.6,0,0,1,1.6-1.6,1.583,1.583,0,0,1,1.122.481,1.585,1.585,0,0,1,.481,1.124,1.6,1.6,0,0,1-.9,1.442A2.823,2.823,0,0,0,2.428-440.7v.6H4.075v-.6a1.172,1.172,0,0,1,.6-1.074Z" transform="translate(0 447.948)" fill="#d0d2d6" stroke="#363f53" stroke-width="0.7"/>
        </g>
      </g>
    </g>
    <g id="Ellipse_27" data-name="Ellipse 27" transform="translate(1785.25 217.833)" fill="#d0d2d6" stroke="#363f53" stroke-width="0.5">
      <circle cx="1.25" cy="1.25" r="1.25" stroke="none"/>
      <circle cx="1.25" cy="1.25" r="1" fill="none"/>
    </g>
  </g>
</svg>
