<svg width="40" height="40" viewBox="0 0 40 40" fill="none" xmlns="http://www.w3.org/2000/svg">
<circle cx="20" cy="20" r="20" fill="#FDC4FE"/>
<path d="M32.4924 17.215H30.9209C30.6553 16.1657 30.2411 15.1667 29.6863 14.2356L30.7932 13.1288C30.8885 13.0335 30.942 12.9043 30.942 12.7696C30.9419 12.6348 30.8883 12.5057 30.793 12.4105L27.5809 9.2005C27.3825 9.00229 27.0613 9.00244 26.863 9.2006L25.7573 10.3064C24.8263 9.7515 23.8274 9.33748 22.7783 9.07172V7.50781C22.7783 7.22737 22.5508 7 22.2705 7H17.7297C17.4494 7 17.2219 7.22737 17.2219 7.50781V9.07167C16.1728 9.33738 15.1738 9.75145 14.2429 10.3063L13.1372 9.20055C12.9389 9.00229 12.6175 9.00224 12.4191 9.20045L9.2072 12.4104C9.11188 12.5057 9.05828 12.6348 9.05823 12.7695C9.05823 12.9043 9.11174 13.0335 9.207 13.1287L10.3139 14.2356C9.75904 15.1666 9.34499 16.1657 9.07925 17.2149H7.51019C7.22988 17.2149 7.00273 17.4421 7.00258 17.7225L7 22.2638C7 22.3986 7.05336 22.5277 7.14857 22.6231C7.24384 22.7183 7.37314 22.7719 7.50781 22.7719H9.07906C9.34479 23.8212 9.75884 24.8203 10.3137 25.7514L9.20164 26.8636C9.00339 27.0618 9.00325 27.3832 9.20145 27.5816L12.4112 30.7939C12.5064 30.8893 12.6356 30.9428 12.7702 30.9429H12.7704C12.9051 30.9429 13.0342 30.8893 13.1295 30.7941L14.2427 29.6807C15.1737 30.2356 16.1727 30.6496 17.2219 30.9154V32.4922C17.2219 32.7726 17.4492 33 17.7295 33H22.2705C22.5508 33 22.7781 32.7726 22.7781 32.4922V30.9154C23.8273 30.6496 24.8263 30.2355 25.7573 29.6807L26.8705 30.794C26.9658 30.8893 27.0951 30.9428 27.2298 30.9428C27.3645 30.9428 27.4936 30.8892 27.5888 30.7939L30.7986 27.5815C30.9968 27.3832 30.9966 27.0618 30.7984 26.8635L29.6863 25.7513C30.2412 24.8202 30.6552 23.8212 30.9209 22.7719H32.4922C32.7726 22.7719 33 22.5445 33 22.2641V17.7228C33 17.4423 32.7727 17.215 32.4924 17.215ZM21.7627 8.01567V9.4744C21.7627 9.71375 21.9298 9.92057 22.1638 9.97085C23.3736 10.2308 24.5148 10.7038 25.556 11.3767C25.757 11.5065 26.0212 11.4785 26.1906 11.3092L27.222 10.2777L29.7157 12.7698L28.6834 13.8022C28.5141 13.9715 28.486 14.2359 28.616 14.4369C29.2888 15.4782 29.7619 16.6197 30.0218 17.8295C30.072 18.0636 30.2787 18.2306 30.5181 18.2306H31.9844V21.7562H30.5183V21.7563C30.2789 21.7563 30.0722 21.9234 30.022 22.1574C29.7621 23.3673 29.2891 24.5088 28.6163 25.5501C28.4864 25.7511 28.5143 26.0155 28.6836 26.1848L29.7214 27.2227L27.2296 29.7166L26.1909 28.6777C26.0217 28.5085 25.7572 28.4803 25.5562 28.6103C24.515 29.2833 23.3737 29.7562 22.1638 30.0163C21.9298 30.0665 21.7627 30.2734 21.7627 30.5127V31.9843H18.2373V30.5127C18.2373 30.2734 18.0702 30.0665 17.8362 30.0163C16.6264 29.7562 15.485 29.2832 14.4438 28.6103C14.2428 28.4804 13.9786 28.5085 13.8092 28.6777L12.7704 29.7166L10.2786 27.2227L11.3164 26.1847C11.4857 26.0155 11.5138 25.7511 11.3839 25.55C10.711 24.5087 10.2381 23.3673 9.97824 22.1573C9.92797 21.9233 9.72107 21.7562 9.48174 21.7562H8.01582L8.01761 18.2306H9.48174C9.72112 18.2306 9.92797 18.0634 9.97824 17.8295C10.2381 16.6196 10.711 15.4781 11.3839 14.4369C11.5138 14.2359 11.4857 13.9714 11.3164 13.8022L10.2841 12.7697L12.7778 10.2777L13.8092 11.3092C13.9786 11.4784 14.2431 11.5065 14.444 11.3766C15.4852 10.7037 16.6264 10.2307 17.8362 9.9708C18.0702 9.92052 18.2373 9.7137 18.2373 9.47435V8.01567H21.7627ZM24.3803 13.4648C23.7863 14.0588 23.7863 15.0253 24.3803 15.6193C24.6772 15.9163 25.0675 16.0648 25.4576 16.0648C25.6351 16.0648 25.8125 16.0337 25.9813 15.9722C26.7864 17.1632 27.2103 18.5475 27.2103 20C27.2103 23.9762 23.9757 27.2109 20 27.2109C19.6104 27.2109 19.2193 27.1796 18.8376 27.1178C18.5603 27.0728 18.3 27.2611 18.2552 27.5378C18.2103 27.8147 18.3984 28.0754 18.6751 28.1203C19.1103 28.1908 19.5562 28.2265 20 28.2265C24.5357 28.2265 28.2258 24.5361 28.2258 20C28.2258 18.309 27.7224 16.6989 26.7666 15.3212C27.1144 14.7365 27.0372 13.9674 26.5347 13.4648C25.9407 12.8708 24.9742 12.8709 24.3803 13.4648ZM16.6532 26.9772C16.5494 27.2377 16.6763 27.5331 16.9369 27.637L16.9607 27.6465C17.0221 27.6708 17.0853 27.6824 17.1475 27.6824C17.3496 27.6824 17.5409 27.5607 17.6198 27.3614C17.7231 27.1007 17.5953 26.8055 17.3346 26.7023L17.313 26.6936C17.0523 26.5895 16.757 26.7167 16.6532 26.9772ZM20 11.7735C15.4643 11.7735 11.7742 15.4639 11.7742 20C11.7742 21.6919 12.2777 23.3012 13.2336 24.6786C12.8857 25.2633 12.9628 26.0325 13.4653 26.5351C13.7623 26.8321 14.1524 26.9805 14.5424 26.9805C14.9325 26.9805 15.3228 26.8321 15.6197 26.5351C16.2136 25.9411 16.2136 24.9747 15.6197 24.3806C15.1876 23.9484 14.5582 23.831 14.0185 24.0278C13.2133 22.837 12.7897 21.4533 12.7897 19.9999C12.7897 16.0238 16.0243 12.789 20 12.789C20.3304 12.789 20.6625 12.8116 20.9871 12.856C21.2644 12.8939 21.5209 12.6996 21.5589 12.4218C21.597 12.1439 21.4026 11.8878 21.1247 11.8498C20.7547 11.7991 20.3763 11.7735 20 11.7735ZM14.5426 24.9501C14.6782 24.9501 14.8056 25.003 14.9014 25.0989C14.9973 25.1948 15.0504 25.3223 15.0504 25.4579C15.0504 25.5936 14.9974 25.7211 14.9014 25.8169C14.8055 25.9129 14.6782 25.9657 14.5426 25.9657C14.4069 25.9657 14.2794 25.9129 14.1836 25.8169C14.0877 25.721 14.0348 25.5935 14.0348 25.4579C14.0348 25.3223 14.0877 25.1948 14.1836 25.0989C14.2795 25.003 14.407 24.9501 14.5426 24.9501ZM19.754 14.6039L15.2857 17.0798C15.1242 17.1693 15.0238 17.3394 15.0238 17.524V22.4759C15.0238 22.6605 15.1242 22.8306 15.2857 22.9201L19.754 25.396C19.8306 25.4384 19.9152 25.4596 20 25.4596C20.0848 25.4596 20.1696 25.4384 20.2462 25.396L24.7145 22.9201C24.876 22.8306 24.9762 22.6605 24.9762 22.4759V17.524C24.9761 17.3394 24.8759 17.1693 24.7145 17.0798L20.2462 14.6039C20.093 14.519 19.9071 14.519 19.754 14.6039ZM16.0395 18.386L19.4922 20.2991V24.0899L16.0395 22.1768V18.386ZM23.9605 18.386V22.1767L20.5078 24.0899V20.2991L23.9605 18.386ZM20 15.6287L23.4206 17.5241L20 19.4195L16.5794 17.5241L20 15.6287ZM25.4574 14.0345C25.5875 14.0345 25.7175 14.084 25.8164 14.183C25.9124 14.279 25.9652 14.4065 25.9652 14.5421C25.9652 14.6777 25.9123 14.8052 25.8164 14.9011C25.6185 15.0991 25.2965 15.0992 25.0986 14.9011C25.0026 14.8052 24.9496 14.6777 24.9496 14.5421C24.9496 14.4065 25.0026 14.2789 25.0986 14.183C25.1975 14.084 25.3274 14.0345 25.4574 14.0345ZM22.4107 12.6506C22.3074 12.9114 22.4367 13.2072 22.6974 13.3105L22.6987 13.3111C22.761 13.3362 22.8252 13.3481 22.8884 13.3481C23.0892 13.3481 23.2792 13.2279 23.3591 13.0302C23.4641 12.7702 23.3378 12.474 23.0778 12.3689L23.0681 12.3649C22.8073 12.2617 22.514 12.39 22.4107 12.6506Z" fill="black"/>
</svg>
