<svg width="14" height="15" viewBox="0 0 14 15" fill="none" xmlns="http://www.w3.org/2000/svg">
    <path fill-rule="evenodd" clip-rule="evenodd" d="M6.996 7.79398C6.8936 7.79595 6.79251 7.77076 6.703 7.72099L0.80299 4.42099C0.705498 4.36818 0.624546 4.28939 0.569118 4.19336C0.513691 4.09733 0.485959 3.98782 0.488995 3.87698C0.490798 3.76731 0.523092 3.6603 0.582256 3.56793C0.641421 3.47556 0.725128 3.40149 0.824001 3.35399L6.724 0.403984C6.80696 0.362757 6.89835 0.341309 6.99099 0.341309C7.08364 0.341309 7.17502 0.362757 7.25799 0.403984L13.158 3.34399C13.2581 3.39235 13.3429 3.4676 13.4027 3.56133C13.4626 3.65505 13.4952 3.76356 13.4969 3.87475C13.4987 3.98594 13.4695 4.09543 13.4127 4.191C13.3558 4.28658 13.2735 4.36447 13.175 4.41599L7.27499 7.71599C7.19056 7.77033 7.0924 7.79946 6.992 7.79999L6.996 7.79398ZM2.382 3.92299L6.996 6.49699L11.61 3.92299L6.996 1.62299L2.382 3.92299Z" fill="white"/>
    <path fill-rule="evenodd" clip-rule="evenodd" d="M6.995 14.656C6.88502 14.6542 6.77718 14.6253 6.681 14.572C6.59206 14.519 6.51834 14.4439 6.467 14.354C6.41565 14.2642 6.38843 14.1625 6.388 14.059V7.18599C6.388 7.025 6.45195 6.87061 6.56578 6.75677C6.67962 6.64294 6.83401 6.57899 6.995 6.57899C7.15598 6.57899 7.31038 6.64294 7.42421 6.75677C7.53804 6.87061 7.60201 7.025 7.60201 7.18599V13.066L12.302 10.628V3.88998C12.302 3.729 12.3659 3.5746 12.4798 3.46077C12.5936 3.34694 12.748 3.28299 12.909 3.28299C13.07 3.28299 13.2244 3.34694 13.3382 3.46077C13.452 3.5746 13.516 3.729 13.516 3.88998V10.99C13.5152 11.1 13.4847 11.2077 13.4277 11.3017C13.3706 11.3957 13.2892 11.4725 13.192 11.524L7.29201 14.589C7.19842 14.6308 7.09745 14.6535 6.995 14.656Z" fill="white"/>
    <path fill-rule="evenodd" clip-rule="evenodd" d="M6.996 14.656C6.90168 14.6563 6.80858 14.6347 6.724 14.593L0.824005 11.528C0.726747 11.4766 0.645253 11.3998 0.588196 11.3058C0.531139 11.2117 0.500651 11.104 0.5 10.994V3.89398C0.5 3.81427 0.515699 3.73534 0.546204 3.6617C0.576708 3.58805 0.62143 3.52114 0.677795 3.46478C0.734161 3.40841 0.801065 3.3637 0.87471 3.33319C0.948355 3.30269 1.0273 3.28699 1.10701 3.28699C1.18672 3.28699 1.26565 3.30269 1.33929 3.33319C1.41294 3.3637 1.47986 3.40841 1.53622 3.46478C1.59259 3.52114 1.6373 3.58805 1.6678 3.6617C1.69831 3.73534 1.714 3.81427 1.714 3.89398V10.632L7.291 13.532C7.43207 13.6074 7.53823 13.7347 7.58696 13.8871C7.63569 14.0394 7.62315 14.2047 7.552 14.348C7.49385 14.443 7.41249 14.5217 7.31558 14.5766C7.21867 14.6315 7.10939 14.6609 6.998 14.662L6.996 14.656Z" fill="white"/>
</svg>
