<svg xmlns="http://www.w3.org/2000/svg" width="10.614" height="10.613" viewBox="0 0 10.614 10.613">
  <g id="cancel_1_" data-name="cancel (1)" transform="translate(0 -0.016)">
    <g id="Group_167" data-name="Group 167" transform="translate(0 0.016)">
      <path id="Path_133" data-name="Path 133" d="M6.476,5.322l3.968-3.968a.582.582,0,0,0,0-.821L10.1.185a.582.582,0,0,0-.821,0L5.307,4.154,1.339.185a.582.582,0,0,0-.821,0L.17.533a.581.581,0,0,0,0,.821L4.138,5.322.17,9.291a.582.582,0,0,0,0,.821l.348.348a.582.582,0,0,0,.821,0L5.307,6.491l3.968,3.968a.576.576,0,0,0,.41.169h0a.576.576,0,0,0,.41-.169l.348-.348a.582.582,0,0,0,0-.821Z" transform="translate(0 -0.016)" fill="#adaec5"/>
    </g>
  </g>
</svg>
