<svg xmlns="http://www.w3.org/2000/svg" width="20" height="20" viewBox="0 0 20 20">
  <g id="noun-question-503101" transform="translate(-6 -6)">
    <g id="Group_1421" data-name="Group 1421" transform="translate(6 6)">
      <path id="Path_611" data-name="Path 611" d="M16,6A10,10,0,1,0,26,16,10.012,10.012,0,0,0,16,6Zm0,15.385a.769.769,0,1,1,.769-.769A.77.77,0,0,1,16,21.385Zm.769-4.713v.867a.769.769,0,1,1-1.538,0V16A.77.77,0,0,1,16,15.231a1.538,1.538,0,1,0-1.538-1.538.769.769,0,0,1-1.538,0,3.077,3.077,0,1,1,3.846,2.98Z" transform="translate(-6 -6)" fill="#d8d478"/>
    </g>
  </g>
</svg>
