<svg xmlns="http://www.w3.org/2000/svg" width="20" height="20" viewBox="0 0 10 10">
  <g id="Group_1407" data-name="Group 1407" transform="translate(-432 -101.5)">
    <g id="noun-close-1890812" transform="translate(429.5 99)" opacity="0.7">
      <path id="Path_607" data-name="Path 607" d="M7.5,2.5a5,5,0,1,0,5,5A5,5,0,0,0,7.5,2.5ZM9.553,9.016a.394.394,0,0,1,0,.547.381.381,0,0,1-.547,0L7.5,8.047,5.984,9.553a.381.381,0,0,1-.547,0,.394.394,0,0,1,0-.547L6.953,7.5,5.447,5.984a.387.387,0,0,1,.547-.547L7.5,6.953,9.016,5.437a.387.387,0,0,1,.547.547L8.047,7.5Z" fill="#ff3838"/>
    </g>
  </g>
</svg>
