<svg width="14" height="19" viewBox="0 0 14 19" fill="none" xmlns="http://www.w3.org/2000/svg">
    <path fill-rule="evenodd" clip-rule="evenodd" d="M11.183 9.97303C11.2444 9.97427 11.3055 9.9631 11.3625 9.94026C11.4196 9.91741 11.4714 9.88331 11.515 9.84001C11.559 9.79632 11.5939 9.74438 11.6177 9.68714C11.6416 9.62991 11.6538 9.56851 11.6538 9.50651C11.6538 9.44451 11.6416 9.38314 11.6177 9.32591C11.5939 9.26867 11.559 9.2167 11.515 9.17301C11.4714 9.12971 11.4196 9.09561 11.3625 9.07276C11.3055 9.04991 11.2444 9.03878 11.183 9.04002H2.81902C2.75758 9.03873 2.69651 9.04985 2.63947 9.0727C2.58242 9.09555 2.53057 9.12966 2.48701 9.17301C2.44302 9.2167 2.4081 9.26867 2.38428 9.32591C2.36045 9.38314 2.34819 9.44451 2.34819 9.50651C2.34819 9.56851 2.36045 9.62991 2.38428 9.68714C2.4081 9.74438 2.44302 9.79632 2.48701 9.84001C2.53057 9.88336 2.58242 9.9175 2.63947 9.94035C2.69651 9.9632 2.75758 9.97432 2.81902 9.97303H11.183Z" fill="white"/>
    <path fill-rule="evenodd" clip-rule="evenodd" d="M11.181 3.60103C11.2423 3.60213 11.3031 3.59092 11.36 3.56807C11.4168 3.54523 11.4685 3.51121 11.512 3.46802C11.5559 3.42436 11.5906 3.37246 11.6144 3.31531C11.6381 3.25817 11.6503 3.1969 11.6503 3.13502C11.6503 3.07314 11.6381 3.01188 11.6144 2.95473C11.5906 2.89759 11.5559 2.84569 11.512 2.80202C11.4686 2.75879 11.4169 2.72474 11.36 2.70189C11.3032 2.67905 11.2423 2.66787 11.181 2.66903H2.817C2.75574 2.66793 2.69489 2.67913 2.63803 2.70197C2.58118 2.72482 2.52948 2.75884 2.48601 2.80202C2.44217 2.84569 2.40737 2.89759 2.38364 2.95473C2.3599 3.01188 2.34769 3.07314 2.34769 3.13502C2.34769 3.1969 2.3599 3.25817 2.38364 3.31531C2.40737 3.37246 2.44217 3.42436 2.48601 3.46802C2.52948 3.51121 2.58118 3.54523 2.63803 3.56807C2.69489 3.59092 2.75574 3.60213 2.817 3.60103H11.181Z" fill="white"/>
    <path fill-rule="evenodd" clip-rule="evenodd" d="M11.181 5.67602C11.2424 5.67731 11.3035 5.66621 11.3605 5.64335C11.4176 5.6205 11.4694 5.58638 11.513 5.54303C11.557 5.49934 11.5919 5.44739 11.6157 5.39015C11.6396 5.33291 11.6518 5.27153 11.6518 5.20953C11.6518 5.14753 11.6396 5.08615 11.6157 5.02891C11.5919 4.97168 11.557 4.91971 11.513 4.87602C11.4694 4.83271 11.4176 4.79863 11.3605 4.77578C11.3035 4.75294 11.2424 4.74179 11.181 4.74302H2.817C2.75541 4.74171 2.69419 4.75281 2.63698 4.77566C2.57977 4.79851 2.52775 4.83264 2.48401 4.87602C2.44002 4.91971 2.4051 4.97168 2.38127 5.02891C2.35745 5.08615 2.34518 5.14753 2.34518 5.20953C2.34518 5.27153 2.35745 5.33291 2.38127 5.39015C2.4051 5.44739 2.44002 5.49934 2.48401 5.54303C2.52771 5.58645 2.57973 5.62062 2.63695 5.64348C2.69417 5.66633 2.7554 5.67739 2.817 5.67602H11.181Z" fill="white"/>
    <path fill-rule="evenodd" clip-rule="evenodd" d="M11.181 7.88602C11.2424 7.88726 11.3035 7.87611 11.3605 7.85326C11.4176 7.83041 11.4694 7.79633 11.513 7.75303C11.557 7.70934 11.5919 7.65737 11.6157 7.60013C11.6396 7.5429 11.6518 7.48151 11.6518 7.41952C11.6518 7.35752 11.6396 7.29613 11.6157 7.2389C11.5919 7.18166 11.557 7.12971 11.513 7.08602C11.4694 7.04267 11.4176 7.00855 11.3605 6.98569C11.3035 6.96284 11.2424 6.95173 11.181 6.95302H2.817C2.7554 6.95166 2.69417 6.96272 2.63695 6.98557C2.57973 7.00842 2.52771 7.04259 2.48401 7.08602C2.44002 7.12971 2.4051 7.18166 2.38127 7.2389C2.35745 7.29613 2.34518 7.35752 2.34518 7.41952C2.34518 7.48151 2.35745 7.5429 2.38127 7.60013C2.4051 7.65737 2.44002 7.70934 2.48401 7.75303C2.52771 7.79646 2.57973 7.83061 2.63695 7.85346C2.69417 7.87631 2.7554 7.88739 2.817 7.88602H11.181Z" fill="white"/>
    <path fill-rule="evenodd" clip-rule="evenodd" d="M8.804 18.26C8.88001 18.2568 8.95444 18.2372 9.02225 18.2027C9.09005 18.1682 9.14965 18.1196 9.19701 18.06L13.297 14.178C13.3544 14.1316 13.4018 14.074 13.4362 14.0086C13.4705 13.9433 13.4913 13.8716 13.497 13.798V1.18102C13.4905 1.06299 13.4395 0.951821 13.3543 0.869831C13.2692 0.787841 13.1562 0.741105 13.038 0.739014H0.958008C0.839824 0.741105 0.726806 0.787841 0.641663 0.869831C0.556519 0.951821 0.505556 1.06299 0.499008 1.18102V17.825C0.505627 17.9425 0.556798 18.053 0.64209 18.134C0.727382 18.215 0.840371 18.2604 0.958008 18.261H8.804V18.26ZM8.339 17.383H1.42401V1.62302H12.576V13.37H8.804C8.68575 13.3705 8.57206 13.4157 8.48579 13.4966C8.39953 13.5775 8.34709 13.688 8.339 13.806V17.383Z" fill="white"/>
</svg>
