<svg xmlns="http://www.w3.org/2000/svg" width="12.764" height="12.764" viewBox="0 0 12.764 12.764">
  <path id="copy" d="M11.269,12.764H4.487a1.5,1.5,0,0,1-1.5-1.5V4.487a1.5,1.5,0,0,1,1.5-1.5h6.781a1.5,1.5,0,0,1,1.5,1.5v6.781A1.5,1.5,0,0,1,11.269,12.764ZM4.487,3.989a.5.5,0,0,0-.5.5v6.781a.5.5,0,0,0,.5.5h6.781a.5.5,0,0,0,.5-.5V4.487a.5.5,0,0,0-.5-.5ZM1.994,8.776H1.5a.5.5,0,0,1-.5-.5V1.5A.5.5,0,0,1,1.5,1H8.277a.5.5,0,0,1,.5.5V1.97h1V1.5A1.5,1.5,0,0,0,8.277,0H1.5A1.5,1.5,0,0,0,0,1.5V8.277a1.5,1.5,0,0,0,1.5,1.5h.5Zm0,0" fill="#88c4f2"/>
</svg>
