<svg fill="none" xmlns="http://www.w3.org/2000/svg" viewBox="0 0 48 48" class="Icon_icon__QR_ZH Icon_size_xl__FW8yk">
    <path d="m35 15-7.063-7.063c-.346-.346-.519-.519-.72-.642a2.001 2.001 0 0 0-.578-.24C26.409 7 26.163 7 25.674 7H15.8c-1.68 0-2.52 0-3.162.327a3 3 0 0 0-1.311 1.311C11 9.28 11 10.12 11 11.8v24.4c0 1.68 0 2.52.327 3.162a3 3 0 0 0 1.311 1.311C13.28 41 14.12 41 15.8 41h14.4c1.68 0 2.52 0 3.162-.327a3 3 0 0 0 1.311-1.311C35 38.72 35 37.88 35 36.2V33M15 16h16m-16 4h16m-16 4h25m0 0-5-5m5 5-5 5m-4-1H15m0 4h11M15 12h11" stroke="currentColor" stroke-width="1" stroke-linecap="round" />
</svg>
