<svg xmlns="http://www.w3.org/2000/svg" width="19.719" height="17" viewBox="0 0 19.719 17">
  <g id="notification" transform="translate(0 -35.293)">
    <path id="Path_11" data-name="Path 11" d="M412.4,35.463a.578.578,0,1,0-.817.817,8.647,8.647,0,0,1,2.549,6.155.578.578,0,1,0,1.155,0A9.794,9.794,0,0,0,412.4,35.463Z" transform="translate(-395.567)" />
    <path id="Path_12" data-name="Path 12" d="M3.7,35.464a.578.578,0,0,0-.817,0A9.8,9.8,0,0,0,0,42.435a.578.578,0,1,0,1.155,0A8.647,8.647,0,0,1,3.7,36.281a.578.578,0,0,0,0-.817Z" transform="translate(0 -0.001)" />
    <path id="Path_13" data-name="Path 13" d="M366.134,80.9a.578.578,0,0,0,0,.817,6.188,6.188,0,0,1,1.824,4.4.578.578,0,0,0,1.155,0,7.336,7.336,0,0,0-2.163-5.222A.578.578,0,0,0,366.134,80.9Z" transform="translate(-351.87 -43.689)" />
    <path id="Path_14" data-name="Path 14" d="M67.246,80.91a.578.578,0,0,0-.817,0,7.336,7.336,0,0,0-2.163,5.221.578.578,0,1,0,1.155,0,6.188,6.188,0,0,1,1.824-4.4A.578.578,0,0,0,67.246,80.91Z" transform="translate(-61.791 -43.697)" />
    <path id="Path_15" data-name="Path 15" d="M107.457,102.344V99.387a4.864,4.864,0,0,0-.993-2.96,4.959,4.959,0,0,0-2.116-1.607,1.815,1.815,0,0,0-3.6,0,4.959,4.959,0,0,0-2.116,1.607,4.864,4.864,0,0,0-.993,2.96v2.958L96.462,104.7a.578.578,0,0,0,.517.836h11.138a.578.578,0,0,0,.517-.836Z" transform="translate(-92.688 -55.715)" />
    <path id="Path_16" data-name="Path 16" d="M193.306,443.759a3.051,3.051,0,0,0,2.511-1.32H190.8A3.051,3.051,0,0,0,193.306,443.759Z" transform="translate(-183.447 -391.465)" />
  </g>
</svg>
