<svg xmlns="http://www.w3.org/2000/svg" width="25" height="25" viewBox="0 0 25 25">
  <g id="Group_596" data-name="Group 596" transform="translate(-1774 -367)">
    <g id="Group_594" data-name="Group 594" transform="translate(0 114)">
      <g id="Ellipse_26" data-name="Ellipse 26" transform="translate(1774 253)" fill="none" stroke="#c7afd0" stroke-width="1">
        <circle cx="12.5" cy="12.5" r="12.5" stroke="none"/>
        <circle cx="12.5" cy="12.5" r="12" fill="none"/>
      </g>
    </g>
    <g id="noun-play-839208" transform="translate(1676.417 287.38)">
      <path id="Path_251" data-name="Path 251" d="M188.47,91.751l-5.932-3.778a.321.321,0,0,0-.365,0,.419.419,0,0,0-.172.369V95.9a.419.419,0,0,0,.172.369.325.325,0,0,0,.183.057.342.342,0,0,0,.188-.057l5.929-3.778a.449.449,0,0,0,0-.738Z" transform="translate(-74.577)" fill="#c7afd0"/>
    </g>
  </g>
</svg>
