<svg xmlns="http://www.w3.org/2000/svg" id="noun-exit-3136666" width="21.57" height="16.582" viewBox="0 0 21.57 16.582">
  <path id="Path_612" data-name="Path 612" d="M52.978,98.074v5.548h9.328l-2.447-2.484a.675.675,0,1,1,.959-.949l3.578,3.63a.685.685,0,0,1,.192.472.643.643,0,0,1-.052.259.721.721,0,0,1-.14.213l-3.578,3.63a.675.675,0,0,1-.959-.949l2.447-2.484H52.978v5.548a2.08,2.08,0,0,0,2.074,2.074H67.5a2.08,2.08,0,0,0,2.074-2.074V98.074A2.08,2.08,0,0,0,67.5,96H55.052A2.08,2.08,0,0,0,52.978,98.074Zm-4.3,5.548a.674.674,0,0,0,0,1.348h4.3v-1.348Z" transform="translate(-48 -96)" fill="white"/>
</svg>
