<svg xmlns="http://www.w3.org/2000/svg" width="13.089" height="13.091" viewBox="0 0 13.089 13.091">
  <g id="link_1_" data-name="link (1)" transform="translate(-0.039 0)">
    <g id="Group_514" data-name="Group 514" transform="translate(0.039 4.208)">
      <g id="Group_513" data-name="Group 513" transform="translate(0)">
        <path id="Path_203" data-name="Path 203" d="M8.025,165.508a2.97,2.97,0,0,0-.513-.412,3.054,3.054,0,0,0-3.807.412L.931,168.285a3.054,3.054,0,0,0,4.317,4.321l2.291-2.291a.218.218,0,0,0-.155-.373H7.3a3.671,3.671,0,0,1-1.4-.27.218.218,0,0,0-.238.048L4.016,171.37a1.31,1.31,0,0,1-1.852-1.852l2.786-2.784a1.309,1.309,0,0,1,1.85,0,.894.894,0,0,0,1.226,0,.864.864,0,0,0,0-1.226Z" transform="translate(-0.039 -164.614)" fill="#cfc5f8"/>
      </g>
    </g>
    <g id="Group_516" data-name="Group 516" transform="translate(4.882 0)">
      <g id="Group_515" data-name="Group 515">
        <path id="Path_204" data-name="Path 204" d="M196.853.895a3.054,3.054,0,0,0-4.319,0l-2.288,2.286a.219.219,0,0,0,.159.373h.081a3.665,3.665,0,0,1,1.394.273.218.218,0,0,0,.238-.048l1.643-1.64a1.31,1.31,0,1,1,1.852,1.852l-2.046,2.044-.017.02-.715.711a1.309,1.309,0,0,1-1.85,0,.894.894,0,0,0-1.226,0,.87.87,0,0,0,0,1.23,3.028,3.028,0,0,0,.873.611c.046.022.092.039.137.059s.094.035.14.052.094.033.14.046l.129.035c.087.022.175.039.264.055a3.036,3.036,0,0,0,.325.031h.166l.131-.015c.048,0,.1-.013.155-.013h.074l.151-.022.07-.013.127-.026h.024a3.054,3.054,0,0,0,1.416-.8l2.777-2.777A3.054,3.054,0,0,0,196.853.895Z" transform="translate(-189.502 0)" fill="#cfc5f8"/>
      </g>
    </g>
  </g>
</svg>
