<svg width="30" height="30" viewBox="0 0 30 30" fill="none"
     xmlns="http://www.w3.org/2000/svg">
    <g clip-path="url(#clip0_2_2)">
        <path d="M15 30C23.2843 30 30 23.2843 30 15C30 6.71573 23.2843 0 15 0C6.71573 0 0 6.71573 0 15C0 23.2843 6.71573 30 15 30Z"
              fill="#41465B"/>
        <path d="M21.2348 14.1093H15.8907V8.76525C15.8907 8.52902 15.7968 8.30247 15.6298 8.13544C15.4628 7.9684 15.2362 7.87457 15 7.87457C14.7638 7.87457 14.5372 7.9684 14.3702 8.13544C14.2032 8.30247 14.1093 8.52902 14.1093 8.76525V14.1093H8.76524C8.52902 14.1093 8.30247 14.2032 8.13544 14.3702C7.9684 14.5372 7.87456 14.7638 7.87456 15C7.87456 15.2362 7.9684 15.4628 8.13544 15.6298C8.30247 15.7968 8.52902 15.8907 8.76524 15.8907H14.1093V21.2348C14.1093 21.471 14.2032 21.6975 14.3702 21.8646C14.5372 22.0316 14.7638 22.1254 15 22.1254C15.2362 22.1254 15.4628 22.0316 15.6298 21.8646C15.7968 21.6975 15.8907 21.471 15.8907 21.2348V15.8907H21.2348C21.471 15.8907 21.6975 15.7968 21.8646 15.6298C22.0316 15.4628 22.1254 15.2362 22.1254 15C22.1254 14.7638 22.0316 14.5372 21.8646 14.3702C21.6975 14.2032 21.471 14.1093 21.2348 14.1093Z"
              fill="#E5E5E5"/>
    </g>
    <defs>
        <clipPath id="clip0_2_2">
            <rect width="30" height="30" fill="white"/>
        </clipPath>
    </defs>
</svg>
