<svg xmlns="http://www.w3.org/2000/svg" width="6.638" height="11.739" viewBox="0 0 6.638 11.739">
  <g id="Layer_2_00000138539291851342574060000001165538121685669547_" transform="translate(-111.352 0)">
    <g id="question_mark" transform="translate(111.352 0)">
      <path id="Path_380" data-name="Path 380" d="M115.574,9.5a1.261,1.261,0,0,0-.906-.383h-.023a1.309,1.309,0,0,0,0,2.618h.023a1.31,1.31,0,0,0,.906-2.235ZM117.113.9a3.289,3.289,0,0,0-2.444-.9h-.023a3.289,3.289,0,0,0-2.093.669,3.892,3.892,0,0,0-.711.729,3.485,3.485,0,0,0-.472.871.28.28,0,0,0,.149.353l1.236.543a.279.279,0,0,0,.369-.142s0-.007,0-.009a2.678,2.678,0,0,1,.546-.816,1.262,1.262,0,0,1,.972-.346h.023a1.384,1.384,0,0,1,1.016.36,1.218,1.218,0,0,1,.358.9,1.48,1.48,0,0,1-.28.862,5.872,5.872,0,0,1-.906.988c-.064.06-.128.117-.186.174a3.458,3.458,0,0,0-.738.972,2.653,2.653,0,0,0-.195.683,6.622,6.622,0,0,0-.073.977.283.283,0,0,0,.275.287h1.479a.278.278,0,0,0,.28-.275,3.219,3.219,0,0,1,.142-1.078,3.437,3.437,0,0,1,.8-.961,5.125,5.125,0,0,0,1.018-1.279,3.016,3.016,0,0,0,.332-1.41A3.019,3.019,0,0,0,117.113.9Z" transform="translate(-111.352 0)" fill="#a84e4e"/>
    </g>
  </g>
</svg>
