<svg xmlns="http://www.w3.org/2000/svg" width="12.179" height="10.8" viewBox="0 0 12.179 10.8">
  <g id="script" transform="translate(0.089)">
    <g id="noun-script-2188162" transform="translate(-28 -36.001)" opacity="0.726">
      <g id="Group_1023" data-name="Group 1023" transform="translate(28 36.001)">
        <path id="Path_376" data-name="Path 376" d="M31.424,44.176a.6.6,0,0,0-.848,0l-2.4,2.4a.6.6,0,0,0,0,.848l2.4,2.4a.6.6,0,1,0,.849-.849L29.449,47l1.976-1.976a.6.6,0,0,0,0-.848Z" transform="translate(-28 -41.6)" fill="#c84ed2" stroke="#c84ed2" stroke-width="0.1"/>
        <path id="Path_377" data-name="Path 377" d="M57.024,44.176a.6.6,0,1,0-.849.849L58.152,47l-1.976,1.976a.6.6,0,1,0,.848.849l2.4-2.4a.6.6,0,0,0,0-.848Z" transform="translate(-47.6 -41.6)" fill="#c84ed2" stroke="#c84ed2" stroke-width="0.1"/>
        <path id="Path_378" data-name="Path 378" d="M45.875,36.005a.6.6,0,0,0-.67.521l-1.2,9.6a.6.6,0,0,0,.52.67.669.669,0,0,0,.076,0,.6.6,0,0,0,.594-.526l1.2-9.6a.6.6,0,0,0-.52-.67Z" transform="translate(-39.2 -36.001)" fill="#c84ed2"/>
      </g>
    </g>
  </g>
</svg>
