<svg xmlns="http://www.w3.org/2000/svg" width="8.901" height="10.681" viewBox="0 0 8.901 10.681">
    <g id="noun-open-3560680" transform="translate(-25 -20.003)">
        <path id="Path_610" data-name="Path 610" d="M32.655,24.275h-2.67v-2.45l1.047,1.047.755-.755-1.958-1.958a.534.534,0,0,0-.755,0l-1.958,1.958.755.755,1.047-1.047v2.45h-2.67A1.246,1.246,0,0,0,25,25.521v3.917a1.246,1.246,0,0,0,1.246,1.246h6.409A1.246,1.246,0,0,0,33.9,29.438V25.521A1.246,1.246,0,0,0,32.655,24.275Zm.178,5.163a.178.178,0,0,1-.178.178H26.246a.178.178,0,0,1-.178-.178V25.521a.178.178,0,0,1,.178-.178h2.67v2.314h1.068V25.343h2.67a.178.178,0,0,1,.178.178Z" fill="#37a1ba"/>
    </g>
</svg>
