<svg width="14" height="13" viewBox="0 0 14 13" fill="none" xmlns="http://www.w3.org/2000/svg">
    <path d="M13.986 9.10999C13.986 9.21263 13.9452 9.31107 13.8726 9.38365C13.8001 9.45622 13.7016 9.497 13.599 9.497H5.49899V12.091C5.49801 12.1218 5.48788 12.1515 5.46991 12.1765C5.45194 12.2015 5.42693 12.2206 5.39807 12.2313C5.36922 12.2421 5.33782 12.244 5.30789 12.2368C5.27795 12.2296 5.25083 12.2137 5.22999 12.191L1.23499 7.75399C1.21523 7.73178 1.20227 7.70435 1.19767 7.67498C1.19307 7.64561 1.19702 7.61553 1.20903 7.58834C1.22105 7.56114 1.24063 7.53798 1.26544 7.52161C1.29026 7.50524 1.31926 7.49635 1.34899 7.496H13.989L13.986 9.10999ZM0.998987 5.50199H13.638C13.6677 5.50164 13.6967 5.49275 13.7215 5.47638C13.7463 5.46001 13.7659 5.43684 13.7779 5.40965C13.79 5.38245 13.7939 5.35238 13.7893 5.32301C13.7847 5.29364 13.7717 5.26621 13.752 5.244L9.75999 0.806994C9.73915 0.784335 9.71203 0.768396 9.68209 0.76121C9.65216 0.754023 9.62075 0.755914 9.5919 0.766642C9.56304 0.777369 9.53803 0.796447 9.52006 0.821444C9.50209 0.84644 9.49197 0.876221 9.49099 0.906992V3.50099H1.38499C1.33413 3.50086 1.28375 3.51078 1.23673 3.53018C1.18972 3.54959 1.14701 3.57809 1.11105 3.61405C1.07508 3.65002 1.04658 3.69273 1.02718 3.73974C1.00778 3.78675 0.997855 3.83714 0.997987 3.888L0.998987 5.50199Z" fill="white"/>
</svg>
