<svg xmlns="http://www.w3.org/2000/svg" width="25.03" height="15.929" viewBox="0 0 25.03 15.929">
  <g id="trade_transaction_payment_trading" data-name="trade, transaction, payment, trading" transform="translate(30.03 24.929) rotate(180)">
    <path id="Path_3" data-name="Path 3" d="M29.146,13.884,24.6,9.333a1.138,1.138,0,1,0-1.609,1.609L25.6,13.551H10.138a1.138,1.138,0,1,0,0,2.276h18.2a1.138,1.138,0,0,0,.8-1.942Z" transform="translate(0.551)"/>
    <path id="Path_4" data-name="Path 4" d="M24.342,17H6.138a1.138,1.138,0,0,0-.8,1.942l4.551,4.551a1.138,1.138,0,1,0,1.609-1.609L8.884,19.276H24.342a1.138,1.138,0,0,0,0-2.276Z" transform="translate(0 1.102)"/>
  </g>
</svg>
