<svg id="trash" xmlns="http://www.w3.org/2000/svg" width="15" height="18.461" viewBox="0 0 15 18.461">
  <path id="Path_16" data-name="Path 16" d="M61.557,2.308H58.384V1.731A1.731,1.731,0,0,0,56.654,0H54.346a1.731,1.731,0,0,0-1.731,1.731v.577H49.442A1.442,1.442,0,0,0,48,3.75V4.9a.577.577,0,0,0,.577.577H62.423A.577.577,0,0,0,63,4.9V3.75A1.442,1.442,0,0,0,61.557,2.308Zm-7.788-.577a.578.578,0,0,1,.577-.577h2.308a.578.578,0,0,1,.577.577v.577H53.769Z" transform="translate(-48)" fill="#c7cad0"/>
  <path id="Path_17" data-name="Path 17" d="M73.544,184a.18.18,0,0,0-.18.189l.476,9.989a1.729,1.729,0,0,0,1.729,1.648H84.33a1.729,1.729,0,0,0,1.729-1.648l.476-9.989a.18.18,0,0,0-.18-.189Zm8.713,1.442a.577.577,0,1,1,1.154,0v7.5a.577.577,0,0,1-1.154,0Zm-2.885,0a.577.577,0,1,1,1.154,0v7.5a.577.577,0,0,1-1.154,0Zm-2.885,0a.577.577,0,1,1,1.154,0v7.5a.577.577,0,0,1-1.154,0Z" transform="translate(-72.45 -177.365)" fill="#c7cad0"/>
</svg>
