<svg xmlns="http://www.w3.org/2000/svg" width="11.896" height="31.013" viewBox="0 0 11.896 31.013">
  <path id="Path_98" data-name="Path 98" d="M166.271,9.942a3.428,3.428,0,0,0,.257-6.846,2.793,2.793,0,1,0-5.552,0,3.428,3.428,0,1,0,1.867,6.443v1.85H161.5v1.818h1.345V31.013h1.818V29.579h3.985V27.762H164.66v-1.58h2.773V24.364H164.66v-1.58h3.985V20.966H164.66v-7.76H166V11.389H164.66V9.539a3.406,3.406,0,0,0,1.611.4Zm1.611-3.428A1.611,1.611,0,1,1,166.271,4.9a1.613,1.613,0,0,1,1.611,1.611Zm-4.13-4.7a.975.975,0,1,1-.975.975.976.976,0,0,1,.975-.975Zm-2.52,6.307a1.611,1.611,0,1,1,1.611-1.611A1.613,1.613,0,0,1,161.231,8.124Z" transform="translate(-157.803 0)" fill="#b9dcf7"/>
</svg>
