<svg xmlns="http://www.w3.org/2000/svg" xmlns:xlink="http://www.w3.org/1999/xlink" width="246.946" height="224.585" viewBox="0 0 246.946 224.585">
  <defs>
    <clipPath id="clip-path">
      <path id="Path_146" data-name="Path 146" d="M210,158.086h16.853v42.743H210Zm0,0" transform="translate(-210 -158.086)"/>
    </clipPath>
    <clipPath id="clip-path-2">
      <path id="Path_148" data-name="Path 148" d="M195,158.086h18.149v42.743H195Zm0,0" transform="translate(-195 -158.086)"/>
    </clipPath>
    <clipPath id="clip-path-3">
      <path id="Path_150" data-name="Path 150" d="M195,158.086h11.667v42.743H195Zm0,0" transform="translate(-195 -158.086)"/>
    </clipPath>
    <clipPath id="clip-path-4">
      <path id="Path_152" data-name="Path 152" d="M15.16,512H262.106v71.65H15.16Zm0,0" transform="translate(-15.16 -512)"/>
    </clipPath>
    <clipPath id="clip-path-5">
      <path id="Path_154" data-name="Path 154" d="M15.16,561H262.106v50.476H15.16Zm0,0" transform="translate(-15.16 -561)"/>
    </clipPath>
    <clipPath id="clip-path-6">
      <path id="Path_156" data-name="Path 156" d="M15.16,610H262.106v29.3H15.16Zm0,0" transform="translate(-15.16 -610)"/>
    </clipPath>
    <clipPath id="clip-path-7">
      <path id="Path_163" data-name="Path 163" d="M301,512H424.427v71.65H301Zm0,0" transform="translate(-301 -512)"/>
    </clipPath>
    <clipPath id="clip-path-8">
      <path id="Path_165" data-name="Path 165" d="M301,561H424.427v50.476H301Zm0,0" transform="translate(-301 -561)"/>
    </clipPath>
    <clipPath id="clip-path-9">
      <path id="Path_167" data-name="Path 167" d="M301,610H424.427v29.3H301Zm0,0" transform="translate(-301 -610)"/>
    </clipPath>
  </defs>
  <g id="Izdelek_brez_naslova" data-name="Izdelek brez naslova" transform="translate(-15.16 -158.086)">
    <path id="Path_141" data-name="Path 141" d="M273.635,302.046H241.812c0-20.1.218-36.825.392-50.26.268-20.936.5-39.381-.756-46.737-2.331-.074-5.623.008-8.448.079-2.042.052-4.24.106-6.6.138l-.424-31.8c2.225-.032,4.294-.083,6.22-.132,12.532-.314,23.36-.589,31.943,7.888,10.665,10.526,10.469,25.757,9.883,70.975-.174,13.345-.388,29.952-.388,49.85" transform="translate(-119.717 -8.593)" fill="#787777"/>
    <path id="Path_142" data-name="Path 142" d="M283.93,606.855,260.382,566.09H198.9l-23.551,40.765H283.93" transform="translate(-90.969 -231.695)" fill="#908f8f"/>
    <path id="Path_143" data-name="Path 143" d="M229.852,491.017h61.48V433.891h-61.48Zm0,0" transform="translate(-121.918 -156.623)" fill="#787777"/>
    <path id="Path_144" data-name="Path 144" d="M217.133,438.868H289.6V424.91h-72.47Zm0,0" transform="translate(-114.695 -151.523)" fill="#595757"/>
    <g id="Group_218" data-name="Group 218" transform="translate(99.355 158.086)" clip-path="url(#clip-path)">
      <path id="Path_145" data-name="Path 145" d="M227.257,200.729H210.766V158.477h16.492v42.252" transform="translate(-210.435 -158.308)" fill="#595757"/>
    </g>
    <g id="Group_219" data-name="Group 219" transform="translate(92.873 158.086)" clip-path="url(#clip-path-2)">
      <path id="Path_147" data-name="Path 147" d="M212.758,179.6c0,11.669-3.972,21.129-8.87,21.129s-8.872-9.459-8.872-21.129,3.974-21.123,8.872-21.123,8.87,9.458,8.87,21.123" transform="translate(-195.009 -158.308)" fill="#595757"/>
    </g>
    <g id="Group_220" data-name="Group 220" transform="translate(92.873 158.086)" clip-path="url(#clip-path-3)">
      <path id="Path_149" data-name="Path 149" d="M206.342,179.6c0,11.669-2.539,21.129-5.663,21.129s-5.663-9.459-5.663-21.129,2.535-21.123,5.663-21.123,5.663,9.458,5.663,21.123" transform="translate(-195.009 -158.308)" fill="#91cbf0"/>
    </g>
    <g id="Group_221" data-name="Group 221" transform="translate(15.16 311.021)" clip-path="url(#clip-path-4)">
      <path id="Path_151" data-name="Path 151" d="M228.957,545.512c-4.736,0-9.186,5.685-13.323,3.56-16.647-8.543-23.367-36.147-42.421-36.147-19.106,0-25.754,27.835-42.482,36.329-4.249,2.157-8.788-3.742-13.651-3.742-4.735,0-9.186,5.685-13.322,3.56-16.649-8.543-23.368-36.147-42.421-36.147-25.453,0-46.084,26.584-46.084,59.377a76.818,76.818,0,0,0,.886,11.625H262.2c-1.81-21.6-16-38.415-33.242-38.415" transform="translate(-15.213 -512.526)" fill="#7cb8e7"/>
    </g>
    <g id="Group_222" data-name="Group 222" transform="translate(15.16 332.195)" clip-path="url(#clip-path-5)">
      <path id="Path_153" data-name="Path 153" d="M228.957,584.836c-4.736,0-9.186,3.99-13.323,2.5-16.647-5.994-23.367-25.359-42.421-25.359-19.106,0-25.754,19.525-42.482,25.484-4.249,1.512-8.788-2.628-13.651-2.628-4.735,0-9.186,3.99-13.322,2.5C87.11,581.345,80.39,561.98,61.338,561.98c-25.453,0-46.084,18.649-46.084,41.651a38.18,38.18,0,0,0,.886,8.153H262.2c-1.81-15.151-16-26.949-33.242-26.949" transform="translate(-15.213 -561.557)" fill="#91cbf0"/>
    </g>
    <g id="Group_223" data-name="Group 223" transform="translate(15.16 353.369)" clip-path="url(#clip-path-6)">
      <path id="Path_155" data-name="Path 155" d="M228.957,623.411c-4.736,0-9.186,2.323-13.323,1.457-16.647-3.492-23.367-14.77-42.421-14.77-19.106,0-25.754,11.374-42.482,14.846-4.249.879-8.788-1.533-13.651-1.533-4.735,0-9.186,2.323-13.322,1.457C87.11,621.375,80.39,610.1,61.338,610.1c-25.453,0-46.084,10.862-46.084,24.263a13.467,13.467,0,0,0,.886,4.748H262.2c-1.81-8.825-16-15.7-33.242-15.7" transform="translate(-15.213 -610.055)" fill="#7cb8e7"/>
    </g>
    <path id="Path_157" data-name="Path 157" d="M336.445,404.585q.053-7.274.128-13.793-.073,6.517-.128,13.793" transform="translate(-182.45 -132.149)" fill="#a6a5a6"/>
    <path id="Path_158" data-name="Path 158" d="M316.858,287.174H301.965V182.363a25.288,25.288,0,0,1,5.327,4.051c8.506,8.4,10.1,19.793,10.1,47.019,0,6.9-.1,14.814-.221,23.956q-.086,6.93-.182,15.042-.073,6.517-.128,13.793c0,.317,0,.635-.007.95" transform="translate(-162.869 -13.786)" fill="#565252"/>
    <path id="Path_159" data-name="Path 159" d="M301.965,573.017V566.09h5.91a78.334,78.334,0,0,1-5.91,6.927" transform="translate(-162.869 -231.695)" fill="#656162"/>
    <path id="Path_160" data-name="Path 160" d="M307.874,504.26h-5.91V457.211h30.318v24.45c-10.42,2.132-16.974,12.979-24.408,22.6" transform="translate(-162.869 -169.866)" fill="#565252"/>
    <path id="Path_161" data-name="Path 161" d="M337.777,438.868H301.965V424.91h35.812v13.958" transform="translate(-162.869 -151.523)" fill="#444040"/>
    <g id="Group_224" data-name="Group 224" transform="translate(138.679 311.021)" clip-path="url(#clip-path-7)">
      <path id="Path_162" data-name="Path 162" d="M425.014,583.928c-1.81-15.151-16-26.949-33.242-26.949-3.99,0-7.78,2.836-11.347,2.836a5.8,5.8,0,0,1-1.977-.333c-16.647-5.994-23.367-25.359-42.421-25.359-15.56,0-22.855,12.95-34.064,20.975V542.827a78.334,78.334,0,0,0,5.91-6.927c7.434-9.62,13.988-20.467,24.408-22.6v.01a18.744,18.744,0,0,1,3.746-.385c19.054,0,25.774,27.6,42.421,36.147a4.241,4.241,0,0,0,1.977.478c3.568,0,7.356-4.038,11.347-4.038,17.243,0,31.432,16.814,33.242,38.415" transform="translate(-301.548 -512.526)" fill="#507595"/>
    </g>
    <g id="Group_225" data-name="Group 225" transform="translate(138.679 332.195)" clip-path="url(#clip-path-8)">
      <path id="Path_164" data-name="Path 164" d="M425.014,611.784c-1.81-8.825-16-15.7-33.242-15.7-3.99,0-7.778,1.651-11.347,1.651a9.593,9.593,0,0,1-1.977-.194c-16.647-3.492-23.367-14.77-42.421-14.77-15.56,0-22.855,7.544-34.064,12.219V582.955c11.208-8.025,18.5-20.975,34.064-20.975,19.054,0,25.774,19.365,42.421,25.359a5.8,5.8,0,0,0,1.977.333c3.567,0,7.356-2.836,11.347-2.836,17.243,0,31.432,11.8,33.242,26.949" transform="translate(-301.548 -561.557)" fill="#5e829c"/>
    </g>
    <g id="Group_226" data-name="Group 226" transform="translate(138.679 353.369)" clip-path="url(#clip-path-9)">
      <path id="Path_166" data-name="Path 166" d="M425.014,639.109H301.965V622.317c11.208-4.676,18.5-12.219,34.064-12.219,19.054,0,25.774,11.277,42.421,14.77a9.593,9.593,0,0,0,1.977.194c3.568,0,7.356-1.651,11.347-1.651,17.243,0,31.432,6.874,33.242,15.7" transform="translate(-301.548 -610.055)" fill="#507595"/>
    </g>
  </g>
</svg>
