<svg xmlns="http://www.w3.org/2000/svg" width="21.023" height="19.906" viewBox="0 0 21.023 19.906">
  <g id="Layer_2" data-name="Layer 2" transform="translate(-1 -1.804)">
    <path id="Path_46" data-name="Path 46" d="M20.769,8.837A2.747,2.747,0,0,1,18.6,5.123a1.289,1.289,0,0,0-.385-1.451,10.336,10.336,0,0,0-3.083-1.787,1.3,1.3,0,0,0-1.465.406,2.74,2.74,0,0,1-4.317,0,1.3,1.3,0,0,0-1.465-.406A10.385,10.385,0,0,0,5.015,3.5,1.3,1.3,0,0,0,4.609,4.99,2.733,2.733,0,0,1,2.331,8.746,1.3,1.3,0,0,0,1.2,9.79,9.909,9.909,0,0,0,1,11.752,10.035,10.035,0,0,0,1.133,13.4a1.3,1.3,0,0,0,1.142,1.086A2.733,2.733,0,0,1,4.5,18.346a1.275,1.275,0,0,0,.357,1.528,10.413,10.413,0,0,0,3.055,1.759,1.4,1.4,0,0,0,.441.077,1.289,1.289,0,0,0,1.051-.547,2.712,2.712,0,0,1,2.242-1.177,2.747,2.747,0,0,1,2.2,1.107,1.289,1.289,0,0,0,1.514.427,10.512,10.512,0,0,0,2.8-1.675,1.3,1.3,0,0,0,.378-1.479,2.733,2.733,0,0,1,2.193-3.777,1.3,1.3,0,0,0,1.1-1.065,10.161,10.161,0,0,0,.182-1.773,10.062,10.062,0,0,0-.176-1.873,1.282,1.282,0,0,0-1.079-1.042Zm-5.753,2.915a3.5,3.5,0,1,1-3.5-3.5,3.5,3.5,0,0,1,3.5,3.5Z"/>
  </g>
</svg>
