<svg xmlns="http://www.w3.org/2000/svg" width="14.994" height="14.994" viewBox="0 0 14.994 14.994">
  <g id="icon-executed" transform="translate(-943 -535.451)">
    <path id="Path_74" data-name="Path 74" d="M240.941,0V14.994a7.5,7.5,0,0,0,0-14.994Z" transform="translate(709.556 535.451)" fill="#9a30c9"/>
    <path id="Path_75" data-name="Path 75" d="M0,7.5a7.5,7.5,0,0,0,7.5,7.5V0A7.5,7.5,0,0,0,0,7.5Z" transform="translate(943 535.451)" fill="#b068d0"/>
    <path id="Path_76" data-name="Path 76" d="M78.253,123.992l-3.561-3.58,1.537-1.537,2.024,2.024,5.248-5.248,1.537,1.556Z" transform="translate(870.632 423.398)" fill="#9a30c9"/>
    <path id="Path_77" data-name="Path 77" d="M78.253,106.524l-3.561-3.58,1.537-1.556,2.024,2.043L83.5,98.184l1.537,1.556Z" transform="translate(870.632 440.322)" fill="#fff"/>
  </g>
</svg>
