<svg xmlns="http://www.w3.org/2000/svg" width="12.734" height="19.757" viewBox="0 0 12.734 19.757">
  <g id="lock" transform="translate(-91)">
    <path id="Path_33" data-name="Path 33" d="M131.419,5.209v5.248H129.1V5.209a2.894,2.894,0,0,0-5.788,0v5.248H121V5.209a5.209,5.209,0,0,1,10.419,0Z" transform="translate(-28.842)" fill="#dcf2ea"/>
    <path id="Path_34" data-name="Path 34" d="M261.209,5.209v5.248h-2.315V5.209A2.9,2.9,0,0,0,256,2.315V0A5.2,5.2,0,0,1,261.209,5.209Z" transform="translate(-158.633)" fill="#b5e5d3"/>
    <path id="Path_35" data-name="Path 35" d="M103.155,211H91.579a.573.573,0,0,0-.579.579v9.3a.592.592,0,0,0,.324.521,15.628,15.628,0,0,0,12.086,0,.592.592,0,0,0,.324-.521v-9.3A.573.573,0,0,0,103.155,211Z" transform="translate(0 -202.858)" fill="#65d6a9"/>
    <path id="Path_36" data-name="Path 36" d="M262.367,211.579v9.3a.592.592,0,0,1-.324.521A14.574,14.574,0,0,1,256,222.615V211h5.788A.573.573,0,0,1,262.367,211.579Z" transform="translate(-158.633 -202.858)" fill="#26bfa6"/>
    <path id="Path_37" data-name="Path 37" d="M242.158,301.579v3.473a.579.579,0,1,1-1.158,0v-3.473a.579.579,0,0,1,1.158,0Z" transform="translate(-144.212 -289.385)" fill="#f7fafc"/>
    <path id="Path_38" data-name="Path 38" d="M256.579,301.579v3.473a.573.573,0,0,1-.579.579V301A.573.573,0,0,1,256.579,301.579Z" transform="translate(-158.633 -289.385)" fill="#f7fafc"/>
    <path id="Path_39" data-name="Path 39" d="M214.473,301.579a.573.573,0,0,1-.579.579h-2.315a.579.579,0,1,1,0-1.158h2.315A.573.573,0,0,1,214.473,301.579Z" transform="translate(-115.369 -289.385)" fill="#f7fafc"/>
    <path id="Path_40" data-name="Path 40" d="M257.736,301.579a.573.573,0,0,1-.579.579H256V301h1.158A.573.573,0,0,1,257.736,301.579Z" transform="translate(-158.633 -289.385)" fill="#f7fafc"/>
  </g>
</svg>
