<svg xmlns="http://www.w3.org/2000/svg" width="14.994" height="15.172" viewBox="0 0 14.994 15.172">
  <g id="megaphone" transform="translate(-943 -457.273)">
    <g id="Group_94" data-name="Group 94" transform="translate(947.905 466.938)">
      <path id="Path_78" data-name="Path 78" d="M171.1,330.3a.549.549,0,0,1-.754-.177l-.712-1.148-1-.263-.1.93.718,1.157a1.836,1.836,0,0,0,2.518.59l2.457-1.525a1.838,1.838,0,0,0,.589-2.52l-.688-1.109-.837-.081-.258.747.694,1.119a.548.548,0,0,1-.176.754Z" transform="translate(-168.543 -326.153)" fill="#ebeaf3" fill-rule="evenodd"/>
    </g>
    <g id="Group_95" data-name="Group 95" transform="translate(948.28 467.576)">
      <path id="Path_79" data-name="Path 79" d="M186.145,350.207l-2.457,1.526a1.836,1.836,0,0,1-2.518-.59l.343.554a1.836,1.836,0,0,0,2.518.59l2.457-1.525a1.838,1.838,0,0,0,.589-2.52l-.343-.552A1.837,1.837,0,0,1,186.145,350.207Z" transform="translate(-181.171 -347.691)" fill="#d8d2db" fill-rule="evenodd"/>
    </g>
    <g id="Group_96" data-name="Group 96" transform="translate(943 469.693)">
      <path id="Path_80" data-name="Path 80" d="M5.579,421.279l-.585-1.514-1.561-.633-.054.087a1.664,1.664,0,0,0,0,2.113,1.661,1.661,0,0,0,2.113,0Z" transform="translate(-2.999 -419.132)" fill="#ebeaf3" fill-rule="evenodd"/>
    </g>
    <g id="Group_97" data-name="Group 97" transform="translate(943.434 459.355)">
      <path id="Path_81" data-name="Path 81" d="M30.117,76.457l-2.441-3.513-3.751-2.681L17.638,80.6l2.146,2.147,1.355-.825,1.008-.613L25.3,79.386l1.026-.624Z" transform="translate(-17.638 -70.262)" fill="#e37a2c" fill-rule="evenodd"/>
    </g>
    <g id="Group_98" data-name="Group 98" transform="translate(949.5 458.064)">
      <path id="Path_82" data-name="Path 82" d="M229.854,33.1l-6.191-6.195a.757.757,0,1,0-1.07,1.071l6.192,6.195a.757.757,0,0,0,1.07-1.071Z" transform="translate(-222.372 -26.686)" fill="#fe636e" fill-rule="evenodd"/>
    </g>
    <g id="Group_99" data-name="Group 99" transform="translate(944.778 459.355)">
      <path id="Path_83" data-name="Path 83" d="M74.143,76.457l-6.192-6.195-.643,1.058,4.214,4.215c.749.75-.2,1.15-1.1,1.693l-7.418,4.717.8.8,1.355-.825,1.008-.613Z" transform="translate(-63.008 -70.262)" fill="#cb9670" fill-rule="evenodd"/>
    </g>
    <g id="Group_100" data-name="Group 100" transform="translate(943.07 471.038)">
      <path id="Path_84" data-name="Path 84" d="M7.867,465.324l-.8-.8-.088.053a1.98,1.98,0,0,1-1.62.311,1.27,1.27,0,0,0,.31.491,1.661,1.661,0,0,0,2.113,0Z" transform="translate(-5.357 -464.522)" fill="#d8d2db" fill-rule="evenodd"/>
    </g>
    <g id="Group_101" data-name="Group 101" transform="translate(954.965 463.532)">
      <path id="Path_85" data-name="Path 85" d="M408.793,212.151l-.947-.948a.756.756,0,0,1-.633,1.284.752.752,0,0,1-.438-.214l.948.948a.757.757,0,0,0,1.07-1.071Z" transform="translate(-406.775 -211.203)" fill="#fb2a39" fill-rule="evenodd"/>
    </g>
    <g id="Group_102" data-name="Group 102" transform="translate(954.802 458.863)">
      <path id="Path_86" data-name="Path 86" d="M401.5,55.234a.226.226,0,0,1-.16-.385L402.49,53.7a.226.226,0,1,1,.319.319l-1.153,1.153A.225.225,0,0,1,401.5,55.234Z" transform="translate(-401.271 -53.629)" fill="#acacc0"/>
    </g>
    <g id="Group_103" data-name="Group 103" transform="translate(953.653 457.273)">
      <path id="Path_87" data-name="Path 87" d="M362.762,2.061a.226.226,0,0,1-.225-.223L362.52.228A.226.226,0,0,1,362.743,0h0a.226.226,0,0,1,.226.223l.017,1.61a.226.226,0,0,1-.223.228Z" transform="translate(-362.52 0)" fill="#acacc0"/>
    </g>
    <g id="Group_104" data-name="Group 104" transform="translate(955.934 461.147)">
      <path id="Path_88" data-name="Path 88" d="M441.309,131.2h0l-1.609-.017a.226.226,0,0,1,0-.451h0l1.609.017a.226.226,0,0,1,0,.451Z" transform="translate(-439.475 -130.736)" fill="#acacc0"/>
    </g>
  </g>
</svg>
