<svg xmlns="http://www.w3.org/2000/svg" width="12.81" height="18.576" viewBox="0 0 12.81 18.576">
  <g id="hourglass" transform="translate(-79.467)">
    <path id="Path_41" data-name="Path 41" d="M129.109,62.142h-7.16c-2.593-2.477-.813-5.921,1.819-7.585-2.67-1.664-4.489-5.147-1.9-7.624h7.159c2.593,2.477.813,5.921-1.819,7.585C129.922,56.144,131.741,59.627,129.109,62.142Z" transform="translate(-39.658 -45.23)" fill="#f3f3f3"/>
    <path id="Path_42" data-name="Path 42" d="M164.8,157.807a2.07,2.07,0,0,1,.155-.619c.387-.155.774-.31,1.161-.5a2.323,2.323,0,0,0,1.045-.774,2.564,2.564,0,0,0,.58-1.664v-2.012c-.813-.5-2.786-1.858-2.786-2.9h6.231c-.271,1.006-1.935,2.283-2.709,2.864v2.012a2.506,2.506,0,0,0,1.625,2.4c.387.155.813.348,1.2.5a1.822,1.822,0,0,1,.155.619C171.456,161.213,164.8,161.252,164.8,157.807Z" transform="translate(-82.237 -143.914)" fill="#dbaa26"/>
    <g id="Group_29" data-name="Group 29" transform="translate(79.467)">
      <path id="Path_43" data-name="Path 43" d="M91.425,0H80.28a.794.794,0,0,0-.813.813V.851a.794.794,0,0,0,.813.813H91.464a.794.794,0,0,0,.813-.813V.813A.851.851,0,0,0,91.425,0Z" transform="translate(-79.467)" fill="#f3705a"/>
      <path id="Path_44" data-name="Path 44" d="M80.28,467.8H91.464a.794.794,0,0,0,.813-.813v-.039a.794.794,0,0,0-.813-.813H80.28a.794.794,0,0,0-.813.813v.039A.794.794,0,0,0,80.28,467.8Z" transform="translate(-79.467 -449.221)" fill="#f3705a"/>
    </g>
  </g>
</svg>
