<svg id="user" xmlns="http://www.w3.org/2000/svg" width="17" height="19.342" viewBox="0 0 17 19.342">
  <g id="Group_10" data-name="Group 10" transform="translate(3.4)">
    <g id="Group_9" data-name="Group 9">
      <path id="Path_1" data-name="Path 1" d="M126.1,0a5.1,5.1,0,1,0,5.1,5.1A5.106,5.106,0,0,0,126.1,0Z" transform="translate(-121)"/>
    </g>
  </g>
  <g id="Group_12" data-name="Group 12" transform="translate(0 11.333)">
    <g id="Group_11" data-name="Group 11">
      <path id="Path_2" data-name="Path 2" d="M45.845,302.2a7.27,7.27,0,0,0-5.212-2.2H38.367a7.27,7.27,0,0,0-5.212,2.2A7.432,7.432,0,0,0,31,307.442a.567.567,0,0,0,.567.567H47.433a.567.567,0,0,0,.567-.567A7.432,7.432,0,0,0,45.845,302.2Z" transform="translate(-31 -300)"/>
    </g>
  </g>
</svg>
