<?xml version="1.0" standalone="no"?>
<!DOCTYPE svg PUBLIC "-//W3C//DTD SVG 20010904//EN"
 "http://www.w3.org/TR/2001/REC-SVG-20010904/DTD/svg10.dtd">
<svg version="1.0" xmlns="http://www.w3.org/2000/svg"
 width="365.000000pt" height="365.000000pt" viewBox="0 0 365.000000 365.000000"
 preserveAspectRatio="xMidYMid meet">
<metadata>
Created by potrace 1.14, written by Peter Selinger 2001-2017
</metadata>
<g transform="translate(0.000000,365.000000) scale(0.100000,-0.100000)"
fill="#000000" stroke="none">
<path d="M1669 3646 c-2 -2 -31 -7 -64 -10 -302 -34 -612 -156 -858 -339 -127
-94 -208 -170 -311 -291 -96 -113 -175 -232 -242 -366 -55 -108 -68 -142 -110
-270 -100 -306 -110 -650 -30 -985 123 -511 484 -958 962 -1192 200 -98 393
-156 594 -179 94 -10 311 -11 389 -2 36 5 86 11 111 13 216 25 543 157 755
304 338 235 597 596 710 989 26 89 31 110 40 167 3 17 7 41 10 55 23 128 27
354 9 505 -36 296 -149 589 -320 830 -71 100 -170 214 -241 278 -18 16 -33 32
-33 36 0 4 16 8 36 9 61 4 177 32 201 48 42 27 20 98 -47 151 -32 25 -138 72
-210 92 -160 44 -288 61 -472 62 -98 0 -144 5 -191 19 -68 21 -216 54 -287 65
-47 7 -395 16 -401 11z"/>
</g>
</svg>
