<svg xmlns="http://www.w3.org/2000/svg" xmlns:xlink="http://www.w3.org/1999/xlink" width="4000" height="4387" viewBox="0 0 4000 4387">
  <defs>
    <clipPath id="clip-path">
      <path id="Path_148" data-name="Path 148" d="M195,158.086h36.866v86.822H195Zm0,0" transform="translate(-195 -158.086)"/>
    </clipPath>
    <clipPath id="clip-path-2">
      <path id="Path_150" data-name="Path 150" d="M195,158.086h23.7v86.822H195Zm0,0" transform="translate(-195 -158.086)"/>
    </clipPath>
    <linearGradient id="linear-gradient" x1="0.19" y1="0.159" x2="0.99" y2="1.01" gradientUnits="objectBoundingBox">
      <stop offset="0" stop-color="#141e33"/>
      <stop offset="1" stop-color="#3d4557"/>
    </linearGradient>
    <clipPath id="clip-Web_1920_1">
      <rect width="4000" height="4387"/>
    </clipPath>
  </defs>
  <g id="Web_1920_1" data-name="Web 1920 – 1" clip-path="url(#clip-Web_1920_1)">
    <rect width="4000" height="4387" fill="#fff"/>
    <g id="Group_221" data-name="Group 221" transform="translate(-25.032 -77.266)">
      <path id="Path_141" data-name="Path 141" d="M322.783,434.9H258.141c0-40.836.442-74.8.8-102.09.545-42.527,1.025-79.992-1.536-94.935-4.735-.151-11.421.017-17.161.161-4.149.106-8.613.216-13.4.281l-.861-64.6c4.519-.065,8.723-.168,12.635-.267,25.455-.638,47.45-1.2,64.885,16.022,21.663,21.382,21.265,52.319,20.075,144.168-.353,27.108-.789,60.839-.789,101.257" transform="translate(3032.128 -10.778)" fill="#787777"/>
      <path id="Path_142" data-name="Path 142" d="M395.9,648.894l-47.831-82.8H223.189l-47.838,82.8H395.9" transform="translate(3038.316 -58.804)" fill="#908f8f"/>
      <path id="Path_143" data-name="Path 143" d="M229.852,549.929H354.733V433.891H229.852Zm0,0" transform="translate(3031.654 -42.644)" fill="#787777"/>
      <path id="Path_144" data-name="Path 144" d="M217.133,453.262H364.339V424.91H217.133Zm0,0" transform="translate(3033.209 -41.546)" fill="#595757"/>
      <g id="Group_219" data-name="Group 219" transform="translate(3230.915 149.158)" clip-path="url(#clip-path)">
        <path id="Path_147" data-name="Path 147" d="M231.055,201.384c0,23.7-8.068,42.917-18.018,42.917s-18.021-19.215-18.021-42.917,8.071-42.907,18.021-42.907,18.018,19.211,18.018,42.907" transform="translate(-195.002 -158.134)" fill="#595757"/>
      </g>
      <g id="Group_220" data-name="Group 220" transform="translate(3230.915 149.158)" clip-path="url(#clip-path-2)">
        <path id="Path_149" data-name="Path 149" d="M218.022,201.384c0,23.7-5.157,42.917-11.5,42.917s-11.5-19.215-11.5-42.917,5.15-42.907,11.5-42.907,11.5,19.211,11.5,42.907" transform="translate(-195.002 -158.134)" fill="#91cbf0"/>
      </g>
    </g>
    <path id="waves_bg" d="M4037.551,601.773c-7.864-6.3-4.109-21.022-12.965-30.388-11.518-12.16-23.946-1.614-23.946-1.614s11.528.6,12.459,9.24a1.042,1.042,0,0,1,0,.183c1.245,12.469-16.629,17.049-22.762,5.931a12.19,12.19,0,0,0-1.853-2.542c-6.467-6.87-13.279-.893-13.279-.893s6.477.366,7,5.221v.584c.769,12.48-18.764,14.576-21.345,2.29-1.305-6.206-2.3-13.167-7.277-18.423-11.508-12.16-23.946-1.614-23.946-1.614s11.528.6,12.459,9.24v.252c1.194,12.4-16.548,16.923-22.63,5.862a11.809,11.809,0,0,0-1.832-2.542c-6.467-6.87-13.157-.893-13.157-.893s6.477.366,7,5.221v.584c.779,12.663-19.027,14.782-21.648,2.347-1.316-6.206-2.3-13.19-7.287-18.457-11.508-12.16-23.946-1.614-23.946-1.614s11.528.6,12.469,9.24a1.275,1.275,0,0,0,0,.183c1.184,11.885-16.194,16.728-21.9,6.08a12.819,12.819,0,0,0-1.933-2.691c-6.477-6.87-13.451-.893-13.451-.893s6.488.366,7.014,5.221v.6c.779,12.824-19.23,14.976-21.952,2.37-1.316-6.217-2.3-13.213-7.3-18.491-11.508-12.16-23.936-1.614-23.936-1.614s11.528.6,12.459,9.24v.263c1.144,11.977-15.93,16.408-21.891,5.725a11.883,11.883,0,0,0-1.8-2.473c-6.468-6.87-13.289-.893-13.289-.893s6.487.366,7.014,5.221v.6c.79,13.007-19.554,15.182-22.266,2.4-1.326-6.229-2.3-13.236-7.307-18.526-11.508-12.16-23.936-1.6-23.936-1.6s11.528.584,12.459,9.229v.343c1.093,11.908-15.849,16.282-21.74,5.725a12.307,12.307,0,0,0-1.8-2.473c-6.477-6.87-13.157-.893-13.157-.893s6.488.366,7.014,5.221v.6c.8,13.179-19.817,15.377-22.56,2.439-1.326-6.24-2.3-13.259-7.307-18.56-11.518-12.16-23.946-1.615-23.946-1.615s11.528.6,12.459,9.24v.172c1.144,11.45-15.384,16.03-21.062,5.92a12.384,12.384,0,0,0-1.842-2.519c-6.467-6.87-13.441-.893-13.441-.893s6.488.366,7.014,5.221v.607c.8,13.351-20.08,15.572-22.863,2.462-1.326-6.252-2.3-13.282-7.317-18.594-11.508-12.16-23.946-1.614-23.946-1.614s11.528.6,12.459,9.24v.172c1.134,11.37-15.283,15.95-20.95,5.851a11.994,11.994,0,0,0-1.791-2.45c-6.477-6.87-13.289-.893-13.289-.893s6.487.366,7,5.221a11.7,11.7,0,0,1-2.024,8.1c-5.657,7.946-18.875,5.175-20.95-4.2-1.437-6.446-2.257-13.877-7.5-19.465a16.774,16.774,0,0,0-11.973-5.839c-7.783-1.305-14.078,4.03-14.078,4.03s11.528.584,12.459,9.229v.183c1.245,12.48-16.629,17.049-22.762,5.943a12.637,12.637,0,0,0-1.853-2.553c-6.467-6.87-13.288-.893-13.288-.893s6.488.366,7.014,5.233a2.229,2.229,0,0,0,.051.573c.769,12.492-18.764,14.587-21.345,2.29-1.316-6.206-2.308-13.167-7.287-18.423-11.508-12.16-23.936-1.615-23.936-1.615s11.528.584,12.459,9.229v.252c1.194,12.412-16.548,16.934-22.63,5.862a12.119,12.119,0,0,0-1.832-2.542c-6.477-6.87-13.157-.893-13.157-.893s6.488.366,7.014,5.233v.584c.78,12.595-19.017,14.782-21.638,2.29-1.316-6.217-2.3-13.19-7.287-18.457-11.518-12.16-23.946-1.615-23.946-1.615s11.528.584,12.459,9.229a1.177,1.177,0,0,1,0,.183c1.184,11.9-16.194,16.728-21.892,6.091a12.581,12.581,0,0,0-1.943-2.7c-6.467-6.87-13.441-.893-13.441-.893s6.487.366,7.014,5.233a2.362,2.362,0,0,0,.051.584c.779,12.835-19.291,14.988-21.952,2.382-1.316-6.229-2.3-13.213-7.3-18.492-11.508-12.16-23.946-1.615-23.946-1.615s11.528.584,12.469,9.229v.275c1.144,11.977-15.92,16.408-21.882,5.725a12.6,12.6,0,0,0-1.8-2.473c-6.467-6.87-13.288-.893-13.288-.893s6.487.366,7.014,5.233v.6c.8,13-19.544,15.171-22.266,2.4-1.326-6.229-2.3-13.236-7.307-18.526-11.508-12.16-23.946-1.614-23.946-1.614s11.538.584,12.469,9.229v.355c1.1,11.908-15.849,16.282-21.74,5.725a11.827,11.827,0,0,0-1.8-2.473c-6.467-6.87-13.157-.893-13.157-.893s6.488.366,7,5.233a2.465,2.465,0,0,0,.051.6c.8,13.179-19.807,15.377-22.56,2.427-1.316-6.229-2.287-13.259-7.307-18.549-11.508-12.16-23.936-1.615-23.936-1.615s11.528.584,12.459,9.229v.183c1.134,11.45-15.394,16.03-21.062,5.908a12.379,12.379,0,0,0-1.842-2.519c-6.467-6.87-13.441-.893-13.441-.893s6.477.366,7,5.233a2.453,2.453,0,0,0,.051.6c.81,13.351-20.07,15.583-22.863,2.462-1.326-6.24-2.287-13.282-7.307-18.583-11.518-12.16-23.946-1.615-23.946-1.615s11.528.584,12.459,9.229v.183c1.134,11.37-15.282,15.938-20.95,5.851a12.5,12.5,0,0,0-1.792-2.462c-6.477-6.87-13.289-.893-13.289-.893s6.477.366,7,5.233a11.789,11.789,0,0,1-2.024,8.084c-5.667,8.015-18.875,5.175-20.96-4.2-1.427-6.435-2.247-13.866-7.489-19.465s-10.516-6.343-14.847-5.656a19.128,19.128,0,0,0-13.37,4.134s11.528.6,12.459,9.24v.183c1.235,12.469-16.629,17.049-22.772,5.931a11.863,11.863,0,0,0-1.842-2.542c-6.467-6.87-13.289-.893-13.289-.893s6.487.366,7.014,5.221v.584c.779,12.48-18.754,14.576-21.345,2.29-1.306-6.206-2.3-13.167-7.277-18.423-11.508-12.16-23.936-1.614-23.936-1.614s11.528.6,12.459,9.24v.252c1.194,12.4-16.548,16.923-22.63,5.851a12.029,12.029,0,0,0-1.832-2.531c-6.477-6.87-13.157-.893-13.157-.893s6.488.366,7,5.221a2.283,2.283,0,0,0,.051.584c.779,12.664-19.017,14.782-21.638,2.29-1.316-6.217-2.307-13.19-7.287-18.457-11.518-12.16-23.946-1.614-23.946-1.614s11.528.6,12.459,9.24a1.044,1.044,0,0,1,0,.183c1.184,11.885-16.194,16.728-21.891,6.08a12.881,12.881,0,0,0-1.943-2.691c-6.467-6.87-13.44-.893-13.44-.893s6.487.366,7,5.221a2.407,2.407,0,0,0,.051.6c.79,12.824-19.281,14.976-21.942,2.37-1.326-6.217-2.3-13.213-7.3-18.491-11.508-12.16-23.946-1.614-23.946-1.614s11.528.6,12.459,9.24v.263c1.144,11.977-15.92,16.408-21.882,5.725a12.282,12.282,0,0,0-1.8-2.473c-6.477-6.87-13.289-.893-13.289-.893s6.487.366,7,5.221a2.418,2.418,0,0,0,.051.6c.8,13.007-19.543,15.182-22.266,2.4-1.316-6.229-2.287-13.236-7.3-18.526-11.508-12.16-23.946-1.6-23.946-1.6s11.538.584,12.469,9.229v.344c1.1,11.908-15.849,16.282-21.74,5.725a11.908,11.908,0,0,0-1.8-2.473c-6.467-6.87-13.157-.893-13.157-.893s6.477.366,7,5.221a2.417,2.417,0,0,0,.051.6c.8,13.179-19.807,15.377-22.56,2.439-1.316-6.24-2.287-13.259-7.307-18.56-11.508-12.16-23.936-1.614-23.936-1.614s11.528.6,12.459,9.24v.172c1.134,11.45-15.394,16.03-21.062,5.92a12.387,12.387,0,0,0-1.842-2.519c-6.467-6.87-13.441-.893-13.441-.893s6.477.366,7,5.221a2.546,2.546,0,0,0,.051.607c.81,13.35-20.07,15.572-22.863,2.462-1.326-6.252-2.287-13.282-7.317-18.594-10.316-11.782-22.714-1.191-22.714-1.191s11.528.6,12.459,9.24v.172c1.134,11.37-15.283,15.95-20.95,5.851a12.064,12.064,0,0,0-1.8-2.45c-6.467-6.87-13.279-.893-13.279-.893s6.477.366,7,5.221a11.775,11.775,0,0,1-2.024,8.1c-5.658,7.946-18.866,5.175-20.951-4.2-1.427-6.446-2.247-13.877-7.5-19.465-11.508-12.16-23.936-1.614-23.936-1.614h.132c-.486.344-.759.573-.759.573s11.528.6,12.469,9.24a1.275,1.275,0,0,0,0,.183c1.235,12.469-16.629,17.049-22.772,5.931a12.527,12.527,0,0,0-1.842-2.542c-6.477-6.87-13.289-.893-13.289-.893s6.477.366,7,5.221a2.328,2.328,0,0,0,.051.584c.769,12.48-18.754,14.576-21.345,2.29-1.306-6.206-2.3-13.167-7.277-18.423-11.508-12.16-23.946-1.614-23.946-1.614s11.528.6,12.469,9.24v.252c1.2,12.412-16.548,16.923-22.62,5.862a12.226,12.226,0,0,0-1.842-2.542c-6.467-6.87-13.157-.893-13.157-.893s6.477.366,7,5.221a2.284,2.284,0,0,0,.051.584c.779,12.663-19.017,14.782-21.648,2.29-1.306-6.206-2.3-13.19-7.287-18.457-11.508-12.16-23.936-1.614-23.936-1.614s11.528.6,12.459,9.24v.183c1.184,11.885-16.143,16.728-21.9,6.08a12.83,12.83,0,0,0-1.933-2.691c-6.467-6.87-13.44-.893-13.44-.893s6.477.366,7,5.221a2.407,2.407,0,0,0,.051.6c.789,12.824-19.281,14.976-21.952,2.37-1.316-6.217-2.3-13.213-7.287-18.492-11.518-12.16-23.946-1.614-23.946-1.614s11.528.6,12.459,9.24v.275c1.144,11.965-15.92,16.4-21.882,5.725a11.944,11.944,0,0,0-1.812-2.473c-6.467-6.87-13.278-.893-13.278-.893s6.477.366,7,5.221a2.407,2.407,0,0,0,.051.6c.789,13.007-19.544,15.182-22.266,2.4-1.316-6.229-2.3-13.236-7.3-18.526-11.517-12.16-23.946-1.6-23.946-1.6s11.528.584,12.459,9.229v.344c1.093,11.908-15.849,16.282-21.74,5.725a12.28,12.28,0,0,0-1.8-2.473c-6.467-6.87-13.157-.893-13.157-.893s6.477.366,7,5.221a2.418,2.418,0,0,0,.051.6c.8,13.179-19.807,15.377-22.559,2.439-1.326-6.24-2.3-13.259-7.307-18.56-11.508-12.16-23.946-1.615-23.946-1.615s11.528.6,12.469,9.24v.183c1.144,11.45-15.384,16.03-21.062,5.908a12.733,12.733,0,0,0-1.832-2.519c-6.477-6.87-13.451-.893-13.451-.893s6.487.366,7.014,5.221a2.5,2.5,0,0,0,.051.607c.8,13.35-20.07,15.572-22.863,2.462-1.326-6.252-2.3-13.282-7.317-18.594-11.508-12.16-23.946-1.615-23.946-1.615s11.538.6,12.469,9.24v.183c1.134,11.37-15.283,15.938-20.95,5.839a12.459,12.459,0,0,0-1.8-2.45c-6.467-6.87-13.289-.893-13.289-.893s6.488.366,7.014,5.221a11.765,11.765,0,0,1-2.024,8.095c-4.3,6.057-12.985,5.885-17.8,1.328-3.694-7.294-2.449-18.606-9.726-26.335-11.518-12.16-23.946-1.615-23.946-1.615l.891.092a17.28,17.28,0,0,0-1.8,1.259s11.528.6,12.459,9.24a23.462,23.462,0,0,1,0,4.488c-3.644,7.912-16.781,9.48-21.871.275a12.27,12.27,0,0,0-1.852-2.553c-6.467-6.87-13.279-.882-13.279-.882s6.477.355,7,5.221v.584c.769,12.48-18.764,14.576-21.345,2.29-1.316-6.206-2.3-13.167-7.277-18.423-11.518-12.16-23.946-1.614-23.946-1.614s11.528.584,12.459,9.229v.252c1.194,12.412-16.548,16.934-22.63,5.862a12.416,12.416,0,0,0-1.832-2.542c-6.467-6.87-13.157-.882-13.157-.882s6.487.355,7.014,5.221v.584c.779,12.652-19.027,14.782-21.649,2.347-1.316-6.217-2.3-13.19-7.287-18.457-11.507-12.16-23.946-1.614-23.946-1.614s11.528.584,12.469,9.229v.183c1.194,11.9-16.193,16.74-21.892,6.091a12.9,12.9,0,0,0-1.933-2.7c-6.478-6.87-13.451-.882-13.451-.882s6.488.355,7.014,5.221v.584c.779,12.835-19.23,14.988-21.952,2.382-1.316-6.217-2.3-13.213-7.3-18.492-11.508-12.16-23.936-1.614-23.936-1.614s11.528.584,12.459,9.229v.275c1.144,11.977-15.93,16.408-21.891,5.725a12.212,12.212,0,0,0-1.8-2.473c-6.467-6.87-13.289-.882-13.289-.882s6.488.355,7.014,5.221v.6c.79,13.007-19.553,15.182-22.266,2.4-1.326-6.229-2.3-13.236-7.307-18.526-11.507-12.16-23.936-1.615-23.936-1.615s11.528.584,12.459,9.229v.355c1.1,11.908-15.839,16.282-21.74,5.725a12.179,12.179,0,0,0-1.791-2.473c-6.477-6.87-13.157-.882-13.157-.882s6.488.355,7.014,5.221a2.413,2.413,0,0,0,.051.6c.789,13.179-19.817,15.377-22.56,2.439-1.326-6.24-2.3-13.271-7.307-18.56-11.518-12.16-23.946-1.614-23.946-1.614s11.528.584,12.459,9.229v.183c1.144,11.45-15.394,16.03-21.062,5.92a12.771,12.771,0,0,0-1.842-2.53c-6.467-6.87-13.441-.882-13.441-.882s6.488.355,7.014,5.221v.6c.81,13.351-20.07,15.583-22.853,2.462-1.336-6.24-2.3-13.282-7.317-18.583-11.507-12.16-23.946-1.614-23.946-1.614s11.528.584,12.459,9.229v.183c1.134,11.37-15.283,15.95-20.95,5.851a12.092,12.092,0,0,0-1.792-2.462c-6.477-6.87-13.289-.882-13.289-.882s6.488.355,7,5.221a11.688,11.688,0,0,1-2.024,8.084c-5.657,7.958-18.875,5.175-20.95-4.191-1.437-6.446-2.257-13.877-7.5-19.465-11.508-12.16-23.946-1.614-23.946-1.614h.142c-.486.344-.759.573-.759.573s11.528.584,12.459,9.229v.195c1.245,12.469-16.629,17.037-22.762,5.931a12.63,12.63,0,0,0-1.852-2.553c-6.467-6.87-13.289-.882-13.289-.882s6.487.355,7.014,5.221v.584c.769,12.48-18.764,14.576-21.345,2.29-1.316-6.206-2.308-13.167-7.287-18.423-11.507-12.16-23.936-1.614-23.936-1.614s11.528.584,12.459,9.229v.252c1.194,12.412-16.548,16.934-22.63,5.862a12.422,12.422,0,0,0-1.832-2.542c-6.477-6.87-13.157-.882-13.157-.882s6.488.355,7,5.221a5.178,5.178,0,0,1,0,.584c.779,12.652-19.017,14.782-21.638,2.347-1.316-6.217-2.3-13.19-7.287-18.457-11.518-12.16-23.946-1.614-23.946-1.614s11.528.584,12.459,9.229a1.273,1.273,0,0,1,0,.183c1.184,11.9-16.193,16.74-21.891,6.091a12.948,12.948,0,0,0-1.943-2.7c-6.467-6.87-13.441-.882-13.441-.882s6.488.355,7.014,5.221v.584c.79,12.835-19.23,14.988-21.942,2.381-1.326-6.217-2.3-13.213-7.3-18.491-11.507-12.16-23.946-1.614-23.946-1.614s11.528.584,12.469,9.229a2.456,2.456,0,0,0,0,.275c1.144,11.977-15.92,16.408-21.881,5.725a12.61,12.61,0,0,0-1.8-2.473c-6.477-6.87-13.289-.882-13.289-.882s6.488.355,7,5.221a5.7,5.7,0,0,1,0,.6c.8,13.007-19.544,15.183-22.266,2.4-1.326-6.229-2.3-13.236-7.307-18.526-11.507-12.16-23.946-1.614-23.946-1.614s11.538.6,12.469,9.24v.344c1.1,11.908-15.849,16.282-21.74,5.725a11.478,11.478,0,0,0-1.8-2.462c-6.467-6.87-13.157-.893-13.157-.893s6.477.355,7,5.221v.6c.8,13.179-19.807,15.377-22.56,2.439-1.316-6.24-2.287-13.259-7.307-18.56-11.507-12.16-23.936-1.614-23.936-1.614s11.528.584,12.459,9.229v.183c1.134,11.45-15.394,16.03-21.062,5.92a12.763,12.763,0,0,0-1.842-2.531c-6.467-6.87-13.441-.882-13.441-.882s6.477.355,7,5.221v.6c.81,13.35-20.07,15.583-22.863,2.462-1.326-6.24-2.287-13.27-7.317-18.583-11.508-12.16-23.936-1.614-23.936-1.614s11.528.584,12.459,9.229v.183c1.134,11.37-15.282,15.95-20.95,5.851a12.5,12.5,0,0,0-1.791-2.462c-6.477-6.87-13.289-.882-13.289-.882s6.477.355,7,5.221a11.737,11.737,0,0,1-2.024,8.084c-4.19,5.9-12.509,5.9-17.4,1.695-3.623-7.294-2.429-18.537-9.666-26.186-9.757-10.3-20.161-4.305-23.116-2.29a16.672,16.672,0,0,0-2.206,1.5s11.528.584,12.459,9.229a22.832,22.832,0,0,1-.192,6.251c-4.393,6.778-16.376,7.683-21.173-1.007a12.647,12.647,0,0,0-1.852-2.553c-6.467-6.87-13.289-.882-13.289-.882s6.487.355,7.014,5.221v.584c.769,12.48-18.764,14.576-21.345,2.29-1.316-6.206-2.308-13.167-7.277-18.423-10.113-11.8-22.541-1.293-22.541-1.293s11.528.584,12.459,9.229v.252c1.194,12.412-16.548,16.934-22.63,5.862a12.422,12.422,0,0,0-1.832-2.542c-6.477-6.87-13.157-.882-13.157-.882s6.487.355,7.014,5.221v.584c.769,12.595-19.027,14.782-21.649,2.29-1.316-6.217-2.3-13.19-7.287-18.457-11.508-12.16-23.946-1.614-23.946-1.614s11.528.584,12.459,9.229a1.291,1.291,0,0,1,0,.183c1.184,11.9-16.193,16.74-21.891,6.091a12.6,12.6,0,0,0-1.943-2.7c-6.467-6.87-13.441-.882-13.441-.882s6.487.355,7.014,5.221a2.325,2.325,0,0,0,.051.584c.779,12.835-19.29,14.988-21.952,2.382-1.316-6.217-2.3-13.213-7.3-18.492-11.386-12.068-23.865-1.557-23.865-1.557s11.528.584,12.469,9.229a2.514,2.514,0,0,1,0,.275c1.144,11.977-15.92,16.408-21.881,5.725a12.607,12.607,0,0,0-1.8-2.473c-6.467-6.87-13.289-.882-13.289-.882s6.487.355,7.014,5.221v.6c.8,13.007-19.543,15.182-22.266,2.4-1.326-6.229-2.3-13.236-7.307-18.526-11.386-12.08-23.784-1.568-23.784-1.568s11.528.6,12.459,9.24v.343c1.1,11.908-15.849,16.282-21.74,5.725a11.778,11.778,0,0,0-1.791-2.462c-6.477-6.87-13.157-.893-13.157-.893s6.487.355,7,5.221a5.633,5.633,0,0,1,0,.6c.8,13.179-19.807,15.377-22.549,2.439-1.326-6.24-2.3-13.259-7.317-18.56-11.507-12.16-23.936-1.615-23.936-1.615s11.528.584,12.459,9.229v.183c1.134,11.45-15.394,16.03-21.062,5.92a12.767,12.767,0,0,0-1.842-2.531c-6.467-6.87-13.441-.882-13.441-.882s6.487.355,7,5.221v.6c.81,13.351-20.07,15.583-22.853,2.462-1.336-6.24-2.3-13.27-7.317-18.583-11.518-12.16-23.946-1.615-23.946-1.615s11.528.584,12.459,9.229v.183c1.134,11.37-15.283,15.95-20.95,5.851a12.493,12.493,0,0,0-1.791-2.462c-6.477-6.87-13.289-.882-13.289-.882s6.477.355,7,5.221a11.789,11.789,0,0,1-2.024,8.084c-5.668,8.015-18.876,5.175-20.96-4.191-1.427-6.446-2.247-13.877-7.49-19.465-11.325-12.114-23.743-1.6-23.743-1.6h.142c-.5.343-.769.572-.769.572s11.538.584,12.469,9.229a1.294,1.294,0,0,0,0,.195c1.255,12.515-16.629,17.083-22.7,6.034a12.225,12.225,0,0,0-1.842-2.553c-6.477-6.87-13.289-.882-13.289-.882s6.488.355,7,5.221a2.374,2.374,0,0,0,.051.584c.769,12.48-18.754,14.576-21.345,2.29-1.306-6.206-2.3-13.167-7.277-18.423-11.507-12.16-23.936-1.614-23.936-1.614s11.528.584,12.459,9.229a2.318,2.318,0,0,1,0,.263c1.2,12.4-16.548,16.923-22.62,5.851a12.09,12.09,0,0,0-1.842-2.542c-6.467-6.87-13.157-.882-13.157-.882s6.487.355,7,5.221a2.325,2.325,0,0,0,.051.584c.779,12.652-19.017,14.782-21.649,2.347-1.306-6.217-2.3-13.19-7.287-18.457-11.507-12.16-23.936-1.614-23.936-1.614s11.528.584,12.459,9.229v.195c1.184,11.885-16.193,16.728-21.9,6.08a12.207,12.207,0,0,0-1.933-2.691c-6.467-6.87-13.441-.893-13.441-.893s6.477.355,7,5.221a2.325,2.325,0,0,0,.051.584c.789,12.835-19.28,14.988-21.952,2.382-1.316-6.217-2.287-13.213-7.287-18.492-11.518-12.16-23.946-1.614-23.946-1.614s11.528.584,12.459,9.229v.275c1.144,11.976-15.92,16.408-21.881,5.725a12.537,12.537,0,0,0-1.8-2.462c-6.477-6.87-13.289-.893-13.289-.893s6.477.366,7,5.221a2.415,2.415,0,0,0,.051.6c.789,13.007-19.543,15.182-22.266,2.4-1.316-6.229-2.287-13.236-7.3-18.526-11.507-12.16-23.946-1.614-23.946-1.614s11.528.6,12.469,9.24v.343c1.1,11.908-15.849,16.282-21.74,5.725a12.133,12.133,0,0,0-1.8-2.462c-6.467-6.87-13.157-.893-13.157-.893s6.477.355,7,5.221v.6c.8,13.179-19.807,15.377-22.56,2.439-1.316-6.24-2.287-13.259-7.307-18.56-11.507-12.16-23.946-1.615-23.946-1.615s11.538.584,12.469,9.229v.183c1.134,11.45-15.394,16.03-21.072,5.92a12.342,12.342,0,0,0-1.832-2.53c-6.467-6.87-13.441-.882-13.441-.882s6.477.355,7,5.221a2.416,2.416,0,0,0,.051.6c.81,13.362-20.07,15.583-22.863,2.473-1.326-6.252-2.287-13.282-7.317-18.595-11.507-12.16-23.936-1.614-23.936-1.614s11.528.584,12.459,9.229v.183c1.134,11.37-15.283,15.95-20.95,5.851a12.535,12.535,0,0,0-1.8-2.462c-6.467-6.87-13.279-.882-13.279-.882s6.477.355,7,5.221a11.737,11.737,0,0,1-2.024,8.084c-5.658,7.958-18.865,5.175-20.95-4.191-1.427-6.446-2.247-13.877-7.5-19.465-11.507-12.16-23.936-1.614-23.936-1.614s11.528.584,12.459,9.229c.719,6.652-1.012,18.32-17.1,23.358H.005v2.427H-.43l.081,8.793H.005V4498.156H4048.37V601.773Z" transform="translate(-23.97 -111.156)" fill="url(#linear-gradient)"/>
    <g id="XMLID_54_" transform="translate(3380.345 127.565)">
      <path id="XMLID_57_" d="M186,45.682a1.431,1.431,0,0,0,1.592-.828A31.432,31.432,0,0,1,241.552,39a31.446,31.446,0,0,1,53.983,5.864,1.449,1.449,0,0,0,2.767-.545c0-.315.011-.634.011-.949a31.473,31.473,0,0,0-56.761-18.757,31.459,31.459,0,0,0-56.74,18.757c0,.315,0,.629.011.938A1.444,1.444,0,0,0,186,45.682Z" transform="translate(-184.813 -11.877)" fill="#b4deff"/>
    </g>
    <g id="XMLID_54_2" data-name="XMLID_54_" transform="translate(3047.704 205.966)">
      <path id="XMLID_57_2" data-name="XMLID_57_" d="M185.611,34.665a.965.965,0,0,0,1.073-.558A21.188,21.188,0,0,1,223.06,30.16a21.2,21.2,0,0,1,36.389,3.953.977.977,0,0,0,1.865-.367c0-.212.008-.428.008-.64a21.215,21.215,0,0,0-38.262-12.644,21.206,21.206,0,0,0-38.248,12.644c0,.212,0,.424.007.632A.973.973,0,0,0,185.611,34.665Z" transform="translate(-184.813 -11.877)" fill="#b4deff"/>
    </g>
    <g id="XMLID_54_3" data-name="XMLID_54_" transform="translate(548.345 322.565)">
      <path id="XMLID_57_3" data-name="XMLID_57_" d="M186,45.682a1.431,1.431,0,0,0,1.592-.828A31.432,31.432,0,0,1,241.552,39a31.446,31.446,0,0,1,53.983,5.864,1.449,1.449,0,0,0,2.767-.545c0-.315.011-.634.011-.949a31.473,31.473,0,0,0-56.761-18.757,31.459,31.459,0,0,0-56.74,18.757c0,.315,0,.629.011.938A1.444,1.444,0,0,0,186,45.682Z" transform="translate(-184.813 -11.877)" fill="#b4deff"/>
    </g>
    <g id="XMLID_54_4" data-name="XMLID_54_" transform="translate(370.704 369.966)">
      <path id="XMLID_57_4" data-name="XMLID_57_" d="M185.611,34.665a.965.965,0,0,0,1.073-.558A21.188,21.188,0,0,1,223.06,30.16a21.2,21.2,0,0,1,36.389,3.953.977.977,0,0,0,1.865-.367c0-.212.008-.428.008-.64a21.215,21.215,0,0,0-38.262-12.644,21.206,21.206,0,0,0-38.248,12.644c0,.212,0,.424.007.632A.973.973,0,0,0,185.611,34.665Z" transform="translate(-184.813 -11.877)" fill="#b4deff"/>
    </g>
  </g>
</svg>
