<?xml version="1.0" encoding="UTF-8" standalone="no"?>
<!DOCTYPE svg PUBLIC "-//W3C//DTD SVG 1.1//EN" "http://www.w3.org/Graphics/SVG/1.1/DTD/svg11.dtd">
<svg width="100%" height="100%" viewBox="0 0 800 310" version="1.1" xmlns="http://www.w3.org/2000/svg" xmlns:xlink="http://www.w3.org/1999/xlink" xml:space="preserve" xmlns:serif="http://www.serif.com/" style="fill-rule:evenodd;clip-rule:evenodd;stroke-linecap:round;stroke-miterlimit:2;">
    <g transform="matrix(1,0,0,1,-1265,-914)">
        <g id="Artboard1" transform="matrix(1.27002,0,0,0.492132,1619.42,982.406)">
            <rect x="-279.07" y="-139" width="629.912" height="629.912" style="fill:none;"/>
            <clipPath id="_clip1">
                <rect x="-279.07" y="-139" width="629.912" height="629.912"/>
            </clipPath>
            <g clip-path="url(#_clip1)">
                <g transform="matrix(0.668945,0,0,1.58215,96.1554,-288.902)">
                    <g transform="matrix(0.22598,0.920213,-0.843369,0.24657,126.264,12.14)">
                        <circle cx="304" cy="338" r="214" style="fill:url(#_Linear2);"/>
                    </g>
                    <g transform="matrix(3.04849,0,0,3.28144,-696.588,-457.952)">
                        <path d="M223.101,192.146C224.055,188.3 225.963,178.101 213.098,178.098C200.232,178.095 203.249,183.112 197.69,179.098C192.132,175.084 188.32,173.411 184.984,176.921C181.648,180.432 186.093,187.456 183.711,187.455C181.328,187.455 179.9,183.775 176.405,187.453C172.909,191.131 178.23,192.888 176.403,194.811C174.618,196.689 172.88,206.428 179.542,211.53C179.715,211.492 179.88,211.439 180.065,211.423C179.88,207.492 180.197,203.565 181.184,200.112C184.321,189.148 190.445,183.488 200.413,183.533C207.647,183.564 213.172,188.076 215.927,194.838C216.811,197.008 217.223,199.371 217.405,201.724C217.682,205.32 217.65,208.549 217.433,211.473C218.116,211.575 218.689,211.863 219.182,212.238C219.619,212.15 219.918,212.055 220.016,211.952C221.366,210.531 226.116,206.191 226.117,201.844C226.118,197.497 222.148,195.991 223.101,192.146Z" style="fill:rgb(34,25,27);fill-rule:nonzero;"/>
                        <path d="M220.969,213.005C220.565,211.61 219.414,210.521 217.777,210.288C218.008,207.317 218.031,204.017 217.693,200.317C217.488,198.079 216.961,195.863 216.02,193.822C213.17,187.644 206.785,183.53 199.695,183.53C190.614,183.53 184.395,188.907 181.233,199.408C180.374,202.263 180.018,205.456 180.057,208.698C180.067,209.53 179.532,210.236 178.772,210.572C178.091,210.874 177.544,211.352 177.156,211.933C175.572,214.301 177.45,217.506 180.291,217.717C180.563,217.738 180.857,217.76 181.157,217.782C182.305,222.759 184.253,227.148 186.61,229.701L185.966,260.671C193.133,268.838 205.277,269.4 212.359,260.938L211.396,229.701C211.416,229.664 214.936,224.68 216.61,217.778L217.498,217.713C219.964,217.533 221.657,215.38 220.969,213.005Z" style="fill:white;fill-rule:nonzero;"/>
                        <path d="M220.969,213.005C220.565,211.61 219.414,210.521 217.777,210.288C218.008,207.317 218.031,204.017 217.693,200.317C217.488,198.079 216.961,195.863 216.02,193.822C213.17,187.644 206.785,183.53 199.695,183.53C190.614,183.53 184.395,188.907 181.233,199.408C180.374,202.263 180.018,205.456 180.057,208.698C180.067,209.53 179.532,210.236 178.772,210.572C178.091,210.874 177.544,211.352 177.156,211.933C175.572,214.301 177.45,217.506 180.291,217.717C180.563,217.738 180.857,217.76 181.157,217.782C182.305,222.759 184.253,227.148 186.61,229.701L185.966,260.671C193.133,268.838 205.277,269.4 212.359,260.938L211.396,229.701C211.416,229.664 214.936,224.68 216.61,217.778L217.498,217.713C219.964,217.533 221.657,215.38 220.969,213.005Z" style="fill:none;stroke:rgb(34,25,27);stroke-width:0.75px;"/>
                        <path d="M211.122,229.648C204.239,236.282 196.926,234.45 193.141,233.307C189.04,232.068 186.379,229.091 186.379,229.091L186.379,236.422L186.551,236.467C189.079,237.132 191.439,237.413 193.627,237.413C203.287,237.412 209.364,231.939 211.318,229.941L212.095,228.818C212.095,228.818 212.029,228.329 211.819,228.633C211.335,229.333 211.21,229.563 211.122,229.648Z" style="fill:rgb(34,25,27);fill-rule:nonzero;"/>
                        <path d="M180.662,215.517C180.476,215.072 180.295,214.625 180.055,214.247C179.822,213.866 179.532,213.561 179.207,213.486C178.897,213.412 178.369,213.539 178.266,213.757C178.139,214.026 178.346,214.548 178.577,214.944C178.604,214.985 178.592,215.04 178.551,215.067C178.519,215.088 178.475,215.083 178.446,215.061C178.243,214.895 178.077,214.7 177.932,214.469C177.796,214.24 177.679,213.943 177.764,213.591C177.864,213.231 178.182,213.012 178.449,212.91C178.712,212.799 179.031,212.744 179.349,212.805C180.013,212.939 180.406,213.482 180.617,213.955C180.822,214.454 180.928,214.958 180.909,215.481C180.907,215.55 180.848,215.606 180.778,215.603C180.727,215.601 180.684,215.569 180.666,215.525L180.662,215.517Z" style="fill:rgb(32,29,34);fill-rule:nonzero;"/>
                        <path d="M216.738,215.481C216.72,214.958 216.825,214.454 217.031,213.955C217.241,213.482 217.635,212.939 218.299,212.805C218.617,212.744 218.935,212.799 219.198,212.91C219.466,213.012 219.783,213.231 219.884,213.591C219.968,213.943 219.852,214.24 219.716,214.469C219.571,214.7 219.405,214.895 219.202,215.061C219.164,215.092 219.108,215.086 219.076,215.049C219.052,215.019 219.053,214.975 219.071,214.944C219.301,214.548 219.509,214.026 219.381,213.757C219.279,213.539 218.75,213.412 218.441,213.486C218.115,213.561 217.825,213.865 217.592,214.247C217.353,214.625 217.171,215.072 216.986,215.517L216.982,215.525C216.955,215.59 216.881,215.62 216.816,215.593C216.769,215.573 216.74,215.528 216.738,215.481Z" style="fill:rgb(32,29,34);fill-rule:nonzero;"/>
                        <path d="M209.905,230.731C209.905,230.731 211.139,229.836 211.939,228.432L211.318,229.941L209.905,230.731Z" style="fill:rgb(34,25,27);fill-rule:nonzero;"/>
                        <path d="M191.717,207.565C191.717,208.388 191.223,209.055 190.613,209.055C190.003,209.055 189.509,208.387 189.51,207.564C189.51,206.741 190.004,206.074 190.614,206.074C191.223,206.074 191.718,206.742 191.717,207.565Z" style="fill:rgb(34,25,27);fill-rule:nonzero;"/>
                        <path d="M207.619,207.568C207.618,208.391 207.124,209.058 206.514,209.058C205.905,209.058 205.411,208.391 205.411,207.567C205.411,206.745 205.906,206.078 206.515,206.078C207.125,206.078 207.619,206.745 207.619,207.568Z" style="fill:rgb(34,25,27);fill-rule:nonzero;"/>
                        <path d="M185.457,200.672C186.962,199.05 188.975,197.668 191.34,197.536C192.518,197.491 193.692,197.854 194.668,198.498C195.655,199.127 196.472,200.018 197.018,201.068C197.289,201.593 197.482,202.169 197.557,202.769C197.63,203.345 197.645,203.906 197.667,204.47C197.702,205.596 197.708,206.717 197.703,207.838C197.706,210.081 197.586,212.319 197.472,214.557L197.318,214.398C198.419,214.449 199.52,214.482 200.621,214.553C199.52,214.623 198.419,214.656 197.318,214.707L197.165,214.714L197.164,214.548L197.09,207.841C197.076,206.725 197.051,205.608 196.997,204.498C196.971,203.944 196.927,203.386 196.877,202.851C196.823,202.339 196.664,201.833 196.43,201.361C195.492,199.48 193.483,198.062 191.347,198.015C190.275,198.002 189.204,198.338 188.212,198.811C187.216,199.288 186.297,199.932 185.457,200.672Z" style="fill:rgb(34,25,27);fill-rule:nonzero;"/>
                        <path d="M213.941,200.672C213.099,200.031 212.149,199.621 211.176,199.335C210.199,199.062 209.187,198.92 208.176,198.92C206.157,198.914 204.111,199.4 202.421,200.672C203.069,199.833 203.993,199.197 205.001,198.806C206.008,198.402 207.097,198.231 208.178,198.229C209.26,198.243 210.344,198.426 211.35,198.826C212.354,199.215 213.287,199.837 213.941,200.672Z" style="fill:rgb(34,25,27);fill-rule:nonzero;"/>
                        <path d="M193.572,219.829C194.356,220.487 195.211,221.03 196.089,221.473C196.974,221.9 197.916,222.193 198.866,222.22C199.811,222.26 200.774,222.053 201.627,221.579C202.086,221.4 202.455,221.058 202.884,220.799C203.289,220.504 203.641,220.143 204.055,219.829C203.761,220.244 203.45,220.66 203.11,221.053C202.717,221.387 202.372,221.804 201.896,222.048C201.026,222.661 199.917,222.947 198.841,222.911C197.758,222.866 196.717,222.499 195.829,221.943C194.938,221.389 194.162,220.67 193.572,219.829Z" style="fill:rgb(34,25,27);fill-rule:nonzero;"/>
                        <path d="M188.524,188.721C189.445,186.298 192.478,185.459 194.488,187.098C197.698,189.716 202.387,192.761 206.515,192.419C213.631,191.829 214.756,189.723 213.941,194.189C213.125,198.655 215.485,199.161 216.412,203.037C217.339,206.914 215.096,212.229 217.777,210.288C220.457,208.346 222.901,191.492 214.726,187.194C206.552,182.897 198.887,179.978 190.614,183.53C182.34,187.083 176.293,202.414 178.772,210.572C178.772,210.572 180.915,211.023 181.556,207.199C182.198,203.374 179.384,199.25 184.037,196.32C186.319,194.885 186.873,193.066 188.524,188.721Z" style="fill:rgb(34,25,27);fill-rule:nonzero;"/>
                        <path d="M211.715,249.22C200.126,254.536 186.162,249.277 186.014,249.221C171.475,252.264 158.349,260.599 156.855,275.011L156.847,297.015L240.539,297.015L241.049,275.759C239.825,261.007 226.521,252.341 211.715,249.22Z" style="fill:white;fill-rule:nonzero;"/>
                        <clipPath id="_clip3">
                            <path d="M211.715,249.22C200.126,254.536 186.162,249.277 186.014,249.221C171.475,252.264 158.349,260.599 156.855,275.011L156.847,297.015L240.539,297.015L241.049,275.759C239.825,261.007 226.521,252.341 211.715,249.22Z" clip-rule="nonzero"/>
                        </clipPath>
                        <g clip-path="url(#_clip3)">
                            <path d="M259.151,264.41C258.783,262.65 258.395,260.84 257.386,259.353C256.376,257.865 254.579,256.763 252.816,257.115C250.862,257.506 249.601,259.548 249.409,261.531C249.217,263.514 249.84,265.473 250.371,267.394C251.438,271.246 252.042,275.757 249.587,278.911C248.482,280.331 246.892,281.271 245.477,282.381C242.109,285.021 239.627,288.772 238.515,292.904C237.999,294.819 238.054,297.367 239.859,298.19C240.698,298.573 241.676,298.436 242.572,298.218C247.861,296.933 252.413,292.93 254.363,287.848C254.866,286.537 255.206,285.162 255.806,283.893C256.592,282.228 257.797,280.8 259.047,279.447C261.143,277.179 263.531,274.807 263.874,271.737C264.266,268.231 261.863,265.093 259.599,262.387" style="fill:rgb(34,31,38);fill-rule:nonzero;"/>
                            <path d="M224.932,261.716C223.088,265.186 223.856,269.847 226.715,272.542C229.049,274.742 232.394,275.574 234.829,277.661C236.403,279.011 237.558,280.937 237.663,283.009C237.768,285.08 236.685,287.249 234.81,288.135C232.468,289.242 229.67,288.185 227.525,286.732C220.474,281.957 217.029,273.52 213.963,265.575C212.955,262.963 211.962,259.952 213.263,257.472C214.472,255.167 217.684,254.186 219.974,255.422C222.264,256.657 223.209,259.879 221.947,262.155" style="fill:rgb(34,31,38);fill-rule:nonzero;"/>
                            <path d="M204.775,255.926C204.408,254.166 204.02,252.356 203.01,250.869C202.001,249.381 200.204,248.279 198.441,248.631C196.487,249.022 195.226,251.064 195.034,253.047C194.841,255.03 195.464,256.99 195.996,258.91C197.063,262.762 197.667,267.274 195.212,270.427C194.107,271.846 192.517,272.788 191.101,273.897C187.734,276.537 185.252,280.288 184.14,284.42C183.624,286.335 183.679,288.883 185.484,289.706C186.322,290.089 187.301,289.952 188.197,289.734C193.486,288.449 198.037,284.446 199.988,279.364C200.491,278.053 200.831,276.678 201.431,275.409C202.217,273.744 203.422,272.316 204.671,270.964C206.768,268.695 209.156,266.323 209.499,263.253C209.891,259.747 207.488,256.609 205.224,253.903" style="fill:rgb(34,31,38);fill-rule:nonzero;"/>
                            <path d="M170.556,253.232C168.713,256.702 169.481,261.363 172.34,264.058C174.674,266.258 178.019,267.09 180.453,269.177C182.028,270.527 183.183,272.453 183.288,274.525C183.393,276.596 182.31,278.765 180.435,279.651C178.093,280.758 175.294,279.701 173.15,278.248C166.099,273.473 162.654,265.036 159.588,257.092C158.58,254.479 157.587,251.468 158.888,248.988C160.097,246.683 163.309,245.702 165.599,246.938C167.889,248.173 168.833,251.395 167.572,253.671" style="fill:rgb(255,192,22);fill-rule:nonzero;"/>
                            <path d="M259.151,264.41C258.783,262.65 258.395,260.84 257.386,259.352C256.376,257.865 254.579,256.763 252.816,257.115C250.862,257.506 249.601,259.548 249.409,261.531C249.217,263.515 249.84,265.473 250.371,267.394C251.438,271.246 252.042,275.758 249.587,278.911C248.482,280.33 246.892,281.271 245.477,282.381C242.109,285.021 239.627,288.772 238.515,292.904C237.999,294.819 238.054,297.367 239.859,298.19C240.698,298.573 241.676,298.436 242.572,298.218C247.861,296.933 252.413,292.93 254.363,287.848C254.866,286.537 255.206,285.162 255.806,283.893C256.592,282.228 257.797,280.8 259.047,279.447C261.143,277.179 263.531,274.807 263.874,271.737C264.266,268.231 261.863,265.093 259.599,262.387" style="fill:rgb(34,31,38);fill-rule:nonzero;"/>
                            <path d="M204.775,255.926C204.408,254.166 204.02,252.356 203.011,250.869C202.001,249.381 200.204,248.279 198.441,248.631C196.487,249.022 195.226,251.064 195.034,253.047C194.841,255.03 195.464,256.99 195.996,258.91C197.063,262.762 197.667,267.274 195.212,270.427C194.106,271.847 192.517,272.788 191.101,273.897C187.734,276.537 185.252,280.288 184.14,284.42C183.624,286.335 183.679,288.883 185.483,289.706C186.322,290.089 187.301,289.952 188.197,289.734C193.486,288.449 198.037,284.446 199.988,279.364C200.491,278.053 200.831,276.678 201.431,275.409C202.217,273.744 203.422,272.316 204.671,270.964C206.768,268.695 209.156,266.323 209.499,263.253C209.891,259.747 207.488,256.609 205.224,253.903" style="fill:rgb(255,192,22);fill-rule:nonzero;"/>
                            <path d="M224.932,261.716C223.088,265.186 223.856,269.847 226.715,272.542C229.049,274.742 232.394,275.574 234.829,277.661C236.403,279.011 237.558,280.937 237.663,283.009C237.768,285.08 236.685,287.249 234.81,288.135C232.468,289.242 229.67,288.185 227.525,286.732C220.474,281.957 217.029,273.52 213.963,265.575C212.955,262.963 211.962,259.952 213.263,257.472C214.472,255.167 217.684,254.186 219.974,255.421C222.264,256.657 223.209,259.879 221.947,262.155" style="fill:rgb(255,192,22);fill-rule:nonzero;"/>
                        </g>
                        <path d="M211.715,249.22C200.126,254.536 186.162,249.277 186.014,249.221C171.475,252.264 158.349,260.599 156.855,275.011L156.847,297.015L240.539,297.015L241.049,275.759C239.825,261.007 226.521,252.341 211.715,249.22Z" style="fill:none;stroke:rgb(34,25,27);stroke-width:0.75px;"/>
                        <path d="M177.177,279.432L177.177,296.961" style="fill:none;stroke:rgb(10,5,11);stroke-width:0.92px;"/>
                        <path d="M221.618,279.432L221.618,296.961" style="fill:none;stroke:rgb(10,5,11);stroke-width:0.92px;"/>
                    </g>
                </g>
                <g transform="matrix(0.78011,-0.27567,-0.106822,-2.01319,-364.546,1665.6)">
                    <g transform="matrix(1.28829,-2.77556e-17,0,1,-145.534,1.13687e-13)">
                        <path d="M492.102,677.569C503.535,691.429 504.546,711.204 496.258,726.874C492.355,734.253 486.73,740.63 480.155,745.74C473.156,751.181 463.959,756.763 454.771,756.185C450.186,755.896 446.092,753.825 443.615,749.898C441.382,746.355 440.565,739.928 445.483,738.155C451.362,736.036 452.544,744.454 451.807,748.46C450.949,753.125 448.125,757.355 444.6,760.449C431.215,772.192 407.32,771.408 391.528,765.893C372.576,759.272 359.73,742.945 357.905,723.028C357.63,720.022 353.184,719.907 353.139,723.028C352.811,745.993 371.616,765.17 392.526,771.557C412.138,777.546 445.77,776.384 455.102,754.133C457.986,747.255 457.855,734.105 448.063,732.793C438.649,731.532 435.217,743.1 438.31,750.106C448.693,773.629 479.608,753.825 490.577,741.519C506.687,723.442 511.023,694.88 493.619,676.052C492.667,675.021 491.237,676.522 492.102,677.569Z" style="fill:rgb(34,42,64);fill-rule:nonzero;"/>
                    </g>
                    <g transform="matrix(1,0,1.11022e-16,1,-48.6831,-7.82701)">
                        <path d="M347.822,737.318C351.112,726.999 354.349,716.662 357.439,706.28C356.211,706.604 354.982,706.93 353.755,707.254C360.456,715.671 366.276,724.704 371.238,734.248C371.926,733.051 372.613,731.854 373.3,730.656C366.53,731.097 359.786,731.977 353.211,733.686C352.855,733.778 348.735,734.631 348.707,734.984C349.638,737.031 350.235,737.293 350.502,735.77C350.829,734.884 351.155,733.998 351.482,733.112C352.789,729.569 354.096,726.025 355.402,722.481C353.731,722.256 352.061,722.029 350.39,721.804C350.235,724.747 350.081,727.69 349.928,730.633C349.752,733.977 354.647,733.808 355.026,730.633C355.714,724.879 356.694,719.185 357.926,713.523L353.017,713.523C353.709,718.115 354.401,722.707 355.094,727.299C355.556,730.362 359.802,729.218 360.088,726.623C360.714,720.938 358.156,715.767 358.066,710.141C356.46,710.576 354.854,711.011 353.247,711.446C356.915,718.021 360.762,724.488 364.518,731.013C366.01,733.606 370.661,731.864 369.506,728.91C367.537,723.877 364.752,719.506 361.158,715.479C359.796,716.841 358.433,718.204 357.069,719.567C358.788,721.41 360.386,723.313 361.782,725.418C362.39,726.339 362.963,727.281 363.501,728.245C364.181,730.345 364.637,730.182 364.869,727.756C364.014,725.703 355.79,725.58 353.866,725.55L353.866,731.833C357.325,731.875 360.784,731.897 364.243,731.919C368.462,731.944 368.193,726.038 364.243,725.543C359.193,724.91 346.342,727.307 347.071,734.587C347.217,736.044 347.976,737.264 349.438,737.696C354.771,739.272 363.899,736.638 365.929,730.959C367.413,726.807 364.465,717.807 358.806,719.482C357.764,719.791 356.772,720.646 356.537,721.751C355.579,726.242 358.316,730.197 362.009,732.497C364.759,734.209 368.171,730.795 366.462,728.045C365.006,725.703 363.363,723.577 361.461,721.578C358.854,718.838 354.613,722.325 356.342,725.527C358.859,730.19 363.423,732.082 368.125,733.968C372.025,735.532 373.729,729.211 369.862,727.666C366.78,726.435 363.635,725.311 361.971,722.237C360.265,723.554 358.558,724.871 356.852,726.188C358.379,727.788 359.669,729.448 360.842,731.329C362.326,729.846 363.81,728.361 365.294,726.877C364.479,726.371 362.532,724.75 362.802,723.479C362.045,724.234 361.289,724.99 360.532,725.747C360.011,726.684 359.573,727.657 359.22,728.668C359.065,729.947 358.294,730.632 356.906,730.721C355.424,731.496 352.718,731.932 351.153,731.478C351.942,732.514 352.731,733.55 353.521,734.587C353.453,733.943 358.082,732.28 358.515,732.163C360.455,731.634 362.275,731.681 364.243,731.919L364.243,725.543C360.784,725.538 357.325,725.534 353.866,725.55C349.824,725.568 349.816,731.839 353.866,731.833C356.313,731.829 358.653,732.055 360.992,732.81C362.56,733.314 364.054,734.244 365.714,734.422C367.659,734.63 369.577,734.12 370.458,732.174C371.54,729.781 369.824,727.26 368.651,725.234C366.583,721.663 364.014,718.445 361.158,715.479C358.566,712.785 354.555,716.837 357.069,719.567C360.239,723.009 362.561,726.783 364.518,731.013C366.088,730.095 367.659,729.177 369.23,728.258C365.178,721.916 361.425,715.381 357.713,708.835C356.461,706.626 352.834,707.57 352.894,710.141C353.022,715.739 355.623,721.018 355.003,726.623C356.668,726.397 358.332,726.172 359.997,725.947C359.307,721.354 358.616,716.762 357.926,712.17C357.549,709.659 353.528,709.826 353.017,712.17C351.685,718.279 350.671,724.426 349.928,730.633L355.026,730.633C355.183,727.69 355.338,724.747 355.493,721.804C355.654,718.759 351.423,718.575 350.481,721.125C348.818,725.629 346.131,730.589 345.248,735.297C344.881,737.253 345.041,738.978 347.127,739.82C350.074,741.01 354.396,738.615 357.294,737.915C362.565,736.641 367.891,735.822 373.3,735.431C375.126,735.299 376.246,733.511 375.361,731.839C370.138,721.966 363.968,712.758 356.872,704.136C355.789,702.819 353.594,703.624 353.188,705.108C350.329,715.552 347.617,726.033 344.961,736.529C344.49,738.388 347.243,739.134 347.822,737.318Z" style="fill:rgb(34,42,64);fill-rule:nonzero;"/>
                    </g>
                </g>
                <g transform="matrix(0.279693,0,0,0.721788,-654.701,144.883)">
                    <g transform="matrix(113.08,0,0,113.08,1414.71,190)">
                        <path d="M0.587,-0.326C0.59,-0.326 0.592,-0.317 0.592,-0.3C0.592,-0.282 0.592,-0.27 0.594,-0.264L0.259,-0.223L0.276,-0.006L0.197,-0.01C0.197,-0.068 0.191,-0.135 0.178,-0.211L0.051,-0.162C0.042,-0.162 0.035,-0.167 0.029,-0.177C0.019,-0.194 0.014,-0.209 0.014,-0.223L0.162,-0.275C0.149,-0.387 0.143,-0.478 0.143,-0.548C0.143,-0.618 0.148,-0.673 0.16,-0.712C0.172,-0.751 0.189,-0.777 0.211,-0.791C0.234,-0.804 0.258,-0.811 0.283,-0.811C0.309,-0.811 0.334,-0.805 0.361,-0.794C0.387,-0.783 0.412,-0.769 0.437,-0.752C0.461,-0.735 0.481,-0.716 0.498,-0.695C0.515,-0.674 0.523,-0.653 0.523,-0.633C0.523,-0.617 0.522,-0.606 0.519,-0.6C0.493,-0.636 0.461,-0.669 0.424,-0.697C0.38,-0.731 0.338,-0.748 0.299,-0.748C0.262,-0.748 0.237,-0.722 0.225,-0.669C0.219,-0.642 0.216,-0.603 0.216,-0.553C0.216,-0.503 0.217,-0.458 0.22,-0.417C0.222,-0.375 0.23,-0.334 0.243,-0.292C0.284,-0.292 0.329,-0.296 0.379,-0.303C0.475,-0.318 0.545,-0.326 0.587,-0.326Z" style="fill:rgb(35,31,32);fill-rule:nonzero;"/>
                    </g>
                    <g transform="matrix(113.08,0,0,113.08,1481.85,190)">
                        <path d="M0.021,-0.13C0.021,-0.14 0.021,-0.155 0.019,-0.173C0.017,-0.192 0.016,-0.212 0.015,-0.234C0.013,-0.257 0.013,-0.279 0.013,-0.302C0.013,-0.325 0.015,-0.345 0.019,-0.364C0.027,-0.407 0.045,-0.428 0.071,-0.428C0.09,-0.423 0.102,-0.416 0.108,-0.408C0.114,-0.4 0.117,-0.391 0.117,-0.379C0.117,-0.368 0.114,-0.354 0.108,-0.337C0.087,-0.28 0.076,-0.229 0.076,-0.184C0.076,-0.169 0.077,-0.153 0.079,-0.136C0.09,-0.092 0.125,-0.07 0.187,-0.07C0.218,-0.07 0.249,-0.076 0.277,-0.087C0.332,-0.107 0.369,-0.131 0.389,-0.158C0.395,-0.188 0.397,-0.214 0.397,-0.237C0.397,-0.259 0.397,-0.279 0.395,-0.297C0.393,-0.314 0.391,-0.334 0.389,-0.355C0.387,-0.376 0.385,-0.399 0.385,-0.425C0.393,-0.429 0.402,-0.431 0.41,-0.431C0.418,-0.431 0.426,-0.426 0.435,-0.418C0.444,-0.41 0.451,-0.394 0.458,-0.37C0.464,-0.347 0.468,-0.319 0.47,-0.288C0.472,-0.256 0.473,-0.223 0.473,-0.189C0.473,-0.156 0.474,-0.123 0.474,-0.091C0.474,-0.06 0.475,-0.033 0.478,-0.01C0.47,-0.003 0.462,0.001 0.455,0.001C0.429,0.001 0.41,-0.025 0.397,-0.077C0.389,-0.07 0.375,-0.061 0.354,-0.051C0.312,-0.027 0.261,-0.012 0.202,-0.004C0.191,-0.003 0.179,-0.002 0.165,-0.002C0.151,-0.002 0.134,-0.005 0.114,-0.01C0.093,-0.015 0.074,-0.027 0.056,-0.046C0.037,-0.065 0.026,-0.093 0.021,-0.13Z" style="fill:rgb(35,31,32);fill-rule:nonzero;"/>
                    </g>
                    <g transform="matrix(113.08,0,0,113.08,1539.28,190)">
                        <path d="M0.044,-0.379C0.043,-0.414 0.041,-0.445 0.04,-0.473C0.039,-0.501 0.038,-0.521 0.038,-0.535C0.037,-0.548 0.032,-0.581 0.021,-0.633C0.027,-0.641 0.033,-0.648 0.039,-0.655C0.044,-0.662 0.052,-0.666 0.063,-0.666C0.085,-0.666 0.103,-0.57 0.115,-0.378C0.122,-0.267 0.125,-0.155 0.125,-0.044C0.125,-0.014 0.104,0.001 0.063,0.001L0.055,-0C0.055,-0.034 0.054,-0.077 0.052,-0.13C0.05,-0.183 0.048,-0.229 0.047,-0.268C0.046,-0.307 0.045,-0.344 0.044,-0.379Z" style="fill:rgb(35,31,32);fill-rule:nonzero;"/>
                    </g>
                    <g transform="matrix(113.08,0,0,113.08,1557.06,190)">
                        <path d="M0.044,-0.379C0.043,-0.414 0.041,-0.445 0.04,-0.473C0.039,-0.501 0.038,-0.521 0.038,-0.535C0.037,-0.548 0.032,-0.581 0.021,-0.633C0.027,-0.641 0.033,-0.648 0.039,-0.655C0.044,-0.662 0.052,-0.666 0.063,-0.666C0.085,-0.666 0.103,-0.57 0.115,-0.378C0.122,-0.267 0.125,-0.155 0.125,-0.044C0.125,-0.014 0.104,0.001 0.063,0.001L0.055,-0C0.055,-0.034 0.054,-0.077 0.052,-0.13C0.05,-0.183 0.048,-0.229 0.047,-0.268C0.046,-0.307 0.045,-0.344 0.044,-0.379Z" style="fill:rgb(35,31,32);fill-rule:nonzero;"/>
                    </g>
                    <g transform="matrix(113.08,0,0,113.08,1620.11,190)">
                        <path d="M0.36,-0.252C0.432,-0.252 0.468,-0.234 0.468,-0.197C0.468,-0.17 0.448,-0.138 0.408,-0.102C0.349,-0.048 0.269,-0.004 0.169,0.028C0.164,0.028 0.159,0.024 0.154,0.015C0.148,0.006 0.144,-0.001 0.141,-0.006C0.138,-0.011 0.136,-0.014 0.135,-0.016C0.21,-0.04 0.271,-0.07 0.319,-0.105C0.352,-0.129 0.368,-0.148 0.368,-0.163C0.368,-0.178 0.349,-0.186 0.311,-0.186C0.272,-0.186 0.216,-0.176 0.142,-0.158C0.108,-0.16 0.078,-0.172 0.054,-0.194C0.032,-0.215 0.021,-0.235 0.021,-0.255C0.021,-0.276 0.027,-0.295 0.039,-0.312C0.051,-0.329 0.066,-0.345 0.086,-0.36C0.105,-0.375 0.128,-0.389 0.154,-0.401C0.218,-0.432 0.284,-0.447 0.353,-0.447C0.373,-0.447 0.392,-0.445 0.411,-0.441C0.427,-0.441 0.436,-0.435 0.438,-0.421C0.441,-0.407 0.442,-0.385 0.442,-0.354C0.404,-0.371 0.361,-0.38 0.313,-0.38C0.253,-0.38 0.203,-0.368 0.164,-0.344C0.124,-0.32 0.103,-0.29 0.102,-0.252C0.102,-0.234 0.115,-0.225 0.142,-0.225L0.213,-0.232C0.274,-0.245 0.323,-0.252 0.36,-0.252Z" style="fill:rgb(35,31,32);fill-rule:nonzero;"/>
                    </g>
                    <g transform="matrix(113.08,0,0,113.08,1676.87,190)">
                        <path d="M0.174,-0.094L0.176,-0.25C0.176,-0.275 0.174,-0.296 0.169,-0.313L0.018,-0.313L0.016,-0.381L0.162,-0.381L0.162,-0.633C0.164,-0.639 0.168,-0.645 0.174,-0.65C0.183,-0.66 0.191,-0.664 0.197,-0.664C0.203,-0.664 0.208,-0.663 0.213,-0.662C0.217,-0.661 0.222,-0.656 0.228,-0.648C0.238,-0.605 0.243,-0.541 0.243,-0.454C0.243,-0.433 0.244,-0.411 0.246,-0.391C0.267,-0.393 0.288,-0.395 0.309,-0.395L0.359,-0.395C0.372,-0.395 0.383,-0.395 0.394,-0.396L0.391,-0.326L0.248,-0.33L0.253,0.007C0.241,0.012 0.231,0.015 0.223,0.015C0.19,0.015 0.174,-0.021 0.174,-0.094Z" style="fill:rgb(35,31,32);fill-rule:nonzero;"/>
                    </g>
                    <g transform="matrix(113.08,0,0,113.08,1722.59,190)">
                        <path d="M0.41,-0.162C0.361,-0.085 0.296,-0.038 0.215,-0.02C0.196,-0.016 0.179,-0.014 0.164,-0.014C0.148,-0.014 0.136,-0.014 0.125,-0.014C0.115,-0.014 0.104,-0.016 0.092,-0.019C0.079,-0.021 0.068,-0.025 0.058,-0.031C0.034,-0.045 0.021,-0.064 0.021,-0.089C0.019,-0.101 0.018,-0.114 0.018,-0.128C0.018,-0.143 0.021,-0.162 0.027,-0.187C0.034,-0.211 0.046,-0.237 0.063,-0.265C0.08,-0.293 0.101,-0.318 0.126,-0.342C0.177,-0.391 0.233,-0.423 0.293,-0.438C0.311,-0.441 0.327,-0.443 0.341,-0.443C0.356,-0.443 0.369,-0.442 0.381,-0.44C0.419,-0.44 0.444,-0.415 0.457,-0.363C0.465,-0.331 0.471,-0.285 0.472,-0.227C0.474,-0.169 0.475,-0.124 0.477,-0.092C0.479,-0.061 0.483,-0.032 0.489,-0.006L0.432,-0.006C0.429,-0.023 0.427,-0.039 0.426,-0.053C0.424,-0.066 0.423,-0.079 0.422,-0.091C0.419,-0.118 0.415,-0.142 0.41,-0.162ZM0.406,-0.313C0.406,-0.351 0.388,-0.37 0.351,-0.37C0.346,-0.371 0.341,-0.371 0.337,-0.371C0.289,-0.371 0.239,-0.348 0.187,-0.303C0.162,-0.282 0.141,-0.258 0.123,-0.232C0.097,-0.195 0.084,-0.162 0.084,-0.133C0.084,-0.094 0.106,-0.072 0.15,-0.064C0.209,-0.066 0.265,-0.092 0.318,-0.145C0.341,-0.167 0.36,-0.192 0.375,-0.219C0.396,-0.255 0.406,-0.286 0.406,-0.313Z" style="fill:rgb(35,31,32);fill-rule:nonzero;"/>
                    </g>
                    <g transform="matrix(113.08,0,0,113.08,1780.12,190)">
                        <path d="M0.421,-0.103C0.448,-0.114 0.474,-0.124 0.499,-0.133C0.524,-0.142 0.549,-0.146 0.572,-0.146C0.595,-0.146 0.606,-0.139 0.606,-0.125C0.606,-0.122 0.606,-0.117 0.604,-0.11C0.602,-0.103 0.594,-0.095 0.578,-0.085C0.562,-0.076 0.542,-0.067 0.519,-0.059C0.496,-0.05 0.471,-0.042 0.443,-0.035C0.416,-0.028 0.389,-0.022 0.363,-0.017C0.309,-0.006 0.271,-0 0.248,-0C0.225,-0 0.201,-0.003 0.174,-0.008C0.148,-0.013 0.123,-0.021 0.101,-0.033C0.048,-0.061 0.021,-0.101 0.021,-0.154L0.021,-0.178C0.021,-0.189 0.026,-0.206 0.036,-0.228C0.046,-0.25 0.061,-0.272 0.08,-0.293C0.1,-0.315 0.122,-0.335 0.148,-0.354C0.203,-0.393 0.26,-0.418 0.32,-0.43C0.341,-0.434 0.359,-0.437 0.373,-0.437C0.387,-0.437 0.398,-0.436 0.407,-0.436C0.416,-0.436 0.426,-0.435 0.436,-0.434C0.445,-0.433 0.454,-0.431 0.461,-0.427C0.478,-0.418 0.486,-0.402 0.486,-0.377C0.486,-0.361 0.475,-0.346 0.453,-0.331C0.447,-0.327 0.442,-0.324 0.438,-0.32C0.434,-0.335 0.43,-0.348 0.425,-0.358C0.42,-0.369 0.408,-0.374 0.391,-0.374C0.314,-0.358 0.248,-0.333 0.192,-0.301C0.13,-0.264 0.099,-0.225 0.099,-0.184C0.099,-0.179 0.099,-0.174 0.1,-0.169C0.1,-0.127 0.116,-0.098 0.147,-0.08C0.172,-0.067 0.203,-0.061 0.241,-0.061C0.279,-0.061 0.312,-0.065 0.34,-0.074C0.368,-0.083 0.395,-0.092 0.421,-0.103Z" style="fill:rgb(35,31,32);fill-rule:nonzero;"/>
                    </g>
                    <g transform="matrix(113.08,0,0,113.08,1851.68,190)">
                        <path d="M0.123,-0.178L0.128,-0.093C0.128,-0.041 0.116,-0.009 0.091,0.002C0.086,0.004 0.079,0.005 0.072,0.005C0.065,0.005 0.057,0.003 0.047,-0L0.048,-0.365C0.048,-0.418 0.045,-0.471 0.039,-0.524C0.032,-0.577 0.029,-0.63 0.029,-0.683C0.029,-0.703 0.04,-0.714 0.063,-0.714L0.07,-0.714C0.075,-0.714 0.078,-0.714 0.079,-0.713C0.089,-0.673 0.095,-0.624 0.099,-0.566C0.106,-0.439 0.112,-0.354 0.118,-0.311C0.129,-0.316 0.154,-0.333 0.192,-0.36C0.231,-0.388 0.262,-0.41 0.285,-0.426C0.309,-0.443 0.331,-0.458 0.352,-0.473C0.4,-0.505 0.431,-0.521 0.443,-0.521C0.454,-0.521 0.462,-0.514 0.468,-0.502C0.435,-0.461 0.383,-0.415 0.311,-0.365C0.281,-0.345 0.252,-0.325 0.223,-0.305C0.194,-0.285 0.168,-0.265 0.144,-0.243C0.187,-0.231 0.229,-0.219 0.268,-0.207C0.307,-0.194 0.344,-0.182 0.381,-0.172C0.465,-0.147 0.537,-0.133 0.598,-0.13C0.598,-0.112 0.596,-0.101 0.593,-0.096C0.587,-0.087 0.575,-0.081 0.557,-0.08L0.549,-0.08C0.509,-0.091 0.456,-0.104 0.391,-0.117C0.261,-0.144 0.172,-0.164 0.123,-0.178Z" style="fill:rgb(35,31,32);fill-rule:nonzero;"/>
                    </g>
                    <g transform="matrix(113.08,0,0,113.08,1414.27,303.08)">
                        <path d="M0.488,-0.784C0.488,-0.722 0.486,-0.661 0.483,-0.601C0.479,-0.542 0.476,-0.483 0.473,-0.426C0.47,-0.369 0.469,-0.309 0.469,-0.245C0.469,-0.181 0.473,-0.113 0.482,-0.041C0.482,-0.026 0.48,-0.015 0.474,-0.009C0.469,-0.002 0.459,0.001 0.446,0.001C0.416,0.001 0.4,-0.024 0.4,-0.075L0.4,-0.107C0.308,-0.038 0.23,-0.004 0.166,-0.004C0.141,-0.004 0.115,-0.01 0.088,-0.022C0.062,-0.035 0.037,-0.06 0.014,-0.098C0.01,-0.113 0.009,-0.129 0.009,-0.146C0.009,-0.162 0.012,-0.181 0.018,-0.205C0.024,-0.228 0.037,-0.252 0.056,-0.276C0.075,-0.301 0.099,-0.323 0.126,-0.342C0.186,-0.382 0.251,-0.402 0.32,-0.402C0.35,-0.402 0.379,-0.398 0.406,-0.389C0.406,-0.4 0.407,-0.421 0.409,-0.45C0.41,-0.479 0.412,-0.51 0.414,-0.543C0.418,-0.628 0.421,-0.678 0.422,-0.693C0.423,-0.708 0.425,-0.721 0.427,-0.732C0.43,-0.743 0.433,-0.752 0.438,-0.76C0.447,-0.776 0.464,-0.784 0.488,-0.784ZM0.08,-0.153C0.08,-0.102 0.099,-0.076 0.136,-0.076C0.142,-0.076 0.148,-0.077 0.155,-0.078C0.182,-0.078 0.215,-0.086 0.254,-0.102C0.328,-0.131 0.373,-0.156 0.39,-0.178L0.39,-0.308C0.39,-0.33 0.371,-0.342 0.334,-0.342C0.329,-0.342 0.323,-0.343 0.316,-0.343C0.308,-0.343 0.297,-0.341 0.281,-0.338C0.266,-0.335 0.248,-0.329 0.229,-0.32C0.209,-0.312 0.19,-0.301 0.171,-0.289C0.131,-0.262 0.104,-0.231 0.089,-0.195C0.083,-0.182 0.08,-0.168 0.08,-0.153Z" style="fill:rgb(35,31,32);fill-rule:nonzero;"/>
                    </g>
                    <g transform="matrix(113.08,0,0,113.08,1472.25,303.08)">
                        <path d="M0.226,-0.068C0.283,-0.068 0.369,-0.094 0.484,-0.146C0.492,-0.146 0.497,-0.144 0.502,-0.139C0.507,-0.134 0.509,-0.129 0.509,-0.122C0.483,-0.078 0.433,-0.043 0.359,-0.019C0.286,0.006 0.217,0.01 0.153,-0.006C0.081,-0.025 0.037,-0.065 0.021,-0.128C0.02,-0.14 0.02,-0.157 0.02,-0.178C0.02,-0.199 0.025,-0.226 0.036,-0.26C0.046,-0.294 0.065,-0.327 0.091,-0.357C0.117,-0.388 0.147,-0.412 0.183,-0.43C0.218,-0.447 0.255,-0.456 0.295,-0.456C0.333,-0.456 0.375,-0.443 0.422,-0.417C0.444,-0.405 0.462,-0.391 0.475,-0.375C0.488,-0.359 0.494,-0.343 0.494,-0.327C0.494,-0.323 0.494,-0.318 0.493,-0.313C0.492,-0.274 0.473,-0.249 0.436,-0.238C0.419,-0.234 0.4,-0.231 0.379,-0.231L0.238,-0.237C0.191,-0.237 0.156,-0.227 0.131,-0.207C0.117,-0.196 0.106,-0.179 0.101,-0.157C0.117,-0.098 0.159,-0.068 0.226,-0.068ZM0.399,-0.37C0.385,-0.381 0.37,-0.388 0.354,-0.393C0.339,-0.397 0.326,-0.399 0.315,-0.399C0.305,-0.399 0.288,-0.396 0.265,-0.389C0.241,-0.382 0.22,-0.375 0.202,-0.366C0.157,-0.345 0.135,-0.324 0.135,-0.301C0.187,-0.296 0.226,-0.294 0.252,-0.294C0.324,-0.294 0.373,-0.3 0.398,-0.313C0.414,-0.319 0.422,-0.327 0.422,-0.337C0.422,-0.349 0.414,-0.36 0.399,-0.37Z" style="fill:rgb(35,31,32);fill-rule:nonzero;"/>
                    </g>
                    <g transform="matrix(113.08,0,0,113.08,1533.42,303.08)">
                        <path d="M0.035,-0.378C0.034,-0.381 0.033,-0.385 0.033,-0.389C0.033,-0.393 0.035,-0.399 0.038,-0.406C0.041,-0.413 0.046,-0.42 0.052,-0.425C0.058,-0.43 0.065,-0.432 0.073,-0.432C0.08,-0.432 0.086,-0.427 0.091,-0.418L0.255,-0.113C0.26,-0.121 0.268,-0.136 0.28,-0.157C0.291,-0.178 0.304,-0.202 0.319,-0.229C0.333,-0.255 0.349,-0.283 0.365,-0.312C0.381,-0.341 0.396,-0.368 0.409,-0.392C0.44,-0.447 0.459,-0.475 0.465,-0.475C0.479,-0.475 0.488,-0.47 0.495,-0.459C0.501,-0.449 0.504,-0.442 0.504,-0.437L0.504,-0.426C0.467,-0.346 0.434,-0.273 0.403,-0.206C0.372,-0.139 0.351,-0.096 0.341,-0.076C0.331,-0.056 0.322,-0.04 0.314,-0.028C0.301,-0.008 0.287,0.002 0.274,0.002C0.261,0.002 0.246,-0.008 0.229,-0.029C0.213,-0.049 0.193,-0.077 0.172,-0.111C0.134,-0.174 0.089,-0.263 0.035,-0.378Z" style="fill:rgb(35,31,32);fill-rule:nonzero;"/>
                    </g>
                    <g transform="matrix(113.08,0,0,113.08,1592.06,303.08)">
                        <path d="M0.226,-0.068C0.283,-0.068 0.369,-0.094 0.484,-0.146C0.492,-0.146 0.497,-0.144 0.502,-0.139C0.507,-0.134 0.509,-0.129 0.509,-0.122C0.483,-0.078 0.433,-0.043 0.359,-0.019C0.286,0.006 0.217,0.01 0.153,-0.006C0.081,-0.025 0.037,-0.065 0.021,-0.128C0.02,-0.14 0.02,-0.157 0.02,-0.178C0.02,-0.199 0.025,-0.226 0.036,-0.26C0.046,-0.294 0.065,-0.327 0.091,-0.357C0.117,-0.388 0.147,-0.412 0.183,-0.43C0.218,-0.447 0.255,-0.456 0.295,-0.456C0.333,-0.456 0.375,-0.443 0.422,-0.417C0.444,-0.405 0.462,-0.391 0.475,-0.375C0.488,-0.359 0.494,-0.343 0.494,-0.327C0.494,-0.323 0.494,-0.318 0.493,-0.313C0.492,-0.274 0.473,-0.249 0.436,-0.238C0.419,-0.234 0.4,-0.231 0.379,-0.231L0.238,-0.237C0.191,-0.237 0.156,-0.227 0.131,-0.207C0.117,-0.196 0.106,-0.179 0.101,-0.157C0.117,-0.098 0.159,-0.068 0.226,-0.068ZM0.399,-0.37C0.385,-0.381 0.37,-0.388 0.354,-0.393C0.339,-0.397 0.326,-0.399 0.315,-0.399C0.305,-0.399 0.288,-0.396 0.265,-0.389C0.241,-0.382 0.22,-0.375 0.202,-0.366C0.157,-0.345 0.135,-0.324 0.135,-0.301C0.187,-0.296 0.226,-0.294 0.252,-0.294C0.324,-0.294 0.373,-0.3 0.398,-0.313C0.414,-0.319 0.422,-0.327 0.422,-0.337C0.422,-0.349 0.414,-0.36 0.399,-0.37Z" style="fill:rgb(35,31,32);fill-rule:nonzero;"/>
                    </g>
                    <g transform="matrix(113.08,0,0,113.08,1653.24,303.08)">
                        <path d="M0.044,-0.379C0.043,-0.414 0.041,-0.445 0.04,-0.473C0.039,-0.501 0.038,-0.521 0.038,-0.535C0.037,-0.548 0.032,-0.581 0.021,-0.633C0.027,-0.641 0.033,-0.648 0.039,-0.655C0.044,-0.662 0.052,-0.666 0.063,-0.666C0.085,-0.666 0.103,-0.57 0.115,-0.378C0.122,-0.267 0.125,-0.155 0.125,-0.044C0.125,-0.014 0.104,0.001 0.063,0.001L0.055,-0C0.055,-0.034 0.054,-0.077 0.052,-0.13C0.05,-0.183 0.048,-0.229 0.047,-0.268C0.046,-0.307 0.045,-0.344 0.044,-0.379Z" style="fill:rgb(35,31,32);fill-rule:nonzero;"/>
                    </g>
                    <g transform="matrix(113.08,0,0,113.08,1671.02,303.08)">
                        <path d="M0.051,-0.186C0.051,-0.262 0.084,-0.324 0.15,-0.371C0.203,-0.408 0.267,-0.431 0.341,-0.438L0.368,-0.438C0.382,-0.438 0.402,-0.434 0.426,-0.426C0.479,-0.408 0.516,-0.375 0.535,-0.329C0.543,-0.311 0.547,-0.295 0.547,-0.283C0.547,-0.27 0.547,-0.261 0.546,-0.256C0.546,-0.174 0.515,-0.11 0.453,-0.063C0.396,-0.021 0.324,0.001 0.238,0.001C0.176,0.001 0.13,-0.013 0.098,-0.042C0.067,-0.071 0.051,-0.118 0.051,-0.186ZM0.118,-0.162C0.118,-0.122 0.129,-0.094 0.15,-0.08C0.167,-0.07 0.194,-0.064 0.232,-0.064C0.271,-0.064 0.305,-0.067 0.334,-0.073C0.363,-0.079 0.389,-0.089 0.412,-0.104C0.461,-0.135 0.485,-0.183 0.485,-0.249C0.485,-0.288 0.475,-0.32 0.454,-0.345C0.431,-0.371 0.401,-0.385 0.364,-0.385C0.339,-0.38 0.313,-0.375 0.288,-0.37C0.262,-0.365 0.238,-0.355 0.215,-0.34C0.165,-0.308 0.133,-0.249 0.118,-0.162Z" style="fill:rgb(35,31,32);fill-rule:nonzero;"/>
                    </g>
                    <g transform="matrix(113.08,0,0,113.08,1734.63,303.08)">
                        <path d="M0.12,-0.392C0.209,-0.422 0.285,-0.438 0.35,-0.438C0.432,-0.438 0.486,-0.416 0.514,-0.373C0.526,-0.353 0.532,-0.331 0.532,-0.308C0.532,-0.275 0.522,-0.242 0.501,-0.207C0.481,-0.173 0.454,-0.141 0.42,-0.113C0.341,-0.049 0.245,-0.009 0.133,0.007C0.133,0.014 0.133,0.026 0.133,0.042C0.134,0.057 0.134,0.075 0.134,0.095C0.135,0.114 0.135,0.135 0.135,0.157C0.136,0.179 0.136,0.201 0.137,0.221C0.139,0.271 0.14,0.299 0.141,0.307C0.142,0.314 0.143,0.32 0.143,0.324C0.143,0.34 0.137,0.353 0.127,0.361C0.117,0.369 0.103,0.373 0.086,0.373L0.076,0.373L0.061,-0.412C0.066,-0.421 0.074,-0.424 0.084,-0.424C0.094,-0.423 0.102,-0.421 0.107,-0.416C0.113,-0.411 0.118,-0.403 0.12,-0.392ZM0.405,-0.357C0.384,-0.368 0.361,-0.374 0.336,-0.374C0.312,-0.374 0.288,-0.372 0.264,-0.367C0.209,-0.357 0.169,-0.334 0.143,-0.298C0.131,-0.281 0.125,-0.26 0.125,-0.235L0.125,-0.059C0.259,-0.089 0.354,-0.13 0.41,-0.184C0.443,-0.214 0.459,-0.246 0.459,-0.278C0.459,-0.313 0.441,-0.339 0.405,-0.357Z" style="fill:rgb(35,31,32);fill-rule:nonzero;"/>
                    </g>
                    <g transform="matrix(113.08,0,0,113.08,1797.57,303.08)">
                        <path d="M0.226,-0.068C0.283,-0.068 0.369,-0.094 0.484,-0.146C0.492,-0.146 0.497,-0.144 0.502,-0.139C0.507,-0.134 0.509,-0.129 0.509,-0.122C0.483,-0.078 0.433,-0.043 0.359,-0.019C0.286,0.006 0.217,0.01 0.153,-0.006C0.081,-0.025 0.037,-0.065 0.021,-0.128C0.02,-0.14 0.02,-0.157 0.02,-0.178C0.02,-0.199 0.025,-0.226 0.036,-0.26C0.046,-0.294 0.065,-0.327 0.091,-0.357C0.117,-0.388 0.147,-0.412 0.183,-0.43C0.218,-0.447 0.255,-0.456 0.295,-0.456C0.333,-0.456 0.375,-0.443 0.422,-0.417C0.444,-0.405 0.462,-0.391 0.475,-0.375C0.488,-0.359 0.494,-0.343 0.494,-0.327C0.494,-0.323 0.494,-0.318 0.493,-0.313C0.492,-0.274 0.473,-0.249 0.436,-0.238C0.419,-0.234 0.4,-0.231 0.379,-0.231L0.238,-0.237C0.191,-0.237 0.156,-0.227 0.131,-0.207C0.117,-0.196 0.106,-0.179 0.101,-0.157C0.117,-0.098 0.159,-0.068 0.226,-0.068ZM0.399,-0.37C0.385,-0.381 0.37,-0.388 0.354,-0.393C0.339,-0.397 0.326,-0.399 0.315,-0.399C0.305,-0.399 0.288,-0.396 0.265,-0.389C0.241,-0.382 0.22,-0.375 0.202,-0.366C0.157,-0.345 0.135,-0.324 0.135,-0.301C0.187,-0.296 0.226,-0.294 0.252,-0.294C0.324,-0.294 0.373,-0.3 0.398,-0.313C0.414,-0.319 0.422,-0.327 0.422,-0.337C0.422,-0.349 0.414,-0.36 0.399,-0.37Z" style="fill:rgb(35,31,32);fill-rule:nonzero;"/>
                    </g>
                    <g transform="matrix(113.08,0,0,113.08,1858.75,303.08)">
                        <path d="M0.506,-0.356C0.479,-0.376 0.443,-0.386 0.4,-0.386C0.36,-0.386 0.323,-0.378 0.288,-0.363C0.223,-0.336 0.178,-0.301 0.154,-0.258C0.144,-0.238 0.139,-0.217 0.139,-0.195L0.139,-0.163C0.139,-0.145 0.142,-0.121 0.148,-0.09C0.155,-0.06 0.158,-0.029 0.158,0.002C0.145,0.003 0.133,0.004 0.125,0.007C0.117,0.009 0.109,0.011 0.104,0.011C0.098,0.011 0.093,0.008 0.088,0.003C0.084,-0.002 0.079,-0.012 0.074,-0.027C0.074,-0.031 0.072,-0.042 0.07,-0.061C0.068,-0.079 0.066,-0.101 0.063,-0.127C0.06,-0.153 0.057,-0.181 0.053,-0.212C0.05,-0.243 0.046,-0.274 0.043,-0.304C0.036,-0.369 0.03,-0.417 0.026,-0.447C0.026,-0.463 0.038,-0.471 0.061,-0.471C0.074,-0.471 0.085,-0.465 0.093,-0.454C0.101,-0.442 0.107,-0.429 0.111,-0.415C0.116,-0.4 0.119,-0.385 0.121,-0.371C0.122,-0.357 0.124,-0.347 0.125,-0.341C0.211,-0.418 0.318,-0.456 0.445,-0.456C0.46,-0.456 0.475,-0.456 0.49,-0.455C0.494,-0.456 0.499,-0.456 0.505,-0.456C0.511,-0.456 0.517,-0.452 0.522,-0.444C0.53,-0.435 0.533,-0.424 0.533,-0.411C0.533,-0.379 0.524,-0.36 0.506,-0.356Z" style="fill:rgb(35,31,32);fill-rule:nonzero;"/>
                    </g>
                </g>
            </g>
        </g>
    </g>
    <defs>
        <linearGradient id="_Linear2" x1="0" y1="0" x2="1" y2="0" gradientUnits="userSpaceOnUse" gradientTransform="matrix(457.428,-24.3836,24.3836,457.428,193.623,369.11)"><stop offset="0" style="stop-color:rgb(33,41,63);stop-opacity:1"/><stop offset="1" style="stop-color:rgb(34,75,102);stop-opacity:1"/></linearGradient>
    </defs>
</svg>
