<svg xmlns="http://www.w3.org/2000/svg" width="69.807" height="67.016" viewBox="0 0 69.807 67.016">
  <path id="global-network" d="M67.1,57a1.011,1.011,0,0,0,.053-.128,33.82,33.82,0,0,0-1.975-30.193,4.146,4.146,0,0,0-4.931-6.438c-.716-.732-1.467-1.433-2.246-2.1a4.145,4.145,0,0,0-6.751-4.46,33.4,33.4,0,0,0-29.909.158,4.139,4.139,0,0,0-6.777,4.594,33.748,33.748,0,0,0-3.194,3.193c-.854.977.693,2.317,1.541,1.346a31.7,31.7,0,0,1,2.969-2.972,4.169,4.169,0,0,0,6.1-1.521,44.536,44.536,0,0,1,10.485,4.538,4.212,4.212,0,0,0,.309,3.01,47.069,47.069,0,0,0-7.241,7.86A4.178,4.178,0,0,0,20.6,36.136a63.811,63.811,0,0,0-12.841,1.38,4.171,4.171,0,0,0-1.627-1.66,31.323,31.323,0,0,1,3.751-8.779A1.024,1.024,0,0,0,8.144,26a33.362,33.362,0,0,0-3.991,9.333A4.153,4.153,0,0,0,3.095,43.5,33.794,33.794,0,0,0,14.433,68.918a4.141,4.141,0,0,0,6.624,4.564,33.392,33.392,0,0,0,30.8,0,4.139,4.139,0,0,0,6.7-4.633A33.5,33.5,0,0,0,67.1,57Zm-1.289-2.288a64.181,64.181,0,0,0-9.24-7.606,4.193,4.193,0,0,0-1.036-4.215,63.931,63.931,0,0,0,6.5-14.768A4.092,4.092,0,0,0,63.5,27.86,31.767,31.767,0,0,1,65.816,54.713ZM18.739,66.278a44.877,44.877,0,0,1,4.389-24.449,4.179,4.179,0,0,0,5.285-3.187,61.251,61.251,0,0,1,20.224,6.166,4.2,4.2,0,0,0,.678,3.5,61.758,61.758,0,0,1-27.53,19.883,4.135,4.135,0,0,0-3.045-1.91ZM50.552,45.844a2.1,2.1,0,1,1,2.087,2.1A2.1,2.1,0,0,1,50.552,45.844ZM64.141,23.976a2.1,2.1,0,1,1-2.087-2.1A2.1,2.1,0,0,1,64.141,23.976Zm-5.452-2.405a4.2,4.2,0,0,0,1.374,6.04,61.9,61.9,0,0,1-6.287,14.246,4.2,4.2,0,0,0-1.762-.113A47.452,47.452,0,0,0,40.13,26.033a4.207,4.207,0,0,0,.309-3.01A44.534,44.534,0,0,1,50.52,18.6a4.138,4.138,0,0,0,6.29,1.212q.974.838,1.88,1.755ZM34.37,24.134a2.1,2.1,0,1,1,2.087,2.1,2.1,2.1,0,0,1-2.087-2.1Zm19.788-9.6a2.087,2.087,0,1,1-2.087,2.1A2.1,2.1,0,0,1,54.158,14.534Zm-35.866,4.2a2.087,2.087,0,1,1,2.087-2.1A2.1,2.1,0,0,1,18.292,18.739Zm4.129-2.259a4.153,4.153,0,0,0-.115-.827A31.348,31.348,0,0,1,50.2,15.446a4.147,4.147,0,0,0-.174,1.169,46.586,46.586,0,0,0-10.6,4.632,4.166,4.166,0,0,0-5.929,0,46.588,46.588,0,0,0-11.071-4.768ZM34.139,27.567a4.148,4.148,0,0,0,4.636,0A45.394,45.394,0,0,1,50.132,42.55a4.179,4.179,0,0,0-.509.463,63.286,63.286,0,0,0-21.346-6.449,4.155,4.155,0,0,0-.977-1.6,45.006,45.006,0,0,1,6.839-7.394Zm-9.785,8.2a2.087,2.087,0,1,1-2.087,2.1A2.1,2.1,0,0,1,24.354,35.764ZM2.029,39.477a2.1,2.1,0,1,1,2.087,2.1A2.1,2.1,0,0,1,2.029,39.477ZM5.141,43.5A4.062,4.062,0,0,0,8.248,39.5a115.363,115.363,0,0,1,11.985-1.319,4.141,4.141,0,0,0,1.148,2.56,46.918,46.918,0,0,0-4.669,25.824,4.139,4.139,0,0,0-1.09.669C8.948,61.259,5.141,51.241,5.141,43.5ZM18.292,72.5a2.1,2.1,0,0,1,0-4.2,2.134,2.134,0,0,1,2.087,2.1A2.1,2.1,0,0,1,18.292,72.5Zm18.165,2.711a31.243,31.243,0,0,1-14.264-3.447,4.255,4.255,0,0,0,.222-1.634A63.8,63.8,0,0,0,50.9,49.6a4.125,4.125,0,0,0,1.962.383,45.172,45.172,0,0,1,1.068,5.129,1.023,1.023,0,0,0,2.024-.3,47.22,47.22,0,0,0-1.139-5.445,4.153,4.153,0,0,0,.679-.528,62.112,62.112,0,0,1,9.48,7.923,31.462,31.462,0,0,1-7.7,10.49,4.123,4.123,0,0,0-1.083-.584,47.548,47.548,0,0,0,.259-5.721,1.023,1.023,0,0,0-2.046.032,45.5,45.5,0,0,1-.25,5.5,4.194,4.194,0,0,0-3.326,5.23,31.238,31.238,0,0,1-14.37,3.5ZM54.8,72.682a2.087,2.087,0,1,1,2.087-2.1A2.1,2.1,0,0,1,54.8,72.682Z" transform="translate(-0.002 -10.23)" fill="#ffc016"/>
</svg>
