<svg width="52" height="52" viewBox="0 0 52 52" fill="none"
     xmlns="http://www.w3.org/2000/svg">
    <path d="M45.233 42.449C47.8104 39.4436 49.6591 35.8837 50.6349 32.0466C51.6108 28.2096 51.6874 24.199 50.8589 20.3275C50.0304 16.4559 48.3191 12.828 45.8583 9.72631C43.3976 6.62467 40.254 4.13311 36.6723 2.4458C33.0906 0.758491 29.1677 -0.0790001 25.2093 -0.00140829C21.2508 0.0761836 17.3637 1.06676 13.851 2.89314C10.3382 4.71951 7.29454 7.33235 4.95726 10.528C2.61998 13.7237 1.05217 17.416 0.376007 21.317C0.397007 21.382 7.26101 42.449 45.233 42.449Z"
          fill="#FFC016"/>
    <path d="M29.792 20.399C29.7845 15.7351 31.1743 11.1758 33.782 7.30901C33.782 7.30901 7.80698 9.90001 0.169983 28.669V28.675C0.179983 28.69 0.222983 28.756 0.301983 28.867C1.62898 30.735 14.429 51.729 42.293 45.367C43.3501 44.4745 44.3339 43.4987 45.235 42.449C40.7091 40.8028 36.7994 37.8038 34.0366 33.8591C31.2739 29.9143 29.7919 25.215 29.792 20.399V20.399Z"
          fill="#64B6EC"/>
    <path d="M30.069 16.783C30.5938 13.3903 31.8613 10.1552 33.781 7.30901C33.781 7.30901 7.80698 9.90001 0.169983 28.669V28.675C0.179983 28.69 0.222983 28.756 0.301983 28.867C2.11006 31.6144 4.23166 34.142 6.62398 36.399C7.92062 31.0521 10.8973 26.2617 15.117 22.7312C19.3367 19.2006 24.5772 17.1159 30.069 16.783V16.783Z"
          fill="#4B9FDB"/>
    <path d="M27.642 47.365C24.6966 44.46 22.4761 40.9026 21.1601 36.9805C19.8442 33.0584 19.4696 28.8817 20.0668 24.788C20.664 20.6944 22.2161 16.7987 24.5977 13.416C26.9792 10.0333 30.1234 7.25852 33.776 5.316C33.776 5.316 8.87598 9.699 0.169983 28.67C0.704124 33.3389 2.5136 37.7705 5.39998 41.479C5.45498 41.519 13.507 47.379 27.642 47.366V47.365Z"
          fill="#4B9FDB"/>
    <path d="M21.706 18.718C22.0567 17.8531 22.4526 17.0073 22.892 16.184C25.3527 11.5553 29.1437 7.76992 33.776 5.316C33.776 5.316 8.87598 9.699 0.169983 28.67C0.704124 33.3389 2.5136 37.7705 5.39998 41.479C5.40798 41.485 5.58198 41.612 5.91598 41.823C6.03671 36.8585 7.59191 32.0352 10.3938 27.9352C13.1957 23.8353 17.1246 20.634 21.706 18.718V18.718Z"
          fill="#3188CA"/>
    <path d="M25.721 36.92C23.5584 33.7484 22.3954 30.0017 22.382 26.163C22.382 26.163 8.257 28.681 7.728 44.089L22.837 51.267C23.7923 51.3739 24.7528 51.4276 25.714 51.428C31.7843 51.4366 37.6603 49.2885 42.294 45.367C39.0435 45.4702 35.8196 44.75 32.9221 43.2731C30.0245 41.7963 27.5474 39.6109 25.721 36.92V36.92Z"
          fill="#A1DDFB"/>
    <path d="M7.73 44.089C11.8646 38.916 17.8376 35.54 24.402 34.666C23.0845 32.0256 22.3936 29.1169 22.383 26.166C22.383 26.166 8.258 28.684 7.729 44.092L7.73 44.089Z"
          fill="#7DCFFF"/>
    <path d="M17.016 36.109C17.2679 32.2789 18.6611 28.6121 21.016 25.581C21.016 25.581 7.04998 29.35 7.72598 44.089C11.8178 48.1041 17.1376 50.6314 22.835 51.267C20.82 49.3164 19.2553 46.9493 18.2502 44.3311C17.2451 41.713 16.8239 38.9069 17.016 36.109V36.109Z"
          fill="#7DCFFF"/>
    <path d="M7.72999 44.09C10.2139 40.9886 13.3806 38.5027 16.983 36.826C16.99 36.588 17 36.349 17.017 36.11C17.2689 32.2799 18.6621 28.6131 21.017 25.582C21.017 25.582 7.05099 29.351 7.72699 44.09H7.72999Z"
          fill="#64B6EC"/>
    <path d="M46.506 5.42401C46.106 6.79701 35.959 6.32401 35.959 8.33701C35.959 10.35 43.492 12.355 41.584 14.464C39.676 16.573 33.147 8.73901 15.267 15.564C7.01 18.719 2.167 25.356 0.166997 28.664C-0.113638 26.2146 -0.0439379 23.7377 0.373997 21.308C2.569 17.586 7.874 10.468 18.48 5.41501C23.3818 3.04679 28.7081 1.68368 34.145 1.40601C41.786 1.08601 47.105 3.37901 46.506 5.42401Z"
          fill="#A1DDFB"/>
    <path d="M13.426 24.945C7.22299 29.582 5.64899 37.682 5.39899 41.482C6.11549 42.4039 6.89361 43.2762 7.72799 44.093C8.35899 41.828 10.161 36.293 13.428 33.024C19.267 27.185 28.24 32.215 29.499 30.306C30.771 28.377 25.716 26.556 25.716 26.556C25.716 26.556 33.916 26.156 34.187 23.543C34.458 20.93 21.687 18.766 13.426 24.945Z"
          fill="#A1DDFB"/>
    <path d="M24.4 8.093C20.677 7.045 20.59 3.214 34.145 1.415C28.7088 1.69325 23.3832 3.0567 18.482 5.425C7.88001 10.476 2.57001 17.595 0.376011 21.316C-0.0419237 23.7457 -0.111624 26.2226 0.169012 28.672C2.16901 25.361 7.01101 18.724 15.269 15.572C15.269 15.572 28.126 9.143 24.403 8.096L24.4 8.093Z"
          fill="#7DCFFF"/>
    <path d="M20.72 21.618C18.0886 22.2215 15.6071 23.353 13.426 24.944C7.22599 29.584 5.65399 37.678 5.39899 41.478C6.1155 42.3999 6.89361 43.2722 7.72799 44.089C8.35899 41.824 10.161 36.289 13.428 33.02C13.722 32.7259 14.0343 32.4507 14.363 32.196V32.196C14.363 32.196 19.388 27.524 16.676 26.938C13.964 26.352 16.522 22.7 20.72 21.618Z"
          fill="#7DCFFF"/>
</svg>
