<svg id="nodes" xmlns="http://www.w3.org/2000/svg" width="67.031" height="67.031" viewBox="0 0 67.031 67.031">
  <path id="Path_102" data-name="Path 102" d="M63.1,40.435V26.6a4.974,4.974,0,1,0-3.72-9.056L49.491,7.647a4.973,4.973,0,1,0-7.016,1.421L38.043,19.8,30.5,12.26,38.335,9a1.047,1.047,0,1,0-.8-1.934L28.9,10.657,25.91,7.671a4.973,4.973,0,1,0-8.371-.024L7.648,17.54a4.974,4.974,0,1,0-1.774,9.085l2.864,6.891L5.874,40.406a4.974,4.974,0,1,0,1.774,9.085l9.892,9.892A4.974,4.974,0,1,0,26.6,63.1H40.435a4.975,4.975,0,1,0,0-2.095H26.982L57.97,48.131a4.974,4.974,0,1,0,5.134-7.7ZM57.162,22.62l-2.9,1.2-6-14.433,9.629,9.629a4.944,4.944,0,0,0-.732,3.608Zm.8,1.936a4.987,4.987,0,0,0,3.046,2.04V40.049l-5.942-14.3Zm1.1,16.267L47.227,28.988l5.9-2.437Zm5.875-19.09a2.88,2.88,0,1,1-2.88-2.88A2.883,2.883,0,0,1,64.937,21.733ZM45.3,2.095a2.88,2.88,0,1,1-2.88,2.88A2.883,2.883,0,0,1,45.3,2.095Zm-.887,7.774a4.912,4.912,0,0,0,1.786,0l6.13,14.749-6.7,2.768-5.976-5.976ZM43.526,28.25l-8.081,3.336,3.336-8.081ZM20.834,9.867a4.946,4.946,0,0,0,3.6-.714L26.8,11.527l-8.05,3.345Zm-4.822,6.145L9.384,18.766l9.383-9.383ZM21.733,2.095a2.88,2.88,0,1,1-2.88,2.88A2.883,2.883,0,0,1,21.733,2.095ZM2.095,21.733a2.88,2.88,0,1,1,2.88,2.88A2.883,2.883,0,0,1,2.095,21.733Zm5.713,4.086a4.965,4.965,0,0,0,2.06-4.985l5.005-2.08-5,12.033ZM9.872,36.245l2.093,5.035-2.9,1.2a5.014,5.014,0,0,0-1.261-1.263Zm0,8.166,2.9-1.2,6,14.433L9.137,48.019a4.944,4.944,0,0,0,.732-3.608ZM2.095,45.3a2.88,2.88,0,1,1,2.88,2.88A2.883,2.883,0,0,1,2.095,45.3ZM21.733,64.937a2.88,2.88,0,1,1,2.88-2.88A2.883,2.883,0,0,1,21.733,64.937ZM45.3,59.176a2.88,2.88,0,1,1-2.88,2.88A2.883,2.883,0,0,1,45.3,59.176Zm-19.479.048a4.965,4.965,0,0,0-4.985-2.06L14.7,42.415l4.082-1.685a1.047,1.047,0,1,0-.8-1.936L13.9,40.48l-2.895-6.965,6.608-15.9,10.792-4.485L37.177,21.9,32.713,32.714l-7.121,2.94a1.047,1.047,0,0,0,.8,1.936l5.194-2.144-7.472,18.1a1.047,1.047,0,1,0,1.936.8l8.267-20.026L45.13,29.854,57.878,42.6a4.945,4.945,0,0,0-.714,3.6ZM62.056,48.179a2.88,2.88,0,1,1,2.88-2.88A2.883,2.883,0,0,1,62.056,48.179Z" transform="translate(0 0)" fill="#ffc016"/>
  <path id="Path_103" data-name="Path 103" d="M162.052,283.792a1.047,1.047,0,1,0,1.366.572A1.047,1.047,0,0,0,162.052,283.792Z" transform="translate(-140.259 -246.57)" fill="#ffc016"/>
</svg>
