<svg xmlns="http://www.w3.org/2000/svg" width="74.461" height="67" viewBox="0 0 74.461 67">
  <g id="magnifying-lens" transform="translate(0 -25.653)">
    <g id="Group_162" data-name="Group 162" transform="translate(0 25.653)">
      <g id="Group_161" data-name="Group 161">
        <path id="Path_170" data-name="Path 170" d="M63.347,25.653H3.653A3.657,3.657,0,0,0,0,29.306V81.538a3.657,3.657,0,0,0,3.653,3.653H55.885a1.166,1.166,0,1,0,0-2.332H3.653a1.323,1.323,0,0,1-1.321-1.321v-43.6H48.423a1.166,1.166,0,1,0,0-2.332H2.332v-6.3a1.323,1.323,0,0,1,1.321-1.321H63.347a1.323,1.323,0,0,1,1.321,1.321v6.3H60.859a1.166,1.166,0,1,0,0,2.332h3.809V74.076a1.166,1.166,0,1,0,2.332,0V29.306A3.657,3.657,0,0,0,63.347,25.653Z" transform="translate(0 -25.653)" fill="#ffc016"/>
      </g>
    </g>
    <g id="Group_164" data-name="Group 164" transform="translate(52.231 35.602)">
      <g id="Group_163" data-name="Group 163" transform="translate(0 0)">
        <path id="Path_171" data-name="Path 171" d="M362.8,94.062h-2.488a1.166,1.166,0,0,0,0,2.332H362.8a1.166,1.166,0,1,0,0-2.332Z" transform="translate(-359.146 -94.062)" fill="#ffc016"/>
      </g>
    </g>
    <g id="Group_166" data-name="Group 166" transform="translate(4.981 30.627)">
      <g id="Group_165" data-name="Group 165">
        <path id="Path_172" data-name="Path 172" d="M35.419,59.857h-.013a1.172,1.172,0,1,0,.013,0Z" transform="translate(-34.247 -59.857)" fill="#ffc016"/>
      </g>
    </g>
    <g id="Group_168" data-name="Group 168" transform="translate(14.93 30.627)">
      <g id="Group_167" data-name="Group 167">
        <path id="Path_173" data-name="Path 173" d="M103.828,59.857h-.013a1.172,1.172,0,1,0,.013,0Z" transform="translate(-102.656 -59.857)" fill="#ffc016"/>
      </g>
    </g>
    <g id="Group_170" data-name="Group 170" transform="translate(9.943 30.627)">
      <g id="Group_169" data-name="Group 169">
        <path id="Path_174" data-name="Path 174" d="M69.538,59.857h-.012a1.172,1.172,0,1,0,.012,0Z" transform="translate(-68.366 -59.857)" fill="#ffc016"/>
      </g>
    </g>
    <g id="Group_172" data-name="Group 172" transform="translate(19.898 30.627)">
      <g id="Group_171" data-name="Group 171">
        <path id="Path_175" data-name="Path 175" d="M177.78,59.857h-39.8a1.166,1.166,0,0,0,0,2.332h39.8a1.166,1.166,0,1,0,0-2.332Z" transform="translate(-136.818 -59.857)" fill="#ffc016"/>
      </g>
    </g>
    <g id="Group_174" data-name="Group 174" transform="translate(9.949 44.307)">
      <g id="Group_173" data-name="Group 173">
        <path id="Path_176" data-name="Path 176" d="M72.062,153.92a3.653,3.653,0,1,0,3.653,3.653A3.657,3.657,0,0,0,72.062,153.92Zm0,4.975a1.321,1.321,0,1,1,1.321-1.321A1.323,1.323,0,0,1,72.062,158.895Z" transform="translate(-68.409 -153.92)" fill="#ffc016"/>
      </g>
    </g>
    <g id="Group_176" data-name="Group 176" transform="translate(19.898 44.307)">
      <g id="Group_175" data-name="Group 175">
        <path id="Path_177" data-name="Path 177" d="M172.805,153.92H137.984a1.166,1.166,0,1,0,0,2.332h34.821a1.166,1.166,0,1,0,0-2.332Z" transform="translate(-136.818 -153.92)" fill="#ffc016"/>
      </g>
    </g>
    <g id="Group_178" data-name="Group 178" transform="translate(19.898 49.282)">
      <g id="Group_177" data-name="Group 177" transform="translate(0 0)">
        <path id="Path_178" data-name="Path 178" d="M140.471,188.125h-2.487a1.166,1.166,0,0,0,0,2.332h2.487a1.166,1.166,0,0,0,0-2.332Z" transform="translate(-136.818 -188.125)" fill="#ffc016"/>
      </g>
    </g>
    <g id="Group_180" data-name="Group 180" transform="translate(34.821 49.282)">
      <g id="Group_179" data-name="Group 179" transform="translate(0 0)">
        <path id="Path_179" data-name="Path 179" d="M243.085,188.125H240.6a1.166,1.166,0,0,0,0,2.332h2.487a1.166,1.166,0,0,0,0-2.332Z" transform="translate(-239.432 -188.125)" fill="#ffc016"/>
      </g>
    </g>
    <g id="Group_182" data-name="Group 182" transform="translate(27.359 49.282)">
      <g id="Group_181" data-name="Group 181" transform="translate(0 0)">
        <path id="Path_180" data-name="Path 180" d="M191.778,188.125h-2.487a1.166,1.166,0,0,0,0,2.332h2.487a1.166,1.166,0,1,0,0-2.332Z" transform="translate(-188.125 -188.125)" fill="#ffc016"/>
      </g>
    </g>
    <g id="Group_184" data-name="Group 184" transform="translate(9.949 56.743)">
      <g id="Group_183" data-name="Group 183" transform="translate(0 0)">
        <path id="Path_181" data-name="Path 181" d="M72.062,239.432a3.653,3.653,0,1,0,3.653,3.653A3.657,3.657,0,0,0,72.062,239.432Zm0,4.974a1.321,1.321,0,1,1,1.321-1.321A1.323,1.323,0,0,1,72.062,244.406Z" transform="translate(-68.409 -239.432)" fill="#ffc016"/>
      </g>
    </g>
    <g id="Group_186" data-name="Group 186" transform="translate(19.898 56.743)">
      <g id="Group_185" data-name="Group 185" transform="translate(0 0)">
        <path id="Path_182" data-name="Path 182" d="M152.907,239.432H137.984a1.166,1.166,0,1,0,0,2.332h14.923a1.166,1.166,0,1,0,0-2.332Z" transform="translate(-136.818 -239.432)" fill="#ffc016"/>
      </g>
    </g>
    <g id="Group_188" data-name="Group 188" transform="translate(19.898 61.718)">
      <g id="Group_187" data-name="Group 187" transform="translate(0 0)">
        <path id="Path_183" data-name="Path 183" d="M140.471,273.636h-2.487a1.166,1.166,0,1,0,0,2.332h2.487a1.166,1.166,0,1,0,0-2.332Z" transform="translate(-136.818 -273.636)" fill="#ffc016"/>
      </g>
    </g>
    <g id="Group_190" data-name="Group 190" transform="translate(27.359 61.718)">
      <g id="Group_189" data-name="Group 189" transform="translate(0 0)">
        <path id="Path_184" data-name="Path 184" d="M191.778,273.636h-2.487a1.166,1.166,0,1,0,0,2.332h2.487a1.166,1.166,0,1,0,0-2.332Z" transform="translate(-188.125 -273.636)" fill="#ffc016"/>
      </g>
    </g>
    <g id="Group_192" data-name="Group 192" transform="translate(9.949 69.179)">
      <g id="Group_191" data-name="Group 191">
        <path id="Path_185" data-name="Path 185" d="M72.062,324.943a3.653,3.653,0,1,0,3.653,3.653A3.657,3.657,0,0,0,72.062,324.943Zm0,4.975a1.321,1.321,0,1,1,1.321-1.321A1.323,1.323,0,0,1,72.062,329.918Z" transform="translate(-68.409 -324.943)" fill="#ffc016"/>
      </g>
    </g>
    <g id="Group_194" data-name="Group 194" transform="translate(19.898 69.179)">
      <g id="Group_193" data-name="Group 193">
        <path id="Path_186" data-name="Path 186" d="M150.421,324.943H137.985a1.166,1.166,0,0,0,0,2.332h12.436a1.166,1.166,0,0,0,0-2.332Z" transform="translate(-136.819 -324.943)" fill="#ffc016"/>
      </g>
    </g>
    <g id="Group_196" data-name="Group 196" transform="translate(19.898 74.154)">
      <g id="Group_195" data-name="Group 195" transform="translate(0 0)">
        <path id="Path_187" data-name="Path 187" d="M140.471,359.148h-2.487a1.166,1.166,0,0,0,0,2.332h2.487a1.166,1.166,0,1,0,0-2.332Z" transform="translate(-136.818 -359.148)" fill="#ffc016"/>
      </g>
    </g>
    <g id="Group_198" data-name="Group 198" transform="translate(27.359 74.154)">
      <g id="Group_197" data-name="Group 197" transform="translate(0 0)">
        <path id="Path_188" data-name="Path 188" d="M191.778,359.148h-2.487a1.166,1.166,0,1,0,0,2.332h2.487a1.166,1.166,0,1,0,0-2.332Z" transform="translate(-188.125 -359.148)" fill="#ffc016"/>
      </g>
    </g>
    <g id="Group_200" data-name="Group 200" transform="translate(37.308 55.5)">
      <g id="Group_199" data-name="Group 199" transform="translate(0 0)">
        <path id="Path_189" data-name="Path 189" d="M292.617,261.8l-7.461-7.461a3.656,3.656,0,0,0-4.208-.691l-2.535-2.535a12.371,12.371,0,1,0-1.649,1.649l2.536,2.536a3.655,3.655,0,0,0,.69,4.207l7.461,7.461a3.653,3.653,0,1,0,5.167-5.166Zm-23.725-8.532a10.027,10.027,0,1,1,10.027-10.027A10.038,10.038,0,0,1,268.892,253.265Zm22.075,12.05a1.321,1.321,0,0,1-1.868,0l-7.462-7.462a1.321,1.321,0,1,1,1.868-1.868l7.462,7.462A1.323,1.323,0,0,1,290.968,265.315Z" transform="translate(-256.534 -230.88)" fill="#ffc016"/>
      </g>
    </g>
  </g>
</svg>
