<?xml version="1.0" encoding="UTF-8" standalone="no"?>
<!DOCTYPE svg PUBLIC "-//W3C//DTD SVG 1.1//EN" "http://www.w3.org/Graphics/SVG/1.1/DTD/svg11.dtd">
<svg width="100%" height="100%" viewBox="0 0 800 310" version="1.1" xmlns="http://www.w3.org/2000/svg" xmlns:xlink="http://www.w3.org/1999/xlink" xml:space="preserve" xmlns:serif="http://www.serif.com/" style="fill-rule:evenodd;clip-rule:evenodd;stroke-linecap:round;stroke-miterlimit:2;">
    <g transform="matrix(1,0,0,1,-1265,-122.806)">
        <g id="Artboard1" transform="matrix(1.27002,0,0,0.492132,1619.42,191.212)">
            <rect x="-279.07" y="-139" width="629.912" height="629.912" style="fill:none;"/>
            <clipPath id="_clip1">
                <rect x="-279.07" y="-139" width="629.912" height="629.912"/>
            </clipPath>
            <g clip-path="url(#_clip1)">
                <g transform="matrix(1,0,0,2.36514,48.8486,-657.578)">
                    <g transform="matrix(0.166912,0.679683,-0.622925,0.182121,146.844,160.345)">
                        <circle cx="304" cy="338" r="214" style="fill:url(#_Linear2);"/>
                    </g>
                    <g transform="matrix(2.24947,0,0,2.45444,-924.625,-543.449)">
                        <path d="M379.822,383.034C379.822,383.034 374.956,318.76 405.065,318.104C440.182,317.338 428.466,382.51 428.466,382.51L379.822,383.034Z" style="fill:rgb(34,25,27);fill-rule:nonzero;"/>
                        <path d="M427.299,351.383C426.895,349.988 425.744,348.897 424.107,348.665C424.338,345.694 424.361,342.395 424.023,338.694C423.819,336.457 423.291,334.24 422.35,332.2C419.499,326.022 413.115,321.907 406.026,321.907C396.944,321.907 390.725,327.284 387.563,337.785C386.703,340.64 386.348,343.833 386.387,347.075C386.397,347.908 385.863,348.613 385.102,348.95C384.421,349.251 383.874,349.729 383.486,350.311C381.903,352.679 383.78,355.884 386.62,356.095C386.893,356.115 387.187,356.137 387.488,356.159C388.635,361.137 390.583,365.525 392.94,368.078L392.295,399.048C399.463,407.216 411.607,407.778 418.689,399.314L417.726,368.078C417.746,368.041 421.266,363.058 422.94,356.156L423.827,356.091C426.293,355.91 427.988,353.757 427.299,351.383Z" style="fill:white;fill-rule:nonzero;"/>
                        <path d="M427.299,351.383C426.895,349.988 425.744,348.897 424.107,348.665C424.338,345.694 424.361,342.395 424.023,338.694C423.819,336.457 423.291,334.24 422.35,332.2C419.499,326.022 413.115,321.907 406.026,321.907C396.944,321.907 390.725,327.284 387.563,337.785C386.703,340.64 386.348,343.833 386.387,347.075C386.397,347.908 385.863,348.613 385.102,348.95C384.421,349.251 383.874,349.729 383.486,350.311C381.903,352.679 383.78,355.884 386.62,356.095C386.893,356.115 387.187,356.137 387.488,356.159C388.635,361.137 390.583,365.525 392.94,368.078L392.295,399.048C399.463,407.216 411.607,407.778 418.689,399.314L417.726,368.078C417.746,368.041 421.266,363.058 422.94,356.156L423.827,356.091C426.293,355.91 427.988,353.757 427.299,351.383Z" style="fill:none;stroke:rgb(34,25,27);stroke-width:0.67px;"/>
                        <path d="M417.452,368.024C410.569,374.659 403.257,372.828 399.471,371.684C395.37,370.445 392.709,367.469 392.709,367.469L392.709,374.8L392.881,374.845C395.408,375.51 397.77,375.79 399.957,375.79C409.617,375.789 415.695,370.316 417.648,368.318L418.426,367.195C418.426,367.195 418.359,366.706 418.149,367.011C417.665,367.71 417.54,367.94 417.452,368.024Z" style="fill:rgb(34,25,27);fill-rule:nonzero;"/>
                        <path d="M386.992,353.895C386.807,353.449 386.625,353.002 386.386,352.624C386.153,352.243 385.863,351.939 385.537,351.863C385.228,351.789 384.698,351.916 384.597,352.135C384.469,352.404 384.676,352.926 384.907,353.321C384.934,353.362 384.922,353.418 384.881,353.444C384.849,353.465 384.805,353.46 384.776,353.439C384.572,353.272 384.406,353.077 384.262,352.846C384.125,352.618 384.009,352.321 384.094,351.968C384.195,351.607 384.512,351.389 384.78,351.288C385.042,351.177 385.361,351.121 385.679,351.182C386.343,351.316 386.737,351.859 386.947,352.332C387.153,352.831 387.258,353.336 387.239,353.857C387.238,353.928 387.178,353.982 387.109,353.98C387.057,353.979 387.014,353.946 386.995,353.902L386.992,353.895Z" style="fill:rgb(32,29,34);fill-rule:nonzero;"/>
                        <path d="M423.069,353.857C423.05,353.336 423.155,352.831 423.361,352.332C423.571,351.859 423.964,351.316 424.628,351.182C424.947,351.121 425.265,351.177 425.529,351.288C425.795,351.389 426.113,351.608 426.214,351.968C426.298,352.321 426.182,352.618 426.045,352.846C425.901,353.077 425.735,353.272 425.531,353.439C425.493,353.47 425.438,353.464 425.406,353.426C425.382,353.397 425.383,353.353 425.401,353.321C425.632,352.926 425.839,352.404 425.711,352.135C425.609,351.916 425.08,351.789 424.771,351.863C424.446,351.939 424.155,352.243 423.922,352.624C423.683,353.002 423.501,353.449 423.316,353.895L423.312,353.902C423.285,353.967 423.211,353.997 423.146,353.971C423.099,353.951 423.07,353.905 423.069,353.857Z" style="fill:rgb(32,29,34);fill-rule:nonzero;"/>
                        <path d="M416.235,369.108C416.235,369.108 417.47,368.214 418.27,366.809L417.648,368.318L416.235,369.108Z" style="fill:rgb(34,25,27);fill-rule:nonzero;"/>
                        <path d="M398.047,345.942C398.047,346.766 397.553,347.433 396.944,347.433C396.333,347.432 395.839,346.765 395.839,345.941C395.84,345.118 396.334,344.451 396.944,344.451C397.553,344.452 398.047,345.119 398.047,345.942Z" style="fill:rgb(34,25,27);fill-rule:nonzero;"/>
                        <path d="M413.948,345.945C413.948,346.769 413.454,347.436 412.845,347.436C412.235,347.436 411.74,346.768 411.74,345.945C411.741,345.122 412.236,344.455 412.845,344.455C413.455,344.455 413.949,345.122 413.948,345.945Z" style="fill:rgb(34,25,27);fill-rule:nonzero;"/>
                        <path d="M391.786,339.049C393.271,337.439 395.559,336.653 397.772,336.747C398.882,336.786 400.002,337.017 401.02,337.519C402.03,338.009 402.968,338.784 403.483,339.85C403.758,340.363 403.867,340.983 403.927,341.525C403.974,342.077 403.99,342.621 404.006,343.166C404.034,344.256 404.037,345.342 404.031,346.428C404.028,348.6 403.914,350.767 403.802,352.934L403.648,352.775C404.749,352.826 405.85,352.859 406.951,352.93C405.85,353 404.749,353.033 403.648,353.084L403.495,353.091L403.493,352.926L403.422,346.43C403.409,345.348 403.388,344.267 403.341,343.19C403.267,342.114 403.302,341.014 402.885,340.135C402.469,339.231 401.665,338.525 400.747,338.062C399.823,337.601 398.793,337.33 397.744,337.233C395.649,337.059 393.442,337.628 391.786,339.049Z" style="fill:rgb(34,25,27);fill-rule:nonzero;"/>
                        <path d="M420.271,339.049C419.429,338.409 418.479,337.998 417.507,337.713C416.53,337.439 415.518,337.298 414.506,337.298C412.488,337.291 410.441,337.777 408.751,339.049C409.399,338.21 410.323,337.574 411.33,337.184C412.338,336.779 413.427,336.607 414.509,336.606C415.59,336.62 416.674,336.804 417.68,337.203C418.685,337.592 419.617,338.214 420.271,339.049Z" style="fill:rgb(34,25,27);fill-rule:nonzero;"/>
                        <path d="M399.902,358.206C400.687,358.864 401.54,359.407 402.419,359.85C403.305,360.277 404.245,360.571 405.197,360.598C406.142,360.637 407.104,360.431 407.957,359.957C408.416,359.777 408.785,359.436 409.214,359.177C409.618,358.881 409.972,358.52 410.386,358.206C410.091,358.621 409.78,359.037 409.44,359.43C409.046,359.765 408.702,360.182 408.226,360.425C407.357,361.039 406.247,361.324 405.171,361.288C404.088,361.243 403.047,360.876 402.158,360.32C401.268,359.767 400.492,359.048 399.902,358.206Z" style="fill:rgb(34,25,27);fill-rule:nonzero;"/>
                        <path d="M387.782,335.523C387.782,335.523 402.835,336.02 412.845,326.01C412.845,326.01 411.941,338.918 423.498,335.527C423.498,335.527 424.967,321.907 406.026,321.907C387.083,321.907 387.782,335.523 387.782,335.523Z" style="fill:rgb(34,25,27);fill-rule:nonzero;"/>
                        <path d="M418.044,387.597C406.456,392.914 392.491,387.654 392.344,387.599C377.806,390.641 364.679,398.977 363.185,413.388L363.177,435.392L446.868,435.392L447.379,414.137C446.155,399.384 432.851,390.719 418.044,387.597Z" style="fill:white;fill-rule:nonzero;"/>
                        <clipPath id="_clip3">
                            <path d="M418.044,387.597C406.456,392.914 392.491,387.654 392.344,387.599C377.806,390.641 364.679,398.977 363.185,413.388L363.177,435.392L446.868,435.392L447.379,414.137C446.155,399.384 432.851,390.719 418.044,387.597Z" clip-rule="nonzero"/>
                        </clipPath>
                        <g clip-path="url(#_clip3)">
                            <path d="M362.134,393.239C361.522,393.239 361.025,392.743 361.025,392.131C361.025,391.519 361.522,391.023 362.134,391.023C362.746,391.023 363.242,391.519 363.242,392.131C363.242,392.743 362.746,393.239 362.134,393.239Z" style="fill:rgb(255,192,22);fill-rule:nonzero;"/>
                            <path d="M362.134,400.704C361.522,400.704 361.025,400.208 361.025,399.596C361.025,398.984 361.522,398.487 362.134,398.487C362.746,398.487 363.242,398.984 363.242,399.596C363.242,400.208 362.746,400.704 362.134,400.704Z" style="fill:rgb(255,192,22);fill-rule:nonzero;"/>
                            <path d="M362.134,408.168C361.522,408.168 361.025,407.672 361.025,407.06C361.025,406.448 361.522,405.952 362.134,405.952C362.746,405.952 363.242,406.448 363.242,407.06C363.242,407.672 362.746,408.168 362.134,408.168Z" style="fill:rgb(255,192,22);fill-rule:nonzero;"/>
                            <path d="M362.134,415.633C361.522,415.633 361.025,415.137 361.025,414.525C361.025,413.913 361.522,413.417 362.134,413.417C362.746,413.417 363.242,413.913 363.242,414.525C363.242,415.137 362.746,415.633 362.134,415.633Z" style="fill:rgb(255,192,22);fill-rule:nonzero;"/>
                            <path d="M369.598,393.239C368.986,393.239 368.49,392.743 368.49,392.131C368.49,391.519 368.986,391.023 369.598,391.023C370.21,391.023 370.706,391.519 370.706,392.131C370.706,392.743 370.21,393.239 369.598,393.239Z" style="fill:rgb(255,192,22);fill-rule:nonzero;"/>
                            <path d="M369.598,400.704C368.986,400.704 368.49,400.208 368.49,399.596C368.49,398.984 368.986,398.487 369.598,398.487C370.21,398.487 370.706,398.984 370.706,399.596C370.706,400.208 370.21,400.704 369.598,400.704Z" style="fill:rgb(255,192,22);fill-rule:nonzero;"/>
                            <path d="M369.598,408.168C368.986,408.168 368.49,407.672 368.49,407.06C368.49,406.448 368.986,405.952 369.598,405.952C370.21,405.952 370.706,406.448 370.706,407.06C370.706,407.672 370.21,408.168 369.598,408.168Z" style="fill:rgb(255,192,22);fill-rule:nonzero;"/>
                            <path d="M369.598,415.633C368.986,415.633 368.49,415.137 368.49,414.525C368.49,413.913 368.986,413.417 369.598,413.417C370.21,413.417 370.706,413.913 370.706,414.525C370.706,415.137 370.21,415.633 369.598,415.633Z" style="fill:rgb(255,192,22);fill-rule:nonzero;"/>
                            <path d="M377.063,393.239C376.451,393.239 375.955,392.743 375.955,392.131C375.955,391.519 376.451,391.023 377.063,391.023C377.675,391.023 378.171,391.519 378.171,392.131C378.171,392.743 377.675,393.239 377.063,393.239Z" style="fill:rgb(255,192,22);fill-rule:nonzero;"/>
                            <path d="M377.063,400.704C376.451,400.704 375.955,400.208 375.955,399.596C375.955,398.984 376.451,398.487 377.063,398.487C377.675,398.487 378.171,398.984 378.171,399.596C378.171,400.208 377.675,400.704 377.063,400.704Z" style="fill:rgb(255,192,22);fill-rule:nonzero;"/>
                            <path d="M377.063,408.168C376.451,408.168 375.955,407.672 375.955,407.06C375.955,406.448 376.451,405.952 377.063,405.952C377.675,405.952 378.171,406.448 378.171,407.06C378.171,407.672 377.675,408.168 377.063,408.168Z" style="fill:rgb(255,192,22);fill-rule:nonzero;"/>
                            <path d="M377.063,415.633C376.451,415.633 375.955,415.137 375.955,414.525C375.955,413.913 376.451,413.417 377.063,413.417C377.675,413.417 378.171,413.913 378.171,414.525C378.171,415.137 377.675,415.633 377.063,415.633Z" style="fill:rgb(255,192,22);fill-rule:nonzero;"/>
                            <path d="M384.527,393.239C383.915,393.239 383.419,392.743 383.419,392.131C383.419,391.519 383.915,391.023 384.527,391.023C385.14,391.023 385.636,391.519 385.636,392.131C385.636,392.743 385.14,393.239 384.527,393.239Z" style="fill:rgb(255,192,22);fill-rule:nonzero;"/>
                            <path d="M384.527,400.704C383.915,400.704 383.419,400.208 383.419,399.596C383.419,398.984 383.915,398.487 384.527,398.487C385.14,398.487 385.636,398.984 385.636,399.596C385.636,400.208 385.14,400.704 384.527,400.704Z" style="fill:rgb(255,192,22);fill-rule:nonzero;"/>
                            <path d="M384.527,408.168C383.915,408.168 383.419,407.672 383.419,407.06C383.419,406.448 383.915,405.952 384.527,405.952C385.14,405.952 385.636,406.448 385.636,407.06C385.636,407.672 385.14,408.168 384.527,408.168Z" style="fill:rgb(255,192,22);fill-rule:nonzero;"/>
                            <path d="M384.527,415.633C383.915,415.633 383.419,415.137 383.419,414.525C383.419,413.913 383.915,413.417 384.527,413.417C385.14,413.417 385.636,413.913 385.636,414.525C385.636,415.137 385.14,415.633 384.527,415.633Z" style="fill:rgb(255,192,22);fill-rule:nonzero;"/>
                            <path d="M391.992,393.239C391.38,393.239 390.884,392.743 390.884,392.131C390.884,391.519 391.38,391.023 391.992,391.023C392.604,391.023 393.1,391.519 393.1,392.131C393.1,392.743 392.604,393.239 391.992,393.239Z" style="fill:rgb(255,192,22);fill-rule:nonzero;"/>
                            <path d="M391.992,400.704C391.38,400.704 390.884,400.208 390.884,399.596C390.884,398.984 391.38,398.487 391.992,398.487C392.604,398.487 393.1,398.984 393.1,399.596C393.1,400.208 392.604,400.704 391.992,400.704Z" style="fill:rgb(255,192,22);fill-rule:nonzero;"/>
                            <path d="M391.992,408.168C391.38,408.168 390.884,407.672 390.884,407.06C390.884,406.448 391.38,405.952 391.992,405.952C392.604,405.952 393.1,406.448 393.1,407.06C393.1,407.672 392.604,408.168 391.992,408.168Z" style="fill:rgb(255,192,22);fill-rule:nonzero;"/>
                            <path d="M391.992,415.633C391.38,415.633 390.884,415.137 390.884,414.525C390.884,413.913 391.38,413.417 391.992,413.417C392.604,413.417 393.1,413.913 393.1,414.525C393.1,415.137 392.604,415.633 391.992,415.633Z" style="fill:rgb(255,192,22);fill-rule:nonzero;"/>
                            <path d="M399.457,393.239C398.845,393.239 398.349,392.743 398.349,392.131C398.349,391.519 398.845,391.023 399.457,391.023C400.069,391.023 400.565,391.519 400.565,392.131C400.565,392.743 400.069,393.239 399.457,393.239Z" style="fill:rgb(255,192,22);fill-rule:nonzero;"/>
                            <path d="M399.457,400.704C398.845,400.704 398.349,400.208 398.349,399.596C398.349,398.984 398.845,398.487 399.457,398.487C400.069,398.487 400.565,398.984 400.565,399.596C400.565,400.208 400.069,400.704 399.457,400.704Z" style="fill:rgb(255,192,22);fill-rule:nonzero;"/>
                            <path d="M399.457,408.168C398.845,408.168 398.349,407.672 398.349,407.06C398.349,406.448 398.845,405.952 399.457,405.952C400.069,405.952 400.565,406.448 400.565,407.06C400.565,407.672 400.069,408.168 399.457,408.168Z" style="fill:rgb(255,192,22);fill-rule:nonzero;"/>
                            <path d="M399.457,415.633C398.845,415.633 398.349,415.137 398.349,414.525C398.349,413.913 398.845,413.417 399.457,413.417C400.069,413.417 400.565,413.913 400.565,414.525C400.565,415.137 400.069,415.633 399.457,415.633Z" style="fill:rgb(255,192,22);fill-rule:nonzero;"/>
                            <path d="M406.921,393.239C406.309,393.239 405.813,392.743 405.813,392.131C405.813,391.519 406.309,391.023 406.921,391.023C407.533,391.023 408.03,391.519 408.03,392.131C408.03,392.743 407.533,393.239 406.921,393.239Z" style="fill:rgb(255,192,22);fill-rule:nonzero;"/>
                            <path d="M406.921,400.704C406.309,400.704 405.813,400.208 405.813,399.596C405.813,398.984 406.309,398.487 406.921,398.487C407.533,398.487 408.03,398.984 408.03,399.596C408.03,400.208 407.533,400.704 406.921,400.704Z" style="fill:rgb(255,192,22);fill-rule:nonzero;"/>
                            <path d="M406.921,408.168C406.309,408.168 405.813,407.672 405.813,407.06C405.813,406.448 406.309,405.952 406.921,405.952C407.533,405.952 408.03,406.448 408.03,407.06C408.03,407.672 407.533,408.168 406.921,408.168Z" style="fill:rgb(255,192,22);fill-rule:nonzero;"/>
                            <path d="M406.921,415.633C406.309,415.633 405.813,415.137 405.813,414.525C405.813,413.913 406.309,413.417 406.921,413.417C407.533,413.417 408.03,413.913 408.03,414.525C408.03,415.137 407.533,415.633 406.921,415.633Z" style="fill:rgb(255,192,22);fill-rule:nonzero;"/>
                            <path d="M414.386,393.239C413.774,393.239 413.278,392.743 413.278,392.131C413.278,391.519 413.774,391.023 414.386,391.023C414.998,391.023 415.494,391.519 415.494,392.131C415.494,392.743 414.998,393.239 414.386,393.239Z" style="fill:rgb(255,192,22);fill-rule:nonzero;"/>
                            <path d="M414.386,400.704C413.774,400.704 413.278,400.208 413.278,399.596C413.278,398.984 413.774,398.487 414.386,398.487C414.998,398.487 415.494,398.984 415.494,399.596C415.494,400.208 414.998,400.704 414.386,400.704Z" style="fill:rgb(255,192,22);fill-rule:nonzero;"/>
                            <path d="M414.386,408.168C413.774,408.168 413.278,407.672 413.278,407.06C413.278,406.448 413.774,405.952 414.386,405.952C414.998,405.952 415.494,406.448 415.494,407.06C415.494,407.672 414.998,408.168 414.386,408.168Z" style="fill:rgb(255,192,22);fill-rule:nonzero;"/>
                            <path d="M414.386,415.633C413.774,415.633 413.278,415.137 413.278,414.525C413.278,413.913 413.774,413.417 414.386,413.417C414.998,413.417 415.494,413.913 415.494,414.525C415.494,415.137 414.998,415.633 414.386,415.633Z" style="fill:rgb(255,192,22);fill-rule:nonzero;"/>
                            <path d="M421.851,393.239C421.239,393.239 420.742,392.743 420.742,392.131C420.742,391.519 421.239,391.023 421.851,391.023C422.463,391.023 422.959,391.519 422.959,392.131C422.959,392.743 422.463,393.239 421.851,393.239Z" style="fill:rgb(255,192,22);fill-rule:nonzero;"/>
                            <path d="M421.851,400.704C421.239,400.704 420.742,400.208 420.742,399.596C420.742,398.984 421.239,398.487 421.851,398.487C422.463,398.487 422.959,398.984 422.959,399.596C422.959,400.208 422.463,400.704 421.851,400.704Z" style="fill:rgb(255,192,22);fill-rule:nonzero;"/>
                            <path d="M421.851,408.168C421.239,408.168 420.742,407.672 420.742,407.06C420.742,406.448 421.239,405.952 421.851,405.952C422.463,405.952 422.959,406.448 422.959,407.06C422.959,407.672 422.463,408.168 421.851,408.168Z" style="fill:rgb(255,192,22);fill-rule:nonzero;"/>
                            <path d="M421.851,415.633C421.239,415.633 420.742,415.137 420.742,414.525C420.742,413.913 421.239,413.417 421.851,413.417C422.463,413.417 422.959,413.913 422.959,414.525C422.959,415.137 422.463,415.633 421.851,415.633Z" style="fill:rgb(255,192,22);fill-rule:nonzero;"/>
                            <path d="M429.315,393.239C428.703,393.239 428.207,392.743 428.207,392.131C428.207,391.519 428.703,391.023 429.315,391.023C429.927,391.023 430.423,391.519 430.423,392.131C430.423,392.743 429.927,393.239 429.315,393.239Z" style="fill:rgb(255,192,22);fill-rule:nonzero;"/>
                            <path d="M429.315,400.704C428.703,400.704 428.207,400.208 428.207,399.596C428.207,398.984 428.703,398.487 429.315,398.487C429.927,398.487 430.423,398.984 430.423,399.596C430.423,400.208 429.927,400.704 429.315,400.704Z" style="fill:rgb(255,192,22);fill-rule:nonzero;"/>
                            <path d="M429.315,408.168C428.703,408.168 428.207,407.672 428.207,407.06C428.207,406.448 428.703,405.952 429.315,405.952C429.927,405.952 430.423,406.448 430.423,407.06C430.423,407.672 429.927,408.168 429.315,408.168Z" style="fill:rgb(255,192,22);fill-rule:nonzero;"/>
                            <path d="M429.315,415.633C428.703,415.633 428.207,415.137 428.207,414.525C428.207,413.913 428.703,413.417 429.315,413.417C429.927,413.417 430.423,413.913 430.423,414.525C430.423,415.137 429.927,415.633 429.315,415.633Z" style="fill:rgb(255,192,22);fill-rule:nonzero;"/>
                            <path d="M436.78,393.239C436.168,393.239 435.672,392.743 435.672,392.131C435.672,391.519 436.168,391.023 436.78,391.023C437.392,391.023 437.888,391.519 437.888,392.131C437.888,392.743 437.392,393.239 436.78,393.239Z" style="fill:rgb(255,192,22);fill-rule:nonzero;"/>
                            <path d="M436.78,400.704C436.168,400.704 435.672,400.208 435.672,399.596C435.672,398.984 436.168,398.487 436.78,398.487C437.392,398.487 437.888,398.984 437.888,399.596C437.888,400.208 437.392,400.704 436.78,400.704Z" style="fill:rgb(255,192,22);fill-rule:nonzero;"/>
                            <path d="M436.78,408.168C436.168,408.168 435.672,407.672 435.672,407.06C435.672,406.448 436.168,405.952 436.78,405.952C437.392,405.952 437.888,406.448 437.888,407.06C437.888,407.672 437.392,408.168 436.78,408.168Z" style="fill:rgb(255,192,22);fill-rule:nonzero;"/>
                            <path d="M436.78,415.633C436.168,415.633 435.672,415.137 435.672,414.525C435.672,413.913 436.168,413.417 436.78,413.417C437.392,413.417 437.888,413.913 437.888,414.525C437.888,415.137 437.392,415.633 436.78,415.633Z" style="fill:rgb(255,192,22);fill-rule:nonzero;"/>
                            <path d="M444.245,393.239C443.632,393.239 443.136,392.743 443.136,392.131C443.136,391.519 443.632,391.023 444.245,391.023C444.857,391.023 445.353,391.519 445.353,392.131C445.353,392.743 444.857,393.239 444.245,393.239Z" style="fill:rgb(255,192,22);fill-rule:nonzero;"/>
                            <path d="M444.245,400.704C443.632,400.704 443.136,400.208 443.136,399.596C443.136,398.984 443.632,398.487 444.245,398.487C444.857,398.487 445.353,398.984 445.353,399.596C445.353,400.208 444.857,400.704 444.245,400.704Z" style="fill:rgb(255,192,22);fill-rule:nonzero;"/>
                            <path d="M444.245,408.168C443.632,408.168 443.136,407.672 443.136,407.06C443.136,406.448 443.632,405.952 444.245,405.952C444.857,405.952 445.353,406.448 445.353,407.06C445.353,407.672 444.857,408.168 444.245,408.168Z" style="fill:rgb(255,192,22);fill-rule:nonzero;"/>
                            <path d="M444.245,415.633C443.632,415.633 443.136,415.137 443.136,414.525C443.136,413.913 443.632,413.417 444.245,413.417C444.857,413.417 445.353,413.913 445.353,414.525C445.353,415.137 444.857,415.633 444.245,415.633Z" style="fill:rgb(255,192,22);fill-rule:nonzero;"/>
                        </g>
                        <path d="M418.044,387.597C406.456,392.914 392.491,387.654 392.344,387.599C377.806,390.641 364.679,398.977 363.185,413.388L363.177,435.392L446.868,435.392L447.379,414.137C446.155,399.384 432.851,390.719 418.044,387.597Z" style="fill:none;stroke:rgb(34,25,27);stroke-width:0.67px;"/>
                        <path d="M382.837,417.862L382.837,435.392" style="fill:none;stroke:rgb(10,5,11);stroke-width:0.83px;"/>
                        <path d="M427.279,417.862L427.279,435.392" style="fill:none;stroke:rgb(10,5,11);stroke-width:0.83px;"/>
                    </g>
                </g>
                <g transform="matrix(-0.78011,-0.27567,0.106822,-2.01319,433.367,1622.94)">
                    <g transform="matrix(1.28829,-2.77556e-17,0,1,-145.534,1.13687e-13)">
                        <path d="M492.102,677.569C503.535,691.429 504.546,711.204 496.258,726.874C492.355,734.253 486.73,740.63 480.155,745.74C473.156,751.181 463.959,756.763 454.771,756.185C450.186,755.896 446.092,753.825 443.615,749.898C441.382,746.355 440.565,739.928 445.483,738.155C451.362,736.036 452.544,744.454 451.807,748.46C450.949,753.125 448.125,757.355 444.6,760.449C431.215,772.192 407.32,771.408 391.528,765.893C372.576,759.272 359.73,742.945 357.905,723.028C357.63,720.022 353.184,719.907 353.139,723.028C352.811,745.993 371.616,765.17 392.526,771.557C412.138,777.546 445.77,776.384 455.102,754.133C457.986,747.255 457.855,734.105 448.063,732.793C438.649,731.532 435.217,743.1 438.31,750.106C448.693,773.629 479.608,753.825 490.577,741.519C506.687,723.442 511.023,694.88 493.619,676.052C492.667,675.021 491.237,676.522 492.102,677.569Z" style="fill:rgb(34,42,64);fill-rule:nonzero;"/>
                    </g>
                    <g transform="matrix(1,0,1.11022e-16,1,-48.6831,-7.82701)">
                        <path d="M347.822,737.318C351.112,726.999 354.349,716.662 357.439,706.28C356.211,706.604 354.982,706.93 353.755,707.254C360.456,715.671 366.276,724.704 371.238,734.248C371.926,733.051 372.613,731.854 373.3,730.656C366.53,731.097 359.786,731.977 353.211,733.686C352.855,733.778 348.735,734.631 348.707,734.984C349.638,737.031 350.235,737.293 350.502,735.77C350.829,734.884 351.155,733.998 351.482,733.112C352.789,729.569 354.096,726.025 355.402,722.481C353.731,722.256 352.061,722.029 350.39,721.804C350.235,724.747 350.081,727.69 349.928,730.633C349.752,733.977 354.647,733.808 355.026,730.633C355.714,724.879 356.694,719.185 357.926,713.523L353.017,713.523C353.709,718.115 354.401,722.707 355.094,727.299C355.556,730.362 359.802,729.218 360.088,726.623C360.714,720.938 358.156,715.767 358.066,710.141C356.46,710.576 354.854,711.011 353.247,711.446C356.915,718.021 360.762,724.488 364.518,731.013C366.01,733.606 370.661,731.864 369.506,728.91C367.537,723.877 364.752,719.506 361.158,715.479C359.796,716.841 358.433,718.204 357.069,719.567C358.788,721.41 360.386,723.313 361.782,725.418C362.39,726.339 362.963,727.281 363.501,728.245C364.181,730.345 364.637,730.182 364.869,727.756C364.014,725.703 355.79,725.58 353.866,725.55L353.866,731.833C357.325,731.875 360.784,731.897 364.243,731.919C368.462,731.944 368.193,726.038 364.243,725.543C359.193,724.91 346.342,727.307 347.071,734.587C347.217,736.044 347.976,737.264 349.438,737.696C354.771,739.272 363.899,736.638 365.929,730.959C367.413,726.807 364.465,717.807 358.806,719.482C357.764,719.791 356.772,720.646 356.537,721.751C355.579,726.242 358.316,730.197 362.009,732.497C364.759,734.209 368.171,730.795 366.462,728.045C365.006,725.703 363.363,723.577 361.461,721.578C358.854,718.838 354.613,722.325 356.342,725.527C358.859,730.19 363.423,732.082 368.125,733.968C372.025,735.532 373.729,729.211 369.862,727.666C366.78,726.435 363.635,725.311 361.971,722.237C360.265,723.554 358.558,724.871 356.852,726.188C358.379,727.788 359.669,729.448 360.842,731.329C362.326,729.846 363.81,728.361 365.294,726.877C364.479,726.371 362.532,724.75 362.802,723.479C362.045,724.234 361.289,724.99 360.532,725.747C360.011,726.684 359.573,727.657 359.22,728.668C359.065,729.947 358.294,730.632 356.906,730.721C355.424,731.496 352.718,731.932 351.153,731.478C351.942,732.514 352.731,733.55 353.521,734.587C353.453,733.943 358.082,732.28 358.515,732.163C360.455,731.634 362.275,731.681 364.243,731.919L364.243,725.543C360.784,725.538 357.325,725.534 353.866,725.55C349.824,725.568 349.816,731.839 353.866,731.833C356.313,731.829 358.653,732.055 360.992,732.81C362.56,733.314 364.054,734.244 365.714,734.422C367.659,734.63 369.577,734.12 370.458,732.174C371.54,729.781 369.824,727.26 368.651,725.234C366.583,721.663 364.014,718.445 361.158,715.479C358.566,712.785 354.555,716.837 357.069,719.567C360.239,723.009 362.561,726.783 364.518,731.013C366.088,730.095 367.659,729.177 369.23,728.258C365.178,721.916 361.425,715.381 357.713,708.835C356.461,706.626 352.834,707.57 352.894,710.141C353.022,715.739 355.623,721.018 355.003,726.623C356.668,726.397 358.332,726.172 359.997,725.947C359.307,721.354 358.616,716.762 357.926,712.17C357.549,709.659 353.528,709.826 353.017,712.17C351.685,718.279 350.671,724.426 349.928,730.633L355.026,730.633C355.183,727.69 355.338,724.747 355.493,721.804C355.654,718.759 351.423,718.575 350.481,721.125C348.818,725.629 346.131,730.589 345.248,735.297C344.881,737.253 345.041,738.978 347.127,739.82C350.074,741.01 354.396,738.615 357.294,737.915C362.565,736.641 367.891,735.822 373.3,735.431C375.126,735.299 376.246,733.511 375.361,731.839C370.138,721.966 363.968,712.758 356.872,704.136C355.789,702.819 353.594,703.624 353.188,705.108C350.329,715.552 347.617,726.033 344.961,736.529C344.49,738.388 347.243,739.134 347.822,737.318Z" style="fill:rgb(34,42,64);fill-rule:nonzero;"/>
                    </g>
                </g>
                <g transform="matrix(0.279693,0,0,0.721788,-212.547,102.22)">
                    <g transform="matrix(113.08,0,0,113.08,1536.74,190)">
                        <path d="M0.514,-0.016C0.514,-0.004 0.504,0.002 0.483,0.002C0.474,0.002 0.465,0 0.457,-0.002C0.448,-0.005 0.443,-0.008 0.441,-0.01L0.451,-0.135C0.391,-0.083 0.348,-0.051 0.32,-0.038C0.277,-0.017 0.233,-0.006 0.188,-0.006C0.18,-0.006 0.171,-0.006 0.162,-0.007C0.067,-0.017 0.02,-0.078 0.02,-0.189C0.02,-0.24 0.033,-0.326 0.059,-0.448C0.067,-0.486 0.073,-0.521 0.075,-0.552C0.077,-0.552 0.081,-0.553 0.088,-0.553L0.1,-0.553C0.103,-0.553 0.106,-0.554 0.108,-0.554C0.129,-0.554 0.14,-0.538 0.14,-0.507C0.14,-0.485 0.135,-0.459 0.127,-0.427C0.101,-0.322 0.088,-0.249 0.088,-0.209C0.088,-0.167 0.099,-0.133 0.121,-0.109C0.135,-0.094 0.158,-0.084 0.188,-0.081L0.2,-0.081C0.306,-0.081 0.376,-0.132 0.409,-0.234C0.429,-0.294 0.44,-0.367 0.443,-0.451C0.445,-0.49 0.447,-0.529 0.448,-0.567C0.455,-0.587 0.465,-0.597 0.478,-0.597C0.49,-0.597 0.504,-0.591 0.519,-0.58C0.521,-0.542 0.521,-0.505 0.521,-0.469L0.512,-0.096C0.512,-0.069 0.512,-0.042 0.514,-0.016Z" style="fill:rgb(35,31,32);fill-rule:nonzero;"/>
                    </g>
                    <g transform="matrix(113.08,0,0,113.08,1600.23,190)">
                        <path d="M0.114,-0.459C0.123,-0.337 0.13,-0.196 0.136,-0.036C0.132,-0.016 0.116,-0.006 0.089,-0.006C0.082,-0.006 0.074,-0.007 0.067,-0.01C0.059,-0.013 0.055,-0.017 0.053,-0.022L0.053,-0.459L0.114,-0.459ZM0.023,-0.592C0.023,-0.615 0.037,-0.626 0.063,-0.626C0.081,-0.626 0.095,-0.622 0.106,-0.614C0.108,-0.607 0.109,-0.6 0.109,-0.593C0.109,-0.586 0.107,-0.58 0.102,-0.573C0.096,-0.567 0.089,-0.563 0.078,-0.563C0.068,-0.563 0.057,-0.566 0.047,-0.571C0.036,-0.576 0.029,-0.583 0.023,-0.592Z" style="fill:rgb(35,31,32);fill-rule:nonzero;"/>
                    </g>
                    <g transform="matrix(113.08,0,0,113.08,1617.35,190)">
                        <path d="M0.038,-0C0.026,-0 0.021,-0.01 0.021,-0.031L0.021,-0.041C0.03,-0.07 0.159,-0.27 0.406,-0.641C0.419,-0.66 0.426,-0.67 0.428,-0.673C0.431,-0.671 0.433,-0.666 0.433,-0.659C0.433,-0.652 0.429,-0.637 0.421,-0.614C0.413,-0.591 0.399,-0.559 0.378,-0.516C0.358,-0.473 0.333,-0.426 0.304,-0.375C0.275,-0.323 0.245,-0.273 0.214,-0.225C0.142,-0.113 0.083,-0.038 0.038,-0Z" style="fill:rgb(35,31,32);fill-rule:nonzero;"/>
                    </g>
                    <g transform="matrix(113.08,0,0,113.08,1668.81,190)">
                        <path d="M0.514,-0.016C0.514,-0.004 0.504,0.002 0.483,0.002C0.474,0.002 0.465,0 0.457,-0.002C0.448,-0.005 0.443,-0.008 0.441,-0.01L0.451,-0.135C0.391,-0.083 0.348,-0.051 0.32,-0.038C0.277,-0.017 0.233,-0.006 0.188,-0.006C0.18,-0.006 0.171,-0.006 0.162,-0.007C0.067,-0.017 0.02,-0.078 0.02,-0.189C0.02,-0.24 0.033,-0.326 0.059,-0.448C0.067,-0.486 0.073,-0.521 0.075,-0.552C0.077,-0.552 0.081,-0.553 0.088,-0.553L0.1,-0.553C0.103,-0.553 0.106,-0.554 0.108,-0.554C0.129,-0.554 0.14,-0.538 0.14,-0.507C0.14,-0.485 0.135,-0.459 0.127,-0.427C0.101,-0.322 0.088,-0.249 0.088,-0.209C0.088,-0.167 0.099,-0.133 0.121,-0.109C0.135,-0.094 0.158,-0.084 0.188,-0.081L0.2,-0.081C0.306,-0.081 0.376,-0.132 0.409,-0.234C0.429,-0.294 0.44,-0.367 0.443,-0.451C0.445,-0.49 0.447,-0.529 0.448,-0.567C0.455,-0.587 0.465,-0.597 0.478,-0.597C0.49,-0.597 0.504,-0.591 0.519,-0.58C0.521,-0.542 0.521,-0.505 0.521,-0.469L0.512,-0.096C0.512,-0.069 0.512,-0.042 0.514,-0.016Z" style="fill:rgb(35,31,32);fill-rule:nonzero;"/>
                    </g>
                    <g transform="matrix(113.08,0,0,113.08,1732.31,190)">
                        <path d="M0.291,-0.22C0.274,-0.206 0.258,-0.188 0.244,-0.164C0.229,-0.141 0.214,-0.118 0.199,-0.096C0.183,-0.074 0.167,-0.054 0.15,-0.038C0.133,-0.022 0.115,-0.014 0.095,-0.014C0.075,-0.014 0.062,-0.016 0.054,-0.022C0.046,-0.028 0.042,-0.035 0.042,-0.043C0.042,-0.052 0.042,-0.059 0.043,-0.064L0.229,-0.284C0.195,-0.326 0.166,-0.361 0.143,-0.391C0.12,-0.42 0.101,-0.444 0.086,-0.463C0.071,-0.482 0.059,-0.497 0.051,-0.507C0.043,-0.518 0.037,-0.526 0.034,-0.531C0.03,-0.536 0.028,-0.539 0.026,-0.542C0.026,-0.555 0.035,-0.564 0.053,-0.569C0.068,-0.574 0.081,-0.573 0.092,-0.567L0.279,-0.341L0.513,-0.616L0.569,-0.57L0.335,-0.292C0.357,-0.262 0.382,-0.236 0.411,-0.215C0.439,-0.194 0.465,-0.174 0.49,-0.156C0.515,-0.137 0.536,-0.118 0.552,-0.1C0.569,-0.081 0.577,-0.059 0.577,-0.033C0.575,-0.018 0.568,-0.008 0.557,-0.003C0.554,-0.002 0.549,-0.001 0.543,-0.001C0.536,-0.001 0.527,-0.006 0.514,-0.016L0.291,-0.22Z" style="fill:rgb(35,31,32);fill-rule:nonzero;"/>
                    </g>
                    <g transform="matrix(113.08,0,0,113.08,1845.39,190)">
                        <path d="M0.607,-0.074C0.607,-0.056 0.593,-0.047 0.564,-0.047C0.546,-0.047 0.521,-0.056 0.491,-0.073C0.48,-0.08 0.469,-0.086 0.458,-0.091C0.446,-0.097 0.434,-0.1 0.42,-0.1C0.4,-0.089 0.378,-0.077 0.354,-0.064C0.27,-0.02 0.197,0.002 0.134,0.002L0.103,-0L0.097,-0C0.094,-0 0.087,-0.001 0.076,-0.004C0.048,-0.011 0.026,-0.021 0.012,-0.034C0.007,-0.039 0.005,-0.043 0.005,-0.047C0.005,-0.052 0.006,-0.055 0.007,-0.058L0.185,-0.341C0.156,-0.39 0.138,-0.425 0.131,-0.445C0.12,-0.477 0.115,-0.515 0.115,-0.558C0.12,-0.624 0.143,-0.679 0.182,-0.723C0.212,-0.756 0.243,-0.772 0.273,-0.772C0.297,-0.772 0.315,-0.761 0.327,-0.738C0.336,-0.724 0.34,-0.704 0.34,-0.678C0.34,-0.602 0.304,-0.495 0.232,-0.357C0.234,-0.331 0.265,-0.294 0.324,-0.244C0.353,-0.22 0.377,-0.202 0.397,-0.19C0.418,-0.179 0.43,-0.173 0.436,-0.173C0.473,-0.194 0.498,-0.211 0.512,-0.225C0.525,-0.238 0.535,-0.249 0.542,-0.258C0.549,-0.266 0.556,-0.275 0.563,-0.285C0.583,-0.311 0.606,-0.336 0.634,-0.361C0.64,-0.361 0.647,-0.358 0.655,-0.352C0.663,-0.346 0.667,-0.342 0.666,-0.34C0.665,-0.339 0.662,-0.333 0.657,-0.323C0.652,-0.313 0.643,-0.3 0.629,-0.283C0.594,-0.24 0.543,-0.194 0.476,-0.146C0.563,-0.102 0.607,-0.078 0.607,-0.074ZM0.078,-0.061C0.078,-0.049 0.084,-0.043 0.095,-0.043C0.097,-0.043 0.105,-0.043 0.121,-0.043C0.136,-0.044 0.155,-0.046 0.178,-0.049C0.201,-0.053 0.224,-0.058 0.245,-0.065C0.282,-0.078 0.326,-0.099 0.378,-0.13L0.216,-0.292C0.2,-0.276 0.182,-0.253 0.161,-0.222C0.106,-0.141 0.078,-0.087 0.078,-0.061ZM0.2,-0.405C0.23,-0.422 0.254,-0.461 0.271,-0.521C0.284,-0.568 0.29,-0.614 0.29,-0.661L0.291,-0.687C0.291,-0.698 0.288,-0.706 0.283,-0.709C0.277,-0.712 0.267,-0.714 0.253,-0.714C0.239,-0.714 0.226,-0.708 0.214,-0.696C0.201,-0.684 0.191,-0.669 0.184,-0.651C0.169,-0.619 0.162,-0.58 0.162,-0.533C0.162,-0.486 0.175,-0.444 0.2,-0.405Z" style="fill:rgb(35,31,32);fill-rule:nonzero;"/>
                    </g>
                    <g transform="matrix(113.08,0,0,113.08,1535.3,303.08)">
                        <path d="M0.309,0.418L0.295,0.417C0.275,0.417 0.255,0.418 0.232,0.421L0.195,0.421C0.156,0.421 0.126,0.413 0.104,0.398C0.092,0.391 0.086,0.379 0.086,0.363L0.311,0.353C0.38,0.351 0.414,0.313 0.414,0.241L0.414,0.188L0.419,-0.127C0.419,-0.138 0.419,-0.147 0.418,-0.154C0.313,-0.056 0.211,-0.007 0.113,-0.007C0.105,-0.007 0.096,-0.007 0.088,-0.008C0.044,-0.008 0.022,-0.027 0.022,-0.065C0.024,-0.095 0.033,-0.128 0.049,-0.165C0.065,-0.201 0.086,-0.236 0.112,-0.269C0.138,-0.303 0.167,-0.333 0.199,-0.359C0.249,-0.4 0.298,-0.421 0.345,-0.421C0.399,-0.421 0.444,-0.392 0.479,-0.334C0.49,-0.179 0.495,-0.069 0.495,-0.004C0.495,0.061 0.494,0.115 0.492,0.156C0.49,0.198 0.486,0.236 0.479,0.271C0.472,0.305 0.463,0.332 0.452,0.353C0.441,0.373 0.428,0.387 0.413,0.396C0.388,0.411 0.354,0.418 0.309,0.418ZM0.367,-0.35C0.359,-0.352 0.348,-0.354 0.334,-0.354C0.32,-0.354 0.302,-0.348 0.28,-0.336C0.258,-0.324 0.237,-0.309 0.217,-0.291C0.197,-0.272 0.178,-0.251 0.16,-0.229C0.117,-0.173 0.096,-0.128 0.096,-0.095C0.096,-0.084 0.099,-0.076 0.104,-0.071C0.109,-0.069 0.115,-0.067 0.122,-0.067C0.128,-0.067 0.138,-0.069 0.151,-0.071C0.164,-0.073 0.182,-0.079 0.205,-0.088C0.227,-0.098 0.25,-0.11 0.274,-0.125C0.299,-0.14 0.32,-0.157 0.34,-0.175C0.385,-0.216 0.408,-0.257 0.408,-0.297C0.408,-0.321 0.395,-0.339 0.367,-0.35Z" style="fill:rgb(35,31,32);fill-rule:nonzero;"/>
                    </g>
                    <g transform="matrix(113.08,0,0,113.08,1593.61,303.08)">
                        <path d="M0.506,-0.356C0.479,-0.376 0.443,-0.386 0.4,-0.386C0.36,-0.386 0.323,-0.378 0.288,-0.363C0.223,-0.336 0.178,-0.301 0.154,-0.258C0.144,-0.238 0.139,-0.217 0.139,-0.195L0.139,-0.163C0.139,-0.145 0.142,-0.121 0.148,-0.09C0.155,-0.06 0.158,-0.029 0.158,0.002C0.145,0.003 0.133,0.004 0.125,0.007C0.117,0.009 0.109,0.011 0.104,0.011C0.098,0.011 0.093,0.008 0.088,0.003C0.084,-0.002 0.079,-0.012 0.074,-0.027C0.074,-0.031 0.072,-0.042 0.07,-0.061C0.068,-0.079 0.066,-0.101 0.063,-0.127C0.06,-0.153 0.057,-0.181 0.053,-0.212C0.05,-0.243 0.046,-0.274 0.043,-0.304C0.036,-0.369 0.03,-0.417 0.026,-0.447C0.026,-0.463 0.038,-0.471 0.061,-0.471C0.074,-0.471 0.085,-0.465 0.093,-0.454C0.101,-0.442 0.107,-0.429 0.111,-0.415C0.116,-0.4 0.119,-0.385 0.121,-0.371C0.122,-0.357 0.124,-0.347 0.125,-0.341C0.211,-0.418 0.318,-0.456 0.445,-0.456C0.46,-0.456 0.475,-0.456 0.49,-0.455C0.494,-0.456 0.499,-0.456 0.505,-0.456C0.511,-0.456 0.517,-0.452 0.522,-0.444C0.53,-0.435 0.533,-0.424 0.533,-0.411C0.533,-0.379 0.524,-0.36 0.506,-0.356Z" style="fill:rgb(35,31,32);fill-rule:nonzero;"/>
                    </g>
                    <g transform="matrix(113.08,0,0,113.08,1656,303.08)">
                        <path d="M0.41,-0.162C0.361,-0.085 0.296,-0.038 0.215,-0.02C0.196,-0.016 0.179,-0.014 0.164,-0.014C0.148,-0.014 0.136,-0.014 0.125,-0.014C0.115,-0.014 0.104,-0.016 0.092,-0.019C0.079,-0.021 0.068,-0.025 0.058,-0.031C0.034,-0.045 0.021,-0.064 0.021,-0.089C0.019,-0.101 0.018,-0.114 0.018,-0.128C0.018,-0.143 0.021,-0.162 0.027,-0.187C0.034,-0.211 0.046,-0.237 0.063,-0.265C0.08,-0.293 0.101,-0.318 0.126,-0.342C0.177,-0.391 0.233,-0.423 0.293,-0.438C0.311,-0.441 0.327,-0.443 0.341,-0.443C0.356,-0.443 0.369,-0.442 0.381,-0.44C0.419,-0.44 0.444,-0.415 0.457,-0.363C0.465,-0.331 0.471,-0.285 0.472,-0.227C0.474,-0.169 0.475,-0.124 0.477,-0.092C0.479,-0.061 0.483,-0.032 0.489,-0.006L0.432,-0.006C0.429,-0.023 0.427,-0.039 0.426,-0.053C0.424,-0.066 0.423,-0.079 0.422,-0.091C0.419,-0.118 0.415,-0.142 0.41,-0.162ZM0.406,-0.313C0.406,-0.351 0.388,-0.37 0.351,-0.37C0.346,-0.371 0.341,-0.371 0.337,-0.371C0.289,-0.371 0.239,-0.348 0.187,-0.303C0.162,-0.282 0.141,-0.258 0.123,-0.232C0.097,-0.195 0.084,-0.162 0.084,-0.133C0.084,-0.094 0.106,-0.072 0.15,-0.064C0.209,-0.066 0.265,-0.092 0.318,-0.145C0.341,-0.167 0.36,-0.192 0.375,-0.219C0.396,-0.255 0.406,-0.286 0.406,-0.313Z" style="fill:rgb(35,31,32);fill-rule:nonzero;"/>
                    </g>
                    <g transform="matrix(113.08,0,0,113.08,1713.53,303.08)">
                        <path d="M0.12,-0.392C0.209,-0.422 0.285,-0.438 0.35,-0.438C0.432,-0.438 0.486,-0.416 0.514,-0.373C0.526,-0.353 0.532,-0.331 0.532,-0.308C0.532,-0.275 0.522,-0.242 0.501,-0.207C0.481,-0.173 0.454,-0.141 0.42,-0.113C0.341,-0.049 0.245,-0.009 0.133,0.007C0.133,0.014 0.133,0.026 0.133,0.042C0.134,0.057 0.134,0.075 0.134,0.095C0.135,0.114 0.135,0.135 0.135,0.157C0.136,0.179 0.136,0.201 0.137,0.221C0.139,0.271 0.14,0.299 0.141,0.307C0.142,0.314 0.143,0.32 0.143,0.324C0.143,0.34 0.137,0.353 0.127,0.361C0.117,0.369 0.103,0.373 0.086,0.373L0.076,0.373L0.061,-0.412C0.066,-0.421 0.074,-0.424 0.084,-0.424C0.094,-0.423 0.102,-0.421 0.107,-0.416C0.113,-0.411 0.118,-0.403 0.12,-0.392ZM0.405,-0.357C0.384,-0.368 0.361,-0.374 0.336,-0.374C0.312,-0.374 0.288,-0.372 0.264,-0.367C0.209,-0.357 0.169,-0.334 0.143,-0.298C0.131,-0.281 0.125,-0.26 0.125,-0.235L0.125,-0.059C0.259,-0.089 0.354,-0.13 0.41,-0.184C0.443,-0.214 0.459,-0.246 0.459,-0.278C0.459,-0.313 0.441,-0.339 0.405,-0.357Z" style="fill:rgb(35,31,32);fill-rule:nonzero;"/>
                    </g>
                    <g transform="matrix(113.08,0,0,113.08,1776.48,303.08)">
                        <path d="M0.485,-0.014C0.479,-0.003 0.464,0.003 0.44,0.003C0.416,0.003 0.403,-0.006 0.403,-0.023C0.403,-0.1 0.402,-0.153 0.398,-0.182C0.393,-0.245 0.38,-0.279 0.361,-0.283C0.314,-0.292 0.276,-0.297 0.247,-0.297C0.217,-0.297 0.193,-0.288 0.173,-0.27C0.154,-0.252 0.139,-0.222 0.129,-0.181C0.119,-0.14 0.112,-0.082 0.107,-0.007L0.032,-0.007C0.034,-0.044 0.034,-0.078 0.034,-0.11C0.034,-0.142 0.034,-0.18 0.032,-0.224C0.031,-0.268 0.029,-0.316 0.027,-0.368C0.024,-0.428 0.022,-0.479 0.022,-0.52C0.022,-0.561 0.025,-0.599 0.03,-0.634C0.037,-0.646 0.046,-0.652 0.059,-0.652C0.074,-0.652 0.085,-0.647 0.094,-0.636C0.102,-0.625 0.107,-0.616 0.107,-0.607L0.103,-0.446C0.103,-0.386 0.105,-0.34 0.111,-0.311C0.17,-0.35 0.23,-0.369 0.293,-0.369C0.313,-0.369 0.335,-0.368 0.357,-0.364C0.406,-0.339 0.438,-0.312 0.453,-0.283C0.46,-0.268 0.465,-0.252 0.467,-0.235C0.469,-0.218 0.47,-0.199 0.471,-0.178C0.475,-0.104 0.479,-0.049 0.485,-0.014Z" style="fill:rgb(35,31,32);fill-rule:nonzero;"/>
                    </g>
                    <g transform="matrix(113.08,0,0,113.08,1832.47,303.08)">
                        <path d="M0.114,-0.459C0.123,-0.337 0.13,-0.196 0.136,-0.036C0.132,-0.016 0.116,-0.006 0.089,-0.006C0.082,-0.006 0.074,-0.007 0.067,-0.01C0.059,-0.013 0.055,-0.017 0.053,-0.022L0.053,-0.459L0.114,-0.459ZM0.023,-0.592C0.023,-0.615 0.037,-0.626 0.063,-0.626C0.081,-0.626 0.095,-0.622 0.106,-0.614C0.108,-0.607 0.109,-0.6 0.109,-0.593C0.109,-0.586 0.107,-0.58 0.102,-0.573C0.096,-0.567 0.089,-0.563 0.078,-0.563C0.068,-0.563 0.057,-0.566 0.047,-0.571C0.036,-0.576 0.029,-0.583 0.023,-0.592Z" style="fill:rgb(35,31,32);fill-rule:nonzero;"/>
                    </g>
                    <g transform="matrix(113.08,0,0,113.08,1849.58,303.08)">
                        <path d="M0.421,-0.103C0.448,-0.114 0.474,-0.124 0.499,-0.133C0.524,-0.142 0.549,-0.146 0.572,-0.146C0.595,-0.146 0.606,-0.139 0.606,-0.125C0.606,-0.122 0.606,-0.117 0.604,-0.11C0.602,-0.103 0.594,-0.095 0.578,-0.085C0.562,-0.076 0.542,-0.067 0.519,-0.059C0.496,-0.05 0.471,-0.042 0.443,-0.035C0.416,-0.028 0.389,-0.022 0.363,-0.017C0.309,-0.006 0.271,-0 0.248,-0C0.225,-0 0.201,-0.003 0.174,-0.008C0.148,-0.013 0.123,-0.021 0.101,-0.033C0.048,-0.061 0.021,-0.101 0.021,-0.154L0.021,-0.178C0.021,-0.189 0.026,-0.206 0.036,-0.228C0.046,-0.25 0.061,-0.272 0.08,-0.293C0.1,-0.315 0.122,-0.335 0.148,-0.354C0.203,-0.393 0.26,-0.418 0.32,-0.43C0.341,-0.434 0.359,-0.437 0.373,-0.437C0.387,-0.437 0.398,-0.436 0.407,-0.436C0.416,-0.436 0.426,-0.435 0.436,-0.434C0.445,-0.433 0.454,-0.431 0.461,-0.427C0.478,-0.418 0.486,-0.402 0.486,-0.377C0.486,-0.361 0.475,-0.346 0.453,-0.331C0.447,-0.327 0.442,-0.324 0.438,-0.32C0.434,-0.335 0.43,-0.348 0.425,-0.358C0.42,-0.369 0.408,-0.374 0.391,-0.374C0.314,-0.358 0.248,-0.333 0.192,-0.301C0.13,-0.264 0.099,-0.225 0.099,-0.184C0.099,-0.179 0.099,-0.174 0.1,-0.169C0.1,-0.127 0.116,-0.098 0.147,-0.08C0.172,-0.067 0.203,-0.061 0.241,-0.061C0.279,-0.061 0.312,-0.065 0.34,-0.074C0.368,-0.083 0.395,-0.092 0.421,-0.103Z" style="fill:rgb(35,31,32);fill-rule:nonzero;"/>
                    </g>
                    <g transform="matrix(113.08,0,0,113.08,1489.69,416.16)">
                        <path d="M0.488,-0.784C0.488,-0.722 0.486,-0.661 0.483,-0.601C0.479,-0.542 0.476,-0.483 0.473,-0.426C0.47,-0.369 0.469,-0.309 0.469,-0.245C0.469,-0.181 0.473,-0.113 0.482,-0.041C0.482,-0.026 0.48,-0.015 0.474,-0.009C0.469,-0.002 0.459,0.001 0.446,0.001C0.416,0.001 0.4,-0.024 0.4,-0.075L0.4,-0.107C0.308,-0.038 0.23,-0.004 0.166,-0.004C0.141,-0.004 0.115,-0.01 0.088,-0.022C0.062,-0.035 0.037,-0.06 0.014,-0.098C0.01,-0.113 0.009,-0.129 0.009,-0.146C0.009,-0.162 0.012,-0.181 0.018,-0.205C0.024,-0.228 0.037,-0.252 0.056,-0.276C0.075,-0.301 0.099,-0.323 0.126,-0.342C0.186,-0.382 0.251,-0.402 0.32,-0.402C0.35,-0.402 0.379,-0.398 0.406,-0.389C0.406,-0.4 0.407,-0.421 0.409,-0.45C0.41,-0.479 0.412,-0.51 0.414,-0.543C0.418,-0.628 0.421,-0.678 0.422,-0.693C0.423,-0.708 0.425,-0.721 0.427,-0.732C0.43,-0.743 0.433,-0.752 0.438,-0.76C0.447,-0.776 0.464,-0.784 0.488,-0.784ZM0.08,-0.153C0.08,-0.102 0.099,-0.076 0.136,-0.076C0.142,-0.076 0.148,-0.077 0.155,-0.078C0.182,-0.078 0.215,-0.086 0.254,-0.102C0.328,-0.131 0.373,-0.156 0.39,-0.178L0.39,-0.308C0.39,-0.33 0.371,-0.342 0.334,-0.342C0.329,-0.342 0.323,-0.343 0.316,-0.343C0.308,-0.343 0.297,-0.341 0.281,-0.338C0.266,-0.335 0.248,-0.329 0.229,-0.32C0.209,-0.312 0.19,-0.301 0.171,-0.289C0.131,-0.262 0.104,-0.231 0.089,-0.195C0.083,-0.182 0.08,-0.168 0.08,-0.153Z" style="fill:rgb(35,31,32);fill-rule:nonzero;"/>
                    </g>
                    <g transform="matrix(113.08,0,0,113.08,1547.67,416.16)">
                        <path d="M0.226,-0.068C0.283,-0.068 0.369,-0.094 0.484,-0.146C0.492,-0.146 0.497,-0.144 0.502,-0.139C0.507,-0.134 0.509,-0.129 0.509,-0.122C0.483,-0.078 0.433,-0.043 0.359,-0.019C0.286,0.006 0.217,0.01 0.153,-0.006C0.081,-0.025 0.037,-0.065 0.021,-0.128C0.02,-0.14 0.02,-0.157 0.02,-0.178C0.02,-0.199 0.025,-0.226 0.036,-0.26C0.046,-0.294 0.065,-0.327 0.091,-0.357C0.117,-0.388 0.147,-0.412 0.183,-0.43C0.218,-0.447 0.255,-0.456 0.295,-0.456C0.333,-0.456 0.375,-0.443 0.422,-0.417C0.444,-0.405 0.462,-0.391 0.475,-0.375C0.488,-0.359 0.494,-0.343 0.494,-0.327C0.494,-0.323 0.494,-0.318 0.493,-0.313C0.492,-0.274 0.473,-0.249 0.436,-0.238C0.419,-0.234 0.4,-0.231 0.379,-0.231L0.238,-0.237C0.191,-0.237 0.156,-0.227 0.131,-0.207C0.117,-0.196 0.106,-0.179 0.101,-0.157C0.117,-0.098 0.159,-0.068 0.226,-0.068ZM0.399,-0.37C0.385,-0.381 0.37,-0.388 0.354,-0.393C0.339,-0.397 0.326,-0.399 0.315,-0.399C0.305,-0.399 0.288,-0.396 0.265,-0.389C0.241,-0.382 0.22,-0.375 0.202,-0.366C0.157,-0.345 0.135,-0.324 0.135,-0.301C0.187,-0.296 0.226,-0.294 0.252,-0.294C0.324,-0.294 0.373,-0.3 0.398,-0.313C0.414,-0.319 0.422,-0.327 0.422,-0.337C0.422,-0.349 0.414,-0.36 0.399,-0.37Z" style="fill:rgb(35,31,32);fill-rule:nonzero;"/>
                    </g>
                    <g transform="matrix(113.08,0,0,113.08,1608.85,416.16)">
                        <path d="M0.36,-0.252C0.432,-0.252 0.468,-0.234 0.468,-0.197C0.468,-0.17 0.448,-0.138 0.408,-0.102C0.349,-0.048 0.269,-0.004 0.169,0.028C0.164,0.028 0.159,0.024 0.154,0.015C0.148,0.006 0.144,-0.001 0.141,-0.006C0.138,-0.011 0.136,-0.014 0.135,-0.016C0.21,-0.04 0.271,-0.07 0.319,-0.105C0.352,-0.129 0.368,-0.148 0.368,-0.163C0.368,-0.178 0.349,-0.186 0.311,-0.186C0.272,-0.186 0.216,-0.176 0.142,-0.158C0.108,-0.16 0.078,-0.172 0.054,-0.194C0.032,-0.215 0.021,-0.235 0.021,-0.255C0.021,-0.276 0.027,-0.295 0.039,-0.312C0.051,-0.329 0.066,-0.345 0.086,-0.36C0.105,-0.375 0.128,-0.389 0.154,-0.401C0.218,-0.432 0.284,-0.447 0.353,-0.447C0.373,-0.447 0.392,-0.445 0.411,-0.441C0.427,-0.441 0.436,-0.435 0.438,-0.421C0.441,-0.407 0.442,-0.385 0.442,-0.354C0.404,-0.371 0.361,-0.38 0.313,-0.38C0.253,-0.38 0.203,-0.368 0.164,-0.344C0.124,-0.32 0.103,-0.29 0.102,-0.252C0.102,-0.234 0.115,-0.225 0.142,-0.225L0.213,-0.232C0.274,-0.245 0.323,-0.252 0.36,-0.252Z" style="fill:rgb(35,31,32);fill-rule:nonzero;"/>
                    </g>
                    <g transform="matrix(113.08,0,0,113.08,1665.61,416.16)">
                        <path d="M0.114,-0.459C0.123,-0.337 0.13,-0.196 0.136,-0.036C0.132,-0.016 0.116,-0.006 0.089,-0.006C0.082,-0.006 0.074,-0.007 0.067,-0.01C0.059,-0.013 0.055,-0.017 0.053,-0.022L0.053,-0.459L0.114,-0.459ZM0.023,-0.592C0.023,-0.615 0.037,-0.626 0.063,-0.626C0.081,-0.626 0.095,-0.622 0.106,-0.614C0.108,-0.607 0.109,-0.6 0.109,-0.593C0.109,-0.586 0.107,-0.58 0.102,-0.573C0.096,-0.567 0.089,-0.563 0.078,-0.563C0.068,-0.563 0.057,-0.566 0.047,-0.571C0.036,-0.576 0.029,-0.583 0.023,-0.592Z" style="fill:rgb(35,31,32);fill-rule:nonzero;"/>
                    </g>
                    <g transform="matrix(113.08,0,0,113.08,1682.72,416.16)">
                        <path d="M0.309,0.418L0.295,0.417C0.275,0.417 0.255,0.418 0.232,0.421L0.195,0.421C0.156,0.421 0.126,0.413 0.104,0.398C0.092,0.391 0.086,0.379 0.086,0.363L0.311,0.353C0.38,0.351 0.414,0.313 0.414,0.241L0.414,0.188L0.419,-0.127C0.419,-0.138 0.419,-0.147 0.418,-0.154C0.313,-0.056 0.211,-0.007 0.113,-0.007C0.105,-0.007 0.096,-0.007 0.088,-0.008C0.044,-0.008 0.022,-0.027 0.022,-0.065C0.024,-0.095 0.033,-0.128 0.049,-0.165C0.065,-0.201 0.086,-0.236 0.112,-0.269C0.138,-0.303 0.167,-0.333 0.199,-0.359C0.249,-0.4 0.298,-0.421 0.345,-0.421C0.399,-0.421 0.444,-0.392 0.479,-0.334C0.49,-0.179 0.495,-0.069 0.495,-0.004C0.495,0.061 0.494,0.115 0.492,0.156C0.49,0.198 0.486,0.236 0.479,0.271C0.472,0.305 0.463,0.332 0.452,0.353C0.441,0.373 0.428,0.387 0.413,0.396C0.388,0.411 0.354,0.418 0.309,0.418ZM0.367,-0.35C0.359,-0.352 0.348,-0.354 0.334,-0.354C0.32,-0.354 0.302,-0.348 0.28,-0.336C0.258,-0.324 0.237,-0.309 0.217,-0.291C0.197,-0.272 0.178,-0.251 0.16,-0.229C0.117,-0.173 0.096,-0.128 0.096,-0.095C0.096,-0.084 0.099,-0.076 0.104,-0.071C0.109,-0.069 0.115,-0.067 0.122,-0.067C0.128,-0.067 0.138,-0.069 0.151,-0.071C0.164,-0.073 0.182,-0.079 0.205,-0.088C0.227,-0.098 0.25,-0.11 0.274,-0.125C0.299,-0.14 0.32,-0.157 0.34,-0.175C0.385,-0.216 0.408,-0.257 0.408,-0.297C0.408,-0.321 0.395,-0.339 0.367,-0.35Z" style="fill:rgb(35,31,32);fill-rule:nonzero;"/>
                    </g>
                    <g transform="matrix(113.08,0,0,113.08,1741.03,416.16)">
                        <path d="M0.407,-0.214C0.407,-0.291 0.403,-0.348 0.395,-0.385C0.4,-0.395 0.392,-0.399 0.371,-0.399C0.349,-0.399 0.32,-0.394 0.285,-0.383C0.25,-0.372 0.221,-0.361 0.199,-0.35C0.146,-0.324 0.117,-0.299 0.111,-0.275L0.111,-0.01L0.046,-0.01C0.037,-0.032 0.033,-0.094 0.033,-0.196C0.033,-0.287 0.035,-0.354 0.039,-0.397C0.042,-0.44 0.045,-0.465 0.047,-0.471C0.064,-0.482 0.077,-0.487 0.088,-0.487C0.104,-0.487 0.112,-0.468 0.112,-0.43C0.112,-0.415 0.111,-0.4 0.11,-0.386C0.108,-0.372 0.107,-0.363 0.107,-0.357C0.213,-0.435 0.295,-0.474 0.353,-0.474C0.418,-0.474 0.456,-0.421 0.465,-0.314C0.469,-0.277 0.471,-0.226 0.471,-0.16L0.47,-0.083C0.47,-0.054 0.47,-0.027 0.472,-0C0.465,0.004 0.46,0.006 0.456,0.006C0.454,0.005 0.45,0.004 0.443,0.003C0.437,0.002 0.428,0.001 0.418,-0C0.411,-0.026 0.408,-0.053 0.407,-0.08C0.407,-0.107 0.406,-0.132 0.406,-0.154L0.407,-0.214Z" style="fill:rgb(35,31,32);fill-rule:nonzero;"/>
                    </g>
                    <g transform="matrix(113.08,0,0,113.08,1797.57,416.16)">
                        <path d="M0.226,-0.068C0.283,-0.068 0.369,-0.094 0.484,-0.146C0.492,-0.146 0.497,-0.144 0.502,-0.139C0.507,-0.134 0.509,-0.129 0.509,-0.122C0.483,-0.078 0.433,-0.043 0.359,-0.019C0.286,0.006 0.217,0.01 0.153,-0.006C0.081,-0.025 0.037,-0.065 0.021,-0.128C0.02,-0.14 0.02,-0.157 0.02,-0.178C0.02,-0.199 0.025,-0.226 0.036,-0.26C0.046,-0.294 0.065,-0.327 0.091,-0.357C0.117,-0.388 0.147,-0.412 0.183,-0.43C0.218,-0.447 0.255,-0.456 0.295,-0.456C0.333,-0.456 0.375,-0.443 0.422,-0.417C0.444,-0.405 0.462,-0.391 0.475,-0.375C0.488,-0.359 0.494,-0.343 0.494,-0.327C0.494,-0.323 0.494,-0.318 0.493,-0.313C0.492,-0.274 0.473,-0.249 0.436,-0.238C0.419,-0.234 0.4,-0.231 0.379,-0.231L0.238,-0.237C0.191,-0.237 0.156,-0.227 0.131,-0.207C0.117,-0.196 0.106,-0.179 0.101,-0.157C0.117,-0.098 0.159,-0.068 0.226,-0.068ZM0.399,-0.37C0.385,-0.381 0.37,-0.388 0.354,-0.393C0.339,-0.397 0.326,-0.399 0.315,-0.399C0.305,-0.399 0.288,-0.396 0.265,-0.389C0.241,-0.382 0.22,-0.375 0.202,-0.366C0.157,-0.345 0.135,-0.324 0.135,-0.301C0.187,-0.296 0.226,-0.294 0.252,-0.294C0.324,-0.294 0.373,-0.3 0.398,-0.313C0.414,-0.319 0.422,-0.327 0.422,-0.337C0.422,-0.349 0.414,-0.36 0.399,-0.37Z" style="fill:rgb(35,31,32);fill-rule:nonzero;"/>
                    </g>
                    <g transform="matrix(113.08,0,0,113.08,1858.75,416.16)">
                        <path d="M0.506,-0.356C0.479,-0.376 0.443,-0.386 0.4,-0.386C0.36,-0.386 0.323,-0.378 0.288,-0.363C0.223,-0.336 0.178,-0.301 0.154,-0.258C0.144,-0.238 0.139,-0.217 0.139,-0.195L0.139,-0.163C0.139,-0.145 0.142,-0.121 0.148,-0.09C0.155,-0.06 0.158,-0.029 0.158,0.002C0.145,0.003 0.133,0.004 0.125,0.007C0.117,0.009 0.109,0.011 0.104,0.011C0.098,0.011 0.093,0.008 0.088,0.003C0.084,-0.002 0.079,-0.012 0.074,-0.027C0.074,-0.031 0.072,-0.042 0.07,-0.061C0.068,-0.079 0.066,-0.101 0.063,-0.127C0.06,-0.153 0.057,-0.181 0.053,-0.212C0.05,-0.243 0.046,-0.274 0.043,-0.304C0.036,-0.369 0.03,-0.417 0.026,-0.447C0.026,-0.463 0.038,-0.471 0.061,-0.471C0.074,-0.471 0.085,-0.465 0.093,-0.454C0.101,-0.442 0.107,-0.429 0.111,-0.415C0.116,-0.4 0.119,-0.385 0.121,-0.371C0.122,-0.357 0.124,-0.347 0.125,-0.341C0.211,-0.418 0.318,-0.456 0.445,-0.456C0.46,-0.456 0.475,-0.456 0.49,-0.455C0.494,-0.456 0.499,-0.456 0.505,-0.456C0.511,-0.456 0.517,-0.452 0.522,-0.444C0.53,-0.435 0.533,-0.424 0.533,-0.411C0.533,-0.379 0.524,-0.36 0.506,-0.356Z" style="fill:rgb(35,31,32);fill-rule:nonzero;"/>
                    </g>
                </g>
            </g>
        </g>
    </g>
    <defs>
        <linearGradient id="_Linear2" x1="0" y1="0" x2="1" y2="0" gradientUnits="userSpaceOnUse" gradientTransform="matrix(457.428,-24.3836,24.3836,457.428,193.623,369.11)"><stop offset="0" style="stop-color:rgb(33,41,63);stop-opacity:1"/><stop offset="1" style="stop-color:rgb(34,75,102);stop-opacity:1"/></linearGradient>
    </defs>
</svg>
