<svg xmlns="http://www.w3.org/2000/svg" width="29.774" height="39.714" viewBox="0 0 29.774 39.714">
  <g id="lighthouse_1_" data-name="lighthouse (1)" transform="translate(-64.078)">
    <g id="Group_63" data-name="Group 63" transform="translate(78.189 33.276)">
      <g id="Group_62" data-name="Group 62" transform="translate(0)">
        <path id="Path_61" data-name="Path 61" d="M246.776,429a.776.776,0,1,0,.776.776A.776.776,0,0,0,246.776,429Z" transform="translate(-246 -429)" fill="#fff"/>
      </g>
    </g>
    <g id="Group_65" data-name="Group 65" transform="translate(64.227)">
      <g id="Group_64" data-name="Group 64" transform="translate(0)">
        <path id="Path_62" data-name="Path 62" d="M94.7,38.163H92.373V35.6a2.33,2.33,0,0,0-2.327-2.327H89.27V32.5a2.331,2.331,0,0,0-1.607-2.213L86.226,14.273a2.327,2.327,0,0,0-.059-4.366v-3.7h.776a.776.776,0,1,0,0-1.551h-.831a5.43,5.43,0,0,0-10.749,0h-.831a.776.776,0,1,0,0,1.551h.776v3.7a2.327,2.327,0,0,0-.059,4.367L73.813,30.288A2.331,2.331,0,0,0,72.205,32.5v.776H71.43A2.33,2.33,0,0,0,69.1,35.6v2.56H66.776a.776.776,0,1,0,0,1.551H94.7a.776.776,0,0,0,0-1.551ZM80.738,1.551a3.877,3.877,0,0,1,3.8,3.1h-7.6A3.877,3.877,0,0,1,80.738,1.551Zm3.878,4.654V9.773h-3.1V6.205Zm-7.757,0h3.1V9.773h-3.1Zm-.776,5.119h9.308a.776.776,0,0,1,0,1.551H76.084a.776.776,0,0,1,0-1.551Zm8.637,3.53.384,4.279-9.144,4.572.42-4.681Zm-8.177,2.354.249-2.782h5.313Zm8.71,3.585.385,4.288-9.745,5.091h-.513l.417-4.652Zm.535,5.96.307,3.419H79.243Zm5.033,11.409H70.654V35.6a.777.777,0,0,1,.776-.776H77.6a.776.776,0,0,0,0-1.551H73.757V32.5a.777.777,0,0,1,.776-.776H86.943a.777.777,0,0,1,.775.776v.776H83.873a.776.776,0,1,0,0,1.551h6.173a.777.777,0,0,1,.776.776Z" transform="translate(-66)" fill="#fff"/>
      </g>
    </g>
    <g id="Group_67" data-name="Group 67" transform="translate(87.003 13.158)">
      <g id="Group_66" data-name="Group 66">
        <path id="Path_63" data-name="Path 63" d="M366.006,171.891l-5.3-2.194a.776.776,0,0,0-.594,1.433l5.3,2.194a.776.776,0,0,0,.594-1.433Z" transform="translate(-359.637 -169.638)" fill="#fff"/>
      </g>
    </g>
    <g id="Group_69" data-name="Group 69" transform="translate(87.003 4.195)">
      <g id="Group_68" data-name="Group 68" transform="translate(0)">
        <path id="Path_64" data-name="Path 64" d="M366.427,54.557a.776.776,0,0,0-1.013-.42l-5.3,2.194a.776.776,0,0,0,.594,1.433l5.3-2.194A.776.776,0,0,0,366.427,54.557Z" transform="translate(-359.638 -54.078)" fill="#fff"/>
      </g>
    </g>
    <g id="Group_71" data-name="Group 71" transform="translate(87.497 9.773)">
      <g id="Group_70" data-name="Group 70" transform="translate(0)">
        <path id="Path_65" data-name="Path 65" d="M369.878,126h-3.1a.776.776,0,0,0,0,1.551h3.1a.776.776,0,0,0,0-1.551Z" transform="translate(-366 -126)" fill="#fff"/>
      </g>
    </g>
    <g id="Group_73" data-name="Group 73" transform="translate(64.078 4.195)">
      <g id="Group_72" data-name="Group 72" transform="translate(0)">
        <path id="Path_66" data-name="Path 66" d="M70.447,56.332l-5.3-2.194a.776.776,0,0,0-.594,1.433l5.3,2.194a.776.776,0,0,0,.594-1.433Z" transform="translate(-64.078 -54.079)" fill="#fff"/>
      </g>
    </g>
    <g id="Group_75" data-name="Group 75" transform="translate(64.077 13.158)">
      <g id="Group_74" data-name="Group 74" transform="translate(0)">
        <path id="Path_67" data-name="Path 67" d="M70.866,170.118a.776.776,0,0,0-1.013-.42l-5.3,2.194a.776.776,0,0,0,.594,1.433l5.3-2.194A.776.776,0,0,0,70.866,170.118Z" transform="translate(-64.077 -169.639)" fill="#fff"/>
      </g>
    </g>
    <g id="Group_77" data-name="Group 77" transform="translate(65.778 9.773)">
      <g id="Group_76" data-name="Group 76" transform="translate(0)">
        <path id="Path_68" data-name="Path 68" d="M89.878,126h-3.1a.776.776,0,0,0,0,1.551h3.1a.776.776,0,0,0,0-1.551Z" transform="translate(-86 -126)" fill="#fff"/>
      </g>
    </g>
  </g>
</svg>
