<svg xmlns="http://www.w3.org/2000/svg" width="67.034" height="67.031" viewBox="0 0 67.034 67.031">
  <g id="XMLID_1441_" transform="translate(0 -0.01)">
    <g id="XMLID_561_" transform="translate(0 0.011)">
      <path id="XMLID_592_" d="M63.106,36.143H61.8V26.978a7.605,7.605,0,0,0-5.923-7.406L49.915,9.251a6.541,6.541,0,0,0-7.542-2.995L38.04,1.923a6.547,6.547,0,0,0-9.248,0L11.33,19.385H7.594A7.6,7.6,0,0,0,0,26.978v32.47a7.6,7.6,0,0,0,7.594,7.594H25.007a1.309,1.309,0,0,0,0-2.619H7.594a4.981,4.981,0,0,1-4.975-4.975V26.978A4.981,4.981,0,0,1,7.594,22H54.2a4.981,4.981,0,0,1,4.975,4.975v9.165H49.49a7.07,7.07,0,1,0,0,14.14h9.689v9.165A4.981,4.981,0,0,1,54.2,64.423H36.79a1.309,1.309,0,1,0,0,2.619H54.2A7.6,7.6,0,0,0,61.8,59.448V50.283h1.309a3.932,3.932,0,0,0,3.928-3.928V40.071A3.932,3.932,0,0,0,63.106,36.143ZM45.267,8.733a3.9,3.9,0,0,1,2.381,1.827l5.095,8.825H24.522l17.77-10.26a3.9,3.9,0,0,1,2.975-.392ZM30.644,3.774a3.921,3.921,0,0,1,5.545,0L39.9,7.484l-20.613,11.9H15.034ZM64.416,46.355a1.311,1.311,0,0,1-1.309,1.309H49.49a4.451,4.451,0,1,1,0-8.9H63.106a1.311,1.311,0,0,1,1.309,1.309Z" transform="translate(0 -0.011)" fill="#ffc016"/>
      <path id="XMLID_1063_" d="M367.639,319.988a1.31,1.31,0,1,0,.926.384A1.319,1.319,0,0,0,367.639,319.988Z" transform="translate(-318.368 -278.095)" fill="#ffc016"/>
      <path id="XMLID_1068_" d="M227.309,491.988a1.31,1.31,0,1,0,.926.384A1.319,1.319,0,0,0,227.309,491.988Z" transform="translate(-196.411 -427.575)" fill="#ffc016"/>
    </g>
  </g>
</svg>
